STARTFONT 2.1
COMMENT
COMMENT Converted from OpenType font "NimbusSans-Regular.otf" by "otf2bdf 3.0".
COMMENT
FONT -FreeType-Nimbus Sans-Medium-R-Normal--66-480-100-100-P-347-ISO10646-1
SIZE 48 100 100
FONTBOUNDINGBOX 83 92 -14 -20
STARTPROPERTIES 19
FOUNDRY "FreeType"
FAMILY_NAME "Nimbus Sans"
WEIGHT_NAME "Medium"
SLANT "R"
SETWIDTH_NAME "Normal"
ADD_STYLE_NAME ""
PIXEL_SIZE 66
POINT_SIZE 480
RESOLUTION_X 100
RESOLUTION_Y 100
SPACING "P"
AVERAGE_WIDTH 347
CHARSET_REGISTRY "ISO10646"
CHARSET_ENCODING "1"
FONT_ASCENT 48
FONT_DESCENT 18
COPYRIGHT "(URW)++,Copyright 2014 by (URW)++ Design & Development"
_OTF_FONTFILE "NimbusSans-Regular.otf"
_OTF_PSNAME "NimbusSans-Regular"
ENDPROPERTIES
CHARS 854
STARTCHAR 0020
ENCODING 32
SWIDTH 285 0
DWIDTH 19 0
BBX 0 0 0 0
BITMAP
ENDCHAR
STARTCHAR 0021
ENCODING 33
SWIDTH 285 0
DWIDTH 19 0
BBX 6 49 8 0
BITMAP
FC
FC
FC
FC
FC
FC
FC
FC
FC
FC
FC
FC
FC
FC
FC
FC
FC
FC
FC
FC
FC
FC
FC
FC
FC
7C
78
78
78
78
78
78
78
78
78
38
38
30
00
00
00
00
FC
FC
FC
FC
FC
FC
FC
ENDCHAR
STARTCHAR 0022
ENCODING 34
SWIDTH 360 0
DWIDTH 24 0
BBX 17 16 3 31
BITMAP
FE1F80
FE1F80
FE1F80
FE1F80
FE1F80
FE1F80
FE1F80
7E1F80
7C1F80
7C0F80
7C0F80
7C0F00
3C0F00
380F00
380700
380700
ENDCHAR
STARTCHAR 0023
ENCODING 35
SWIDTH 555 0
DWIDTH 37 0
BBX 35 48 1 -1
BITMAP
0007C03E00
0007C03E00
000FC03E00
000F803E00
000F807E00
000F807C00
000F807C00
000F807C00
001F007C00
001F007C00
001F00F800
001F00F800
001F00F800
3FFFFFFFE0
3FFFFFFFE0
3FFFFFFFE0
3FFFFFFFE0
3FFFFFFFE0
007E01F000
007C01F000
007C01F000
007C03E000
007C03E000
007C03E000
00FC03E000
00F803E000
00F807E000
00F807C000
00F807C000
FFFFFFFF80
FFFFFFFF80
FFFFFFFF80
FFFFFFFF80
FFFFFFFF80
01F00F8000
03F00F8000
03E00F8000
03E01F8000
03E01F0000
03E01F0000
07E01F0000
07C01F0000
07C01F0000
07C03E0000
07C03E0000
07C03E0000
0F803E0000
0F803E0000
ENDCHAR
STARTCHAR 0024
ENCODING 36
SWIDTH 555 0
DWIDTH 37 0
BBX 32 59 3 -8
BITMAP
0003C000
0003C000
0003C000
000FE000
007FFE00
01FFFF80
07FFFFC0
0FFFFFE0
1FE3CFF0
3F83C3F8
3F03C1F8
7E03C0FC
7E03C0FC
7C03C07C
7C03C07C
7C03C07E
7C03C000
7C03C000
7C03C000
7E03C000
7E03C000
7F03C000
3FC3C000
3FF3C000
1FFFC000
0FFFF800
07FFFF00
01FFFFC0
003FFFF0
0007FFF8
0003FFFC
0003C7FC
0003C1FE
0003C0FE
0003C07F
0003C03F
0003C03F
F803C03F
F803C01F
F803C01F
F803C03F
FC03C03F
FC03C03E
FC03C07E
7E03C07E
7F03C0FC
3F83C3FC
3FF3CFF8
1FFFFFF0
0FFFFFE0
03FFFF80
00FFFE00
0007C000
0003C000
0003C000
0003C000
0003C000
0003C000
0003C000
ENDCHAR
STARTCHAR 0025
ENCODING 37
SWIDTH 885 0
DWIDTH 59 0
BBX 55 49 2 -1
BITMAP
0000000001E000
0000000003C000
00FE000007C000
03FF8000078000
0FFFC0000F8000
1FFFF0000F0000
3FFFF0001F0000
3F01F8001E0000
7E00FC003E0000
7C007C003C0000
F8007C007C0000
F8003E00780000
F8003E00F00000
F8003E00F00000
F8003E01E00000
F8003C03E00000
F8007C03C00000
7C007C07C00000
7E00F807800000
3F83F80F800000
3FFFF00F000000
1FFFE01F000000
07FFC01E000000
03FF003C000000
0038003C000000
00000078000000
000000F8003C00
000000F001FF80
000001F007FFE0
000001E00FFFF0
000003E01FFFF8
000003C03F83F8
000007C03F00FC
000007807E007E
00000F807C003E
00000F0078003E
00001E0078001E
00001E0078001E
00003C0078001E
00007C0078003E
000078007C003E
0000F8007C007E
0000F0003E007C
0001F0003F81FC
0001E0001FFFF8
0003E0000FFFF0
0003C00007FFE0
0007800003FFC0
00078000007E00
ENDCHAR
STARTCHAR 0026
ENCODING 38
SWIDTH 660 0
DWIDTH 44 0
BBX 39 49 3 -2
BITMAP
0003F80000
001FFE0000
003FFF8000
007FFFC000
00FFFFC000
01FC0FE000
01F807E000
03F003F000
03F001F000
03E001F000
03E001F000
03E001F000
03F003F000
03F003F000
01F807E000
01FC0FE000
00FC1FC000
00FE3F8000
007FFF0000
003FFE0000
001FFC0000
001FF00000
003FE00000
00FFF00000
01FFF80000
07F9FC03E0
0FF1FC03E0
1FE0FE03E0
3F807F03E0
3F003F87E0
7F001FC7C0
7E001FE7C0
7E000FEFC0
7C0007FF80
7C0003FF80
FC0001FF00
FC0001FF00
7C0000FF00
7E00007F80
7E0000FF80
7F0001FFC0
3F8007FFE0
3FC00FFFF0
1FF87FE7F8
1FFFFFC3F8
0FFFFF81FC
03FFFE00FE
01FFF80000
003FC00000
ENDCHAR
STARTCHAR 0027
ENCODING 39
SWIDTH 195 0
DWIDTH 13 0
BBX 6 16 3 31
BITMAP
FC
FC
FC
FC
FC
FC
FC
FC
FC
7C
7C
7C
78
78
38
38
ENDCHAR
STARTCHAR 0028
ENCODING 40
SWIDTH 330 0
DWIDTH 22 0
BBX 14 63 5 -14
BITMAP
003C
003C
0078
00F0
00F0
01E0
01E0
03C0
03C0
07C0
0780
0F80
0F80
1F00
1F00
1F00
3E00
3E00
3E00
3E00
7C00
7C00
7C00
7C00
FC00
FC00
FC00
F800
F800
F800
F800
F800
F800
F800
F800
F800
FC00
FC00
FC00
7C00
7C00
7C00
7C00
3E00
3E00
3E00
3E00
1F00
1F00
1F00
0F80
0F80
0780
07C0
03C0
03E0
01E0
01F0
00F0
00F8
0078
003C
001C
ENDCHAR
STARTCHAR 0029
ENCODING 41
SWIDTH 330 0
DWIDTH 22 0
BBX 14 63 3 -14
BITMAP
F000
F000
7800
3C00
3C00
1E00
1E00
1F00
0F00
0F80
0780
07C0
07C0
03E0
03E0
03E0
01F0
01F0
01F0
01F8
00F8
00F8
00F8
00F8
00FC
00FC
00FC
007C
007C
007C
007C
007C
007C
007C
007C
007C
00FC
00FC
00F8
00F8
00F8
00F8
00F8
01F0
01F0
01F0
01F0
03E0
03E0
03C0
07C0
07C0
0780
0F80
0F00
1F00
1E00
3E00
3C00
7800
7800
F000
E000
ENDCHAR
STARTCHAR 002A
ENCODING 42
SWIDTH 390 0
DWIDTH 26 0
BBX 20 19 3 30
BITMAP
00F000
00F000
00F000
00F000
00F000
60F060
F8F3E0
FFFFE0
FFFFF0
3FFFC0
07FC00
03F800
03FC00
07BE00
0F9F00
1F1F00
3E0F80
1E0700
040600
ENDCHAR
STARTCHAR 002B
ENCODING 43
SWIDTH 585 0
DWIDTH 39 0
BBX 33 32 3 -1
BITMAP
0003E00000
0003E00000
0003E00000
0003E00000
0003E00000
0003E00000
0003E00000
0003E00000
0003E00000
0003E00000
0003E00000
0003E00000
0003E00000
FFFFFFFF80
FFFFFFFF80
FFFFFFFF80
FFFFFFFF80
FFFFFFFF80
0003E00000
0003E00000
0003E00000
0003E00000
0003E00000
0003E00000
0003E00000
0003E00000
0003E00000
0003E00000
0003E00000
0003E00000
0003E00000
0003E00000
ENDCHAR
STARTCHAR 002C
ENCODING 44
SWIDTH 285 0
DWIDTH 19 0
BBX 7 17 6 -10
BITMAP
FE
FE
FE
FE
FE
FE
FE
0E
0E
0E
0E
0C
1C
1C
F8
F0
C0
ENDCHAR
STARTCHAR 002D
ENCODING 45
SWIDTH 330 0
DWIDTH 22 0
BBX 16 5 3 16
BITMAP
FFFF
FFFF
FFFF
FFFF
FFFF
ENDCHAR
STARTCHAR 002E
ENCODING 46
SWIDTH 285 0
DWIDTH 19 0
BBX 7 7 6 0
BITMAP
FE
FE
FE
FE
FE
FE
FE
ENDCHAR
STARTCHAR 002F
ENCODING 47
SWIDTH 285 0
DWIDTH 19 0
BBX 19 50 0 -1
BITMAP
0001E0
0001C0
0003C0
0003C0
000380
000380
000780
000780
000700
000F00
000F00
000E00
001E00
001E00
001C00
003C00
003C00
003800
007800
007800
007000
00F000
00F000
00E000
00E000
01E000
01E000
01C000
03C000
03C000
038000
078000
078000
070000
0F0000
0F0000
0E0000
1E0000
1E0000
1C0000
3C0000
3C0000
380000
380000
780000
780000
700000
F00000
F00000
E00000
ENDCHAR
STARTCHAR 0030
ENCODING 48
SWIDTH 555 0
DWIDTH 37 0
BBX 31 50 3 -2
BITMAP
000FE000
007FFC00
01FFFE00
03FFFF80
07FFFFC0
0FF87FC0
0FE00FE0
1FC007F0
1F8003F0
3F8003F8
3F0001F8
3F0001F8
7E0001FC
7E0000FC
7E0000FC
7E0000FC
FC0000FC
FC0000FC
FC00007E
FC00007E
FC00007E
FC00007E
FC00007E
FC00007E
FC00007E
FC00007E
FC00007E
FC00007E
FC00007E
FC00007E
FC00007E
FC00007E
FC0000FC
FC0000FC
7E0000FC
7E0000FC
7E0000FC
7E0001F8
3F0001F8
3F0001F8
3F0003F0
1F8003F0
1FC007F0
0FE00FE0
0FF03FC0
07FFFF80
03FFFF80
01FFFE00
007FFC00
001FE000
ENDCHAR
STARTCHAR 0031
ENCODING 49
SWIDTH 555 0
DWIDTH 37 0
BBX 16 48 7 0
BITMAP
000F
000F
001F
001F
001F
003F
007F
00FF
07FF
FFFF
FFFF
FFFF
FFFF
FFFF
003F
003F
003F
003F
003F
003F
003F
003F
003F
003F
003F
003F
003F
003F
003F
003F
003F
003F
003F
003F
003F
003F
003F
003F
003F
003F
003F
003F
003F
003F
003F
003F
003F
003F
ENDCHAR
STARTCHAR 0032
ENCODING 50
SWIDTH 555 0
DWIDTH 37 0
BBX 32 48 2 0
BITMAP
000FFC00
007FFF00
00FFFFC0
03FFFFE0
07FFFFF0
0FFC1FF8
0FF003FC
1FC001FE
1F8000FE
3F80007E
3F00007F
3F00003F
3F00003F
3F00003F
7E00003F
7E00003F
7E00003F
0000003F
0000007E
000000FE
000000FE
000001FC
000003F8
00000FF0
00003FF0
00007FC0
0001FF80
0007FF00
000FFC00
003FF000
007FE000
01FF8000
03FE0000
07F80000
0FF00000
0FE00000
1FC00000
1F800000
3F000000
3F000000
7E000000
7E000000
7FFFFFFF
7FFFFFFF
7FFFFFFF
FFFFFFFF
FFFFFFFF
FFFFFFFF
ENDCHAR
STARTCHAR 0033
ENCODING 51
SWIDTH 555 0
DWIDTH 37 0
BBX 32 50 2 -2
BITMAP
000FF800
007FFF00
01FFFF80
03FFFFC0
07FFFFE0
0FF81FF0
1FE007F8
1FC003F8
3F8001FC
3F0000FC
3F0000FC
3E0000FC
7E0000FC
7E0000FC
7E0000FC
7E0000FC
000000FC
000000FC
000001F8
000003F8
00000FF0
0007FFE0
0007FF80
0007FF00
0007FFC0
0007FFF0
00001FF8
000003FC
000001FC
000000FE
0000007E
0000007E
0000007F
0000003F
FC00003F
FC00003F
FC00003F
FC00003F
7E00007E
7E00007E
7F0000FE
7F0000FC
3F8001FC
3FC007F8
1FF81FF8
0FFFFFF0
07FFFFE0
03FFFF80
00FFFE00
001FF000
ENDCHAR
STARTCHAR 0034
ENCODING 52
SWIDTH 555 0
DWIDTH 37 0
BBX 33 48 2 0
BITMAP
000007C000
00000FC000
00001FC000
00001FC000
00003FC000
00007FC000
00007FC000
0000FFC000
0001FFC000
0003FFC000
0003EFC000
0007EFC000
000FCFC000
000F8FC000
001F0FC000
003F0FC000
007E0FC000
007C0FC000
00FC0FC000
01F80FC000
01F00FC000
03F00FC000
07E00FC000
07C00FC000
0FC00FC000
1F800FC000
3F000FC000
3E000FC000
7E000FC000
FC000FC000
F8000FC000
FFFFFFFF80
FFFFFFFF80
FFFFFFFF80
FFFFFFFF80
FFFFFFFF80
00000FC000
00000FC000
00000FC000
00000FC000
00000FC000
00000FC000
00000FC000
00000FC000
00000FC000
00000FC000
00000FC000
00000FC000
ENDCHAR
STARTCHAR 0035
ENCODING 53
SWIDTH 555 0
DWIDTH 37 0
BBX 31 49 3 -2
BITMAP
0FFFFFF8
0FFFFFF8
0FFFFFF8
0FFFFFF8
0FFFFFF8
0FFFFFF8
1F800000
1F800000
1F800000
1F800000
1F000000
1F000000
1F000000
3F000000
3F000000
3F000000
3F0FF000
3E7FFE00
3EFFFF80
3FFFFFC0
3FFFFFE0
7FF03FF0
7FC00FF8
7F0003F8
7E0001FC
7C0001FC
000000FC
000000FE
0000007E
0000007E
0000007E
0000007E
0000007E
0000007E
0000007E
0000007E
F800007E
FC0000FC
FC0000FC
FE0001FC
7E0001F8
7F0003F8
3FC00FF0
3FF03FE0
1FFFFFC0
0FFFFF80
03FFFF00
00FFFC00
001FE000
ENDCHAR
STARTCHAR 0036
ENCODING 54
SWIDTH 555 0
DWIDTH 37 0
BBX 31 50 3 -2
BITMAP
0007F800
003FFE00
007FFF80
01FFFFC0
03FFFFE0
07FC3FF0
0FF007F0
0FE003F8
1FC001F8
1F8001FC
3F0000FC
3F0000FC
3F0000FC
7E000000
7E000000
7E000000
7E000000
7C000000
FC000000
FC0FF800
FC3FFF00
FCFFFF80
FDFFFFE0
FFFFFFF0
FFF81FF0
FFE007F8
FF8003FC
FF0001FC
FF0000FC
FE0000FE
FE00007E
FC00007E
FC00007E
FC00007E
FC00007E
7C00007E
7C00007E
7E00007E
7E00007E
3E0000FC
3F0000FC
3F8001FC
1FC003F8
0FE007F0
0FFC3FF0
07FFFFE0
03FFFFC0
01FFFF00
007FFE00
000FF000
ENDCHAR
STARTCHAR 0037
ENCODING 55
SWIDTH 555 0
DWIDTH 37 0
BBX 32 47 3 0
BITMAP
FFFFFFFF
FFFFFFFF
FFFFFFFF
FFFFFFFF
FFFFFFFF
FFFFFFFE
0000007E
000000FC
000000F8
000001F0
000003F0
000003E0
000007C0
00000FC0
00000F80
00001F00
00001F00
00003E00
00007E00
00007C00
0000FC00
0000F800
0001F800
0001F000
0003F000
0003E000
0007E000
0007C000
000FC000
000F8000
001F8000
001F8000
001F0000
003F0000
003F0000
007E0000
007E0000
007E0000
007C0000
00FC0000
00FC0000
00FC0000
01F80000
01F80000
01F80000
01F80000
03F80000
ENDCHAR
STARTCHAR 0038
ENCODING 56
SWIDTH 555 0
DWIDTH 37 0
BBX 32 50 2 -2
BITMAP
000FF800
007FFF00
00FFFF80
03FFFFC0
07FFFFE0
0FFC1FF0
0FE007F8
1FC003F8
1F8001FC
1F8000FC
3F8000FC
3F0000FC
3F00007E
3F00007E
3F0000FC
3F0000FC
1F8000FC
1F8001FC
1FC001F8
0FE003F8
07F80FF0
03FFFFE0
01FFFF80
00FFFF80
01FFFFC0
07FFFFF0
0FF80FF8
1FC003FC
3F8001FC
3F0000FE
7F00007E
7E00007F
7E00003F
7E00003F
FE00003F
FC00003F
7E00003F
7E00003F
7E00003F
7E00007F
7F00007E
3F8000FE
3FC001FC
1FE003FC
0FFC1FF8
0FFFFFF0
03FFFFE0
01FFFFC0
007FFF00
000FF800
ENDCHAR
STARTCHAR 0039
ENCODING 57
SWIDTH 555 0
DWIDTH 37 0
BBX 31 50 3 -2
BITMAP
001FE000
00FFFC00
03FFFF00
07FFFF80
0FFFFFC0
1FF07FE0
3FC00FE0
3F8007F0
7F0003F0
7E0001F8
FE0001F8
FC0000FC
FC0000FC
FC0000FC
FC0000FC
FC00007C
FC00007E
FC0000FE
FC0000FE
FC0000FE
FC0000FE
FE0001FE
7E0003FE
7F0003FE
3FC00FFE
3FF03FFE
1FFFFF7E
0FFFFE7E
07FFFC7E
01FFF87E
007FE07E
0000007C
000000FC
000000FC
000000FC
000000FC
000000FC
7C0001F8
7E0001F8
7E0003F0
7E0003F0
3F0007F0
3F800FE0
3FC01FC0
1FF07FC0
0FFFFF80
07FFFF00
03FFFC00
01FFF800
003FC000
ENDCHAR
STARTCHAR 003A
ENCODING 58
SWIDTH 285 0
DWIDTH 19 0
BBX 7 35 7 0
BITMAP
FE
FE
FE
FE
FE
FE
FE
00
00
00
00
00
00
00
00
00
00
00
00
00
00
00
00
00
00
00
00
00
FE
FE
FE
FE
FE
FE
FE
ENDCHAR
STARTCHAR 003B
ENCODING 59
SWIDTH 285 0
DWIDTH 19 0
BBX 7 45 7 -10
BITMAP
FE
FE
FE
FE
FE
FE
FE
00
00
00
00
00
00
00
00
00
00
00
00
00
00
00
00
00
00
00
00
00
FE
FE
FE
FE
FE
FE
FE
0E
0E
0E
0E
0E
0E
1C
FC
F8
E0
ENDCHAR
STARTCHAR 003C
ENCODING 60
SWIDTH 585 0
DWIDTH 39 0
BBX 33 32 3 -1
BITMAP
0000000180
0000000780
0000003F80
000000FF80
000003FF80
00001FFF00
00007FF800
0003FFE000
000FFF0000
003FFC0000
01FFE00000
07FF800000
1FFC000000
FFF0000000
FFC0000000
FE00000000
FF00000000
FFC0000000
7FF8000000
1FFE000000
07FFC00000
00FFF00000
003FFC0000
000FFF8000
0001FFE000
00007FFC00
00000FFF00
000003FF80
000000FF80
0000001F80
0000000780
0000000180
ENDCHAR
STARTCHAR 003D
ENCODING 61
SWIDTH 585 0
DWIDTH 39 0
BBX 33 17 3 7
BITMAP
FFFFFFFF80
FFFFFFFF80
FFFFFFFF80
FFFFFFFF80
FFFFFFFF80
0000000000
0000000000
0000000000
0000000000
0000000000
0000000000
0000000000
FFFFFFFF80
FFFFFFFF80
FFFFFFFF80
FFFFFFFF80
FFFFFFFF80
ENDCHAR
STARTCHAR 003E
ENCODING 62
SWIDTH 585 0
DWIDTH 39 0
BBX 33 32 3 -1
BITMAP
C000000000
F000000000
FE00000000
FF80000000
FFE0000000
7FFC000000
0FFF000000
03FFC00000
007FF80000
001FFE0000
0007FFC000
0000FFF000
00003FFC00
000007FF80
000001FF80
0000007F80
0000007F80
000001FF80
000007FF00
00003FFC00
0000FFF000
0007FF8000
001FFE0000
00FFF00000
03FFC00000
1FFF000000
7FF8000000
FFE0000000
FF80000000
FC00000000
F000000000
C000000000
ENDCHAR
STARTCHAR 003F
ENCODING 63
SWIDTH 555 0
DWIDTH 37 0
BBX 29 50 5 0
BITMAP
003FE000
01FFFC00
03FFFF00
0FFFFF80
1FFFFFC0
1FF07FE0
3F801FE0
3F0007F0
7E0003F0
7E0003F8
7C0001F8
FC0001F8
FC0001F8
FC0001F8
FC0001F8
FC0001F8
000003F0
000003F0
000007F0
00000FE0
00001FE0
00003FC0
00007F80
0000FF00
0001FE00
0003FC00
0007F800
0007F000
000FE000
000FC000
001FC000
001F8000
001F8000
001F8000
001F8000
001F8000
001F8000
00000000
00000000
00000000
00000000
00000000
00000000
001F8000
001F8000
001F8000
001F8000
001F8000
001F8000
001F8000
ENDCHAR
STARTCHAR 0040
ENCODING 64
SWIDTH 1020 0
DWIDTH 68 0
BBX 61 59 2 -9
BITMAP
0000000FFE000000
000000FFFFE00000
000007FFFFF80000
00001FFFFFFF0000
00007FFFFFFF8000
0001FFF00FFFE000
0003FF0000FFF000
000FFC00001FF800
001FF0000007FC00
003FC0000003FE00
007F80000000FF00
00FE000000007F80
01FC000000003FC0
01F8000000001FC0
03F0000000000FE0
07F0000FF0000FE0
07E0003FFC3F07F0
0FC000FFFE3E03F0
0FC001FFFF3E03F0
1F8003FC1F7E03F8
1F0007F007FC01F8
3F000FE007FC01F8
3F001FC003FC01F8
3E001F8003FC01F8
7E003F0001F800F8
7E007F0001F800F8
7C007E0001F800F8
7C007E0003F000F8
7C00FC0003F001F8
FC00FC0003F001F8
FC00FC0003E001F8
FC00FC0007E001F0
FC00FC0007E003F0
FC00FC0007C003F0
FC00FC000FC007E0
FC00FC000FC007E0
7E00FC001F800FC0
7E00FC001F801FC0
7E00FE003F803F80
7F007F007F807F00
3F007F80FFC0FE00
3F003FE3FFFFFC00
3F801FFFEFFFF800
1FC00FFF87FFF000
1FC007FF03FFC000
0FE001FC00FE0000
07F0000000000000
07F8000000000000
03FC000000000000
01FF000000000000
00FF800000000000
007FE00000000000
003FFC0000300000
000FFFC007F00000
0007FFFFFFF80000
0001FFFFFFF80000
00007FFFFFF80000
00000FFFFFC00000
000000FFFC000000
ENDCHAR
STARTCHAR 0041
ENCODING 65
SWIDTH 660 0
DWIDTH 44 0
BBX 42 49 1 0
BITMAP
00007FC00000
00007FC00000
00007FC00000
0000FFE00000
0000FFE00000
0000FFE00000
0001FFF00000
0001FBF00000
0003FBF00000
0003F3F80000
0003F1F80000
0007F1F80000
0007E1FC0000
0007E0FC0000
000FE0FE0000
000FC0FE0000
000FC07E0000
001FC07F0000
001F807F0000
001F803F0000
003F003F8000
003F003F8000
003F001F8000
007E001FC000
007E001FC000
00FE000FC000
00FC000FE000
00FC000FE000
01FC0007E000
01FFFFFFF000
01FFFFFFF000
03FFFFFFF000
03FFFFFFF800
03FFFFFFF800
07F00001F800
07E00001FC00
07E00001FC00
0FE00000FE00
0FC00000FE00
1FC00000FE00
1FC000007F00
1F8000007F00
3F8000007F00
3F8000003F80
3F0000003F80
7F0000003F80
7F0000001FC0
7E0000001FC0
FE0000001FC0
ENDCHAR
STARTCHAR 0042
ENCODING 66
SWIDTH 660 0
DWIDTH 44 0
BBX 37 49 5 0
BITMAP
FFFFFF8000
FFFFFFF000
FFFFFFF800
FFFFFFFE00
FFFFFFFF00
FC001FFF00
FC0000FF80
FC00003FC0
FC00001FC0
FC00001FC0
FC00000FC0
FC00000FC0
FC00000FC0
FC00000FC0
FC00000FC0
FC00000FC0
FC00000FC0
FC00001F80
FC00003F80
FC00007F00
FC0001FE00
FFFFFFFC00
FFFFFFF800
FFFFFFF800
FFFFFFFE00
FFFFFFFF00
FC0003FFC0
FC00003FC0
FC00000FE0
FC000007F0
FC000007F0
FC000003F0
FC000003F0
FC000003F8
FC000003F8
FC000003F8
FC000003F0
FC000003F0
FC000003F0
FC000007F0
FC000007F0
FC00000FE0
FC00003FE0
FC0003FFC0
FFFFFFFF80
FFFFFFFF00
FFFFFFFE00
FFFFFFF800
FFFFFFE000
ENDCHAR
STARTCHAR 0043
ENCODING 67
SWIDTH 720 0
DWIDTH 48 0
BBX 42 52 3 -2
BITMAP
00007FF00000
0003FFFE0000
000FFFFF8000
003FFFFFE000
007FFFFFF000
00FFFBFFF800
01FF000FF800
03FC0003FC00
07F80001FE00
07F00000FE00
0FE000007F00
1FC000007F00
1FC000003F00
1F8000003F80
3F8000003F80
3F0000001F80
3F0000000000
7E0000000000
7E0000000000
7E0000000000
7E0000000000
7E0000000000
FE0000000000
FE0000000000
FC0000000000
FC0000000000
FC0000000000
FC0000000000
FE0000000000
FE0000000000
FE0000000000
7E0000000000
7E0000000FC0
7E0000000FC0
7F0000001FC0
7F0000001FC0
3F0000001F80
3F8000001F80
3F8000003F80
1FC000003F80
1FC000007F00
0FE000007F00
0FF00000FE00
07F80001FE00
03FE0003FC00
03FF800FF800
01FFFDFFF800
00FFFFFFF000
003FFFFFC000
001FFFFF8000
0007FFFE0000
00007FE00000
ENDCHAR
STARTCHAR 0044
ENCODING 68
SWIDTH 720 0
DWIDTH 48 0
BBX 38 49 6 0
BITMAP
FFFFFE0000
FFFFFFE000
FFFFFFF800
FFFFFFFC00
FFFFFFFE00
FC003FFF00
FC0001FF80
FC00007FC0
FC00001FE0
FC00000FE0
FC000007F0
FC000007F0
FC000003F8
FC000003F8
FC000001F8
FC000001FC
FC000001FC
FC000000FC
FC000000FC
FC000000FC
FC000000FC
FC000000FC
FC000000FC
FC000000FC
FC000000FC
FC000000FC
FC000000FC
FC000000FC
FC000000FC
FC000000FC
FC000000FC
FC000000FC
FC000001FC
FC000001F8
FC000001F8
FC000003F8
FC000003F8
FC000007F0
FC000007F0
FC00000FE0
FC00001FE0
FC00003FC0
FC0000FF80
FC003FFF00
FFFFFFFE00
FFFFFFFC00
FFFFFFF000
FFFFFFC000
FFFFFE0000
ENDCHAR
STARTCHAR 0045
ENCODING 69
SWIDTH 660 0
DWIDTH 44 0
BBX 35 49 6 0
BITMAP
FFFFFFFFC0
FFFFFFFFC0
FFFFFFFFC0
FFFFFFFFC0
FFFFFFFFC0
FC00000000
FC00000000
FC00000000
FC00000000
FC00000000
FC00000000
FC00000000
FC00000000
FC00000000
FC00000000
FC00000000
FC00000000
FC00000000
FC00000000
FC00000000
FC00000000
FFFFFFFF80
FFFFFFFF80
FFFFFFFF80
FFFFFFFF80
FFFFFFFF80
FC00000000
FC00000000
FC00000000
FC00000000
FC00000000
FC00000000
FC00000000
FC00000000
FC00000000
FC00000000
FC00000000
FC00000000
FC00000000
FC00000000
FC00000000
FC00000000
FC00000000
FC00000000
FFFFFFFFE0
FFFFFFFFE0
FFFFFFFFE0
FFFFFFFFE0
FFFFFFFFE0
ENDCHAR
STARTCHAR 0046
ENCODING 70
SWIDTH 615 0
DWIDTH 41 0
BBX 33 49 6 0
BITMAP
FFFFFFFF80
FFFFFFFF80
FFFFFFFF80
FFFFFFFF80
FFFFFFFF80
FC00000000
FC00000000
FC00000000
FC00000000
FC00000000
FC00000000
FC00000000
FC00000000
FC00000000
FC00000000
FC00000000
FC00000000
FC00000000
FC00000000
FC00000000
FC00000000
FFFFFFF800
FFFFFFF800
FFFFFFF800
FFFFFFF800
FFFFFFF800
FC00000000
FC00000000
FC00000000
FC00000000
FC00000000
FC00000000
FC00000000
FC00000000
FC00000000
FC00000000
FC00000000
FC00000000
FC00000000
FC00000000
FC00000000
FC00000000
FC00000000
FC00000000
FC00000000
FC00000000
FC00000000
FC00000000
FC00000000
ENDCHAR
STARTCHAR 0047
ENCODING 71
SWIDTH 780 0
DWIDTH 52 0
BBX 44 52 3 -2
BITMAP
00003FF80000
0003FFFF0000
000FFFFFE000
003FFFFFF000
007FFFFFF800
00FFFEFFFE00
01FF8007FE00
03FE0001FF00
07FC00007F80
07F000003FC0
0FE000001FC0
1FE000001FC0
1FC000000FE0
3F80000007E0
3F80000007E0
3F00000007F0
7F0000000000
7E0000000000
7E0000000000
7E0000000000
FE0000000000
FC0000000000
FC0000000000
FC0000000000
FC0000000000
FC0000FFFFF0
FC0000FFFFF0
FC0000FFFFF0
FC0000FFFFF0
FC0000FFFFF0
FC00000001F0
FE00000001F0
FE00000001F0
7E00000001F0
7E00000001F0
7F00000003F0
7F00000003F0
3F80000003F0
3F80000007F0
1FC0000007F0
1FC000000FF0
0FE000001FF0
0FF000003FF0
07FC00007FF0
03FE0000FFF0
01FF8007FDF0
00FFFEFFF9F0
007FFFFFE0F0
003FFFFFC0F0
000FFFFF00F0
0003FFFC00F0
00007FE00000
ENDCHAR
STARTCHAR 0048
ENCODING 72
SWIDTH 720 0
DWIDTH 48 0
BBX 37 49 6 0
BITMAP
FC000001F8
FC000001F8
FC000001F8
FC000001F8
FC000001F8
FC000001F8
FC000001F8
FC000001F8
FC000001F8
FC000001F8
FC000001F8
FC000001F8
FC000001F8
FC000001F8
FC000001F8
FC000001F8
FC000001F8
FC000001F8
FC000001F8
FC000001F8
FC000001F8
FFFFFFFFF8
FFFFFFFFF8
FFFFFFFFF8
FFFFFFFFF8
FFFFFFFFF8
FC000001F8
FC000001F8
FC000001F8
FC000001F8
FC000001F8
FC000001F8
FC000001F8
FC000001F8
FC000001F8
FC000001F8
FC000001F8
FC000001F8
FC000001F8
FC000001F8
FC000001F8
FC000001F8
FC000001F8
FC000001F8
FC000001F8
FC000001F8
FC000001F8
FC000001F8
FC000001F8
ENDCHAR
STARTCHAR 0049
ENCODING 73
SWIDTH 285 0
DWIDTH 19 0
BBX 6 49 7 0
BITMAP
FC
FC
FC
FC
FC
FC
FC
FC
FC
FC
FC
FC
FC
FC
FC
FC
FC
FC
FC
FC
FC
FC
FC
FC
FC
FC
FC
FC
FC
FC
FC
FC
FC
FC
FC
FC
FC
FC
FC
FC
FC
FC
FC
FC
FC
FC
FC
FC
FC
ENDCHAR
STARTCHAR 004A
ENCODING 74
SWIDTH 495 0
DWIDTH 33 0
BBX 27 51 1 -2
BITMAP
000007E0
000007E0
000007E0
000007E0
000007E0
000007E0
000007E0
000007E0
000007E0
000007E0
000007E0
000007E0
000007E0
000007E0
000007E0
000007E0
000007E0
000007E0
000007E0
000007E0
000007E0
000007E0
000007E0
000007E0
000007E0
000007E0
000007E0
000007E0
000007E0
000007E0
000007E0
000007E0
000007E0
000007E0
FC0007E0
FC0007E0
FC0007E0
FE0007E0
FE0007E0
FE0007E0
FE0007E0
7E000FE0
7F000FE0
7F001FC0
3F803FC0
3FF0FF80
1FFFFF00
0FFFFE00
07FFFC00
01FFF800
007FC000
ENDCHAR
STARTCHAR 004B
ENCODING 75
SWIDTH 660 0
DWIDTH 44 0
BBX 39 49 5 0
BITMAP
FC000003FC
FC000007F8
FC00000FF0
FC00001FE0
FC00003FC0
FC00007F80
FC0000FF00
FC0001FE00
FC0003FC00
FC0007F800
FC000FF000
FC001FE000
FC003FC000
FC007F8000
FC007F0000
FC00FE0000
FC01FC0000
FC03F80000
FC07F00000
FC0FE00000
FC1FE00000
FC3FF00000
FC7FF80000
FCFFF80000
FDFDFC0000
FFF9FE0000
FFF0FE0000
FFE07F0000
FFC03F8000
FF803F8000
FF001FC000
FE000FE000
FC000FF000
FC0007F000
FC0003F800
FC0003FC00
FC0001FC00
FC0000FE00
FC0000FF00
FC00007F00
FC00003F80
FC00003FC0
FC00001FC0
FC00000FE0
FC00000FF0
FC000007F0
FC000003F8
FC000003FC
FC000001FE
ENDCHAR
STARTCHAR 004C
ENCODING 76
SWIDTH 555 0
DWIDTH 37 0
BBX 31 49 5 0
BITMAP
FE000000
FE000000
FE000000
FE000000
FE000000
FE000000
FE000000
FE000000
FE000000
FE000000
FE000000
FE000000
FE000000
FE000000
FE000000
FE000000
FE000000
FE000000
FE000000
FE000000
FE000000
FE000000
FE000000
FE000000
FE000000
FE000000
FE000000
FE000000
FE000000
FE000000
FE000000
FE000000
FE000000
FE000000
FE000000
FE000000
FE000000
FE000000
FE000000
FE000000
FE000000
FE000000
FE000000
FE000000
FFFFFFFE
FFFFFFFE
FFFFFFFE
FFFFFFFE
FFFFFFFE
ENDCHAR
STARTCHAR 004D
ENCODING 77
SWIDTH 840 0
DWIDTH 56 0
BBX 46 49 5 0
BITMAP
FF80000007FC
FF80000007FC
FF8000000FFC
FFC000000FFC
FFC000000FFC
FFC000001FFC
FFE000001FFC
FFE000001FFC
FFE000003FFC
FFF000003EFC
FDF000003EFC
FDF000007EFC
FDF800007CFC
FCF800007CFC
FCFC0000FCFC
FCFC0000F8FC
FC7C0000F8FC
FC7E0001F8FC
FC7E0001F0FC
FC3E0001F0FC
FC3F0003F0FC
FC3F0003E0FC
FC1F0003E0FC
FC1F8007E0FC
FC1F8007C0FC
FC0F8007C0FC
FC0FC00FC0FC
FC0FC00F80FC
FC07C00F80FC
FC07E01F80FC
FC07E01F00FC
FC03E01F00FC
FC03F03F00FC
FC03F03E00FC
FC01F03E00FC
FC01F87E00FC
FC01F87C00FC
FC00F87C00FC
FC00FCFC00FC
FC00FCF800FC
FC007CF800FC
FC007FF800FC
FC007FF000FC
FC003FF000FC
FC003FF000FC
FC003FE000FC
FC001FE000FC
FC001FE000FC
FC001FC000FC
ENDCHAR
STARTCHAR 004E
ENCODING 78
SWIDTH 720 0
DWIDTH 48 0
BBX 38 49 5 0
BITMAP
FE000000FC
FF000000FC
FF000000FC
FF800000FC
FFC00000FC
FFC00000FC
FFE00000FC
FFF00000FC
FFF00000FC
FFF80000FC
FDF80000FC
FDFC0000FC
FCFE0000FC
FC7E0000FC
FC7F0000FC
FC3F8000FC
FC3F8000FC
FC1FC000FC
FC0FE000FC
FC0FE000FC
FC07F000FC
FC03F000FC
FC03F800FC
FC01FC00FC
FC00FC00FC
FC00FE00FC
FC007F00FC
FC007F00FC
FC003F80FC
FC001FC0FC
FC001FC0FC
FC000FE0FC
FC0007E0FC
FC0007F0FC
FC0003F8FC
FC0001F8FC
FC0001FCFC
FC0000FEFC
FC0000FEFC
FC00007FFC
FC00003FFC
FC00003FFC
FC00001FFC
FC00000FFC
FC00000FFC
FC000007FC
FC000007FC
FC000003FC
FC000001FC
ENDCHAR
STARTCHAR 004F
ENCODING 79
SWIDTH 780 0
DWIDTH 52 0
BBX 46 52 3 -2
BITMAP
00003FF00000
0003FFFF0000
000FFFFFC000
003FFFFFF000
007FFFFFF800
00FFFFFFFC00
01FF8007FE00
03FE0001FF00
07F800007F80
0FF000003FC0
0FE000001FE0
1FC000000FE0
3F80000007F0
3F80000007F0
3F00000003F8
7F00000003F8
7E00000001F8
7E00000001F8
FE00000001FC
FC00000000FC
FC00000000FC
FC00000000FC
FC00000000FC
FC00000000FC
FC00000000FC
FC00000000FC
FC00000000FC
FC00000000FC
FC00000000FC
FC00000000FC
FC00000000FC
FC00000000FC
FC00000000FC
FE00000001FC
7E00000001F8
7E00000001F8
7F00000003F8
3F00000003F0
3F80000007F0
3F80000007F0
1FC000000FE0
0FE000001FC0
0FF000003FC0
07F800007F80
03FE0001FF00
01FF8007FE00
00FFFFFFFC00
007FFFFFF800
003FFFFFF000
000FFFFFC000
0003FFFF0000
00003FF00000
ENDCHAR
STARTCHAR 0050
ENCODING 80
SWIDTH 660 0
DWIDTH 44 0
BBX 35 49 6 0
BITMAP
FFFFFF8000
FFFFFFF000
FFFFFFFC00
FFFFFFFE00
FFFFFFFF00
FC000FFF80
FC0000FF80
FC00003FC0
FC00001FC0
FC00000FE0
FC00000FE0
FC00000FE0
FC000007E0
FC000007E0
FC000007E0
FC000007E0
FC00000FE0
FC00000FE0
FC00000FE0
FC00001FC0
FC00003FC0
FC0000FF80
FC000FFF80
FFFFFFFF00
FFFFFFFE00
FFFFFFFC00
FFFFFFF000
FFFFFFC000
FC00000000
FC00000000
FC00000000
FC00000000
FC00000000
FC00000000
FC00000000
FC00000000
FC00000000
FC00000000
FC00000000
FC00000000
FC00000000
FC00000000
FC00000000
FC00000000
FC00000000
FC00000000
FC00000000
FC00000000
FC00000000
ENDCHAR
STARTCHAR 0051
ENCODING 81
SWIDTH 780 0
DWIDTH 52 0
BBX 46 54 3 -4
BITMAP
00003FF00000
0003FFFF0000
000FFFFFC000
003FFFFFF000
007FFFFFF800
00FFFFFFFC00
01FF8007FE00
03FE0001FF00
07F800007F80
0FF000003FC0
0FE000001FE0
1FC000000FE0
3F80000007F0
3F80000007F0
3F00000003F8
7F00000003F8
7E00000001F8
7E00000001FC
FE00000001FC
FC00000000FC
FC00000000FC
FC00000000FC
FC00000000FC
FC00000000FC
FC00000000FC
FC00000000FC
FC00000000FC
FC00000000FC
FC00000000FC
FC00000000FC
FC00000000FC
FC00000000FC
FC00000000FC
FE00000001FC
7E00000001F8
7E00000001F8
7F00000003F8
3F00000C03F0
3F80001E07F0
3F80001F87F0
1FC0003FCFE0
0FE0001FFFC0
0FF0000FFFC0
07F80003FF80
03FE0001FF00
01FF8007FF00
00FFFDFFFF80
007FFFFFFFC0
003FFFFFFFE0
000FFFFFC7F8
0003FFFF03FC
00003FF001F8
0000000000F0
000000000020
ENDCHAR
STARTCHAR 0052
ENCODING 82
SWIDTH 720 0
DWIDTH 48 0
BBX 39 49 6 0
BITMAP
FFFFFFF000
FFFFFFFE00
FFFFFFFF80
FFFFFFFFC0
FFFFFFFFE0
FC0003FFE0
FC00001FF0
FC000007F0
FC000007F8
FC000003F8
FC000003F8
FC000001F8
FC000001F8
FC000001F8
FC000001F8
FC000001F8
FC000001F8
FC000003F8
FC000003F8
FC000003F0
FC000007E0
FC00001FE0
FC0003FFC0
FFFFFFFF00
FFFFFFFE00
FFFFFFFE00
FFFFFFFF80
FFFFFFFFC0
FC00003FE0
FC00000FE0
FC000007F0
FC000007F0
FC000003F0
FC000003F0
FC000003F0
FC000003F0
FC000003F0
FC000003F0
FC000003F0
FC000003F0
FC000003F0
FC000003F8
FC000003F8
FC000003F8
FC000001F8
FC000001F8
FC000001FC
FC000001FE
FC000000FE
ENDCHAR
STARTCHAR 0053
ENCODING 83
SWIDTH 660 0
DWIDTH 44 0
BBX 38 52 3 -2
BITMAP
0003FF0000
003FFFF000
00FFFFFC00
01FFFFFE00
03FFFFFF80
07FF03FFC0
0FF0003FC0
1FE0001FE0
1FC0000FE0
1F800007F0
3F800003F0
3F000003F8
3F000001F8
3F000001F8
3F000001F8
3F00000000
3F00000000
3F80000000
3FC0000000
1FF0000000
1FFC000000
0FFFC00000
0FFFF80000
03FFFF8000
01FFFFF800
007FFFFE00
000FFFFF80
0000FFFFC0
00000FFFE0
000001FFF0
0000003FF8
0000000FF8
00000003FC
00000001FC
00000000FC
FC000000FC
FC000000FC
FC000000FC
7E000000FC
7E000000FC
7E000000FC
7F000001FC
3F800001F8
3FC00003F8
1FE00007F0
1FF8001FF0
0FFFE7FFE0
07FFFFFFC0
01FFFFFF80
00FFFFFE00
003FFFF800
0003FF8000
ENDCHAR
STARTCHAR 0054
ENCODING 84
SWIDTH 615 0
DWIDTH 41 0
BBX 39 49 1 0
BITMAP
FFFFFFFFFE
FFFFFFFFFE
FFFFFFFFFE
FFFFFFFFFE
FFFFFFFFFE
0000FE0000
0000FE0000
0000FE0000
0000FE0000
0000FE0000
0000FE0000
0000FE0000
0000FE0000
0000FE0000
0000FE0000
0000FE0000
0000FE0000
0000FE0000
0000FE0000
0000FE0000
0000FE0000
0000FE0000
0000FE0000
0000FE0000
0000FE0000
0000FE0000
0000FE0000
0000FE0000
0000FE0000
0000FE0000
0000FE0000
0000FE0000
0000FE0000
0000FE0000
0000FE0000
0000FE0000
0000FE0000
0000FE0000
0000FE0000
0000FE0000
0000FE0000
0000FE0000
0000FE0000
0000FE0000
0000FE0000
0000FE0000
0000FE0000
0000FE0000
0000FE0000
ENDCHAR
STARTCHAR 0055
ENCODING 85
SWIDTH 720 0
DWIDTH 48 0
BBX 37 51 6 -2
BITMAP
FC000001F8
FC000001F8
FC000001F8
FC000001F8
FC000001F8
FC000001F8
FC000001F8
FC000001F8
FC000001F8
FC000001F8
FC000001F8
FC000001F8
FC000001F8
FC000001F8
FC000001F8
FC000001F8
FC000001F8
FC000001F8
FC000001F8
FC000001F8
FC000001F8
FC000001F8
FC000001F8
FC000001F8
FC000001F8
FC000001F8
FC000001F8
FC000001F8
FC000001F8
FC000001F8
FC000001F8
FC000001F8
FC000001F8
FC000001F8
FC000001F8
FC000001F8
FC000001F8
FC000001F8
FC000003F8
FE000003F0
7E000007F0
7F000007F0
7F80000FE0
3FC0003FE0
1FF000FFC0
1FFFDFFF80
0FFFFFFF00
03FFFFFE00
01FFFFF800
007FFFE000
0007FE0000
ENDCHAR
STARTCHAR 0056
ENCODING 86
SWIDTH 660 0
DWIDTH 44 0
BBX 41 49 2 0
BITMAP
FE0000003F80
FE0000003F00
7F0000003F00
7F0000007F00
3F0000007E00
3F8000007E00
3F800000FE00
1F800000FC00
1FC00000FC00
1FC00001FC00
0FC00001F800
0FE00001F800
0FE00003F800
07E00003F000
07F00003F000
07F00007F000
03F00007E000
03F80007E000
01F8000FE000
01F8000FC000
01FC000FC000
00FC001FC000
00FC001F8000
00FE001F8000
007E003F8000
007E003F0000
007F003F0000
003F007F0000
003F007E0000
003F807E0000
001F80FC0000
001F80FC0000
000FC0FC0000
000FC0F80000
000FE1F80000
0007E1F80000
0007E1F00000
0007F3F00000
0003F3F00000
0003F3E00000
0003FFE00000
0001FFE00000
0001FFC00000
0001FFC00000
0000FFC00000
0000FF800000
00007F800000
00007F800000
00007F000000
ENDCHAR
STARTCHAR 0057
ENCODING 87
SWIDTH 945 0
DWIDTH 63 0
BBX 60 49 2 0
BITMAP
FE00003F800007F0
FE00003F800007F0
FE00003FC0000FE0
FE00007FC0000FE0
7E00007FC0000FE0
7F00007FE0000FE0
7F00007FE0000FC0
7F0000FFE0001FC0
3F0000FFE0001FC0
3F8000FBF0001FC0
3F8001FBF0001F80
3F8001FBF0003F80
1F8001F9F0003F80
1F8001F1F8003F80
1FC003F1F8003F00
1FC003F1F8003F00
0FC003F0FC007F00
0FC003E0FC007F00
0FE007E0FC007E00
0FE007E07C007E00
07E007C07E00FE00
07E00FC07E00FE00
07F00FC07E00FC00
07F00FC03F00FC00
03F00F803F01FC00
03F01F803F01FC00
03F01F801F01F800
03F81F801F81F800
01F81F001F81F800
01F83F001F83F000
01F83F000F83F000
01FC3E000FC3F000
00FC3E000FC3F000
00FC7E000FC7E000
00FC7E0007E7E000
00FE7C0007E7E000
007EFC0007E7E000
007EFC0003E7C000
007EFC0003FFC000
007EF80003FFC000
003FF80003FFC000
003FF80001FF8000
003FF00001FF8000
001FF00001FF8000
001FF00000FF8000
001FF00000FF0000
001FE00000FF0000
000FE00000FF0000
000FE000007F0000
ENDCHAR
STARTCHAR 0058
ENCODING 88
SWIDTH 660 0
DWIDTH 44 0
BBX 41 49 2 0
BITMAP
7F0000007F00
3F800000FE00
3FC00001FE00
1FC00001FC00
0FE00003F800
0FF00007F800
07F00007F000
03F8000FE000
03FC000FE000
01FC001FC000
00FE003F8000
00FF003F8000
007F007F0000
003F80FE0000
003F80FC0000
001FC1FC0000
000FE3F80000
000FE3F00000
0007F7F00000
0003FFE00000
0003FFC00000
0001FFC00000
0000FF800000
0000FF000000
0000FF800000
0000FF800000
0001FFC00000
0003FFE00000
0007FFE00000
0007F7F00000
000FE3F80000
001FC3F80000
001FC1FC0000
003F80FE0000
007F00FE0000
007F007F0000
00FE007F8000
01FC003F8000
01FC001FC000
03F8001FE000
07F8000FE000
07F00007F000
0FE00007F800
1FE00003FC00
1FC00001FC00
3F800001FE00
7F800000FF00
FF0000007F00
FE0000007F80
ENDCHAR
STARTCHAR 0059
ENCODING 89
SWIDTH 660 0
DWIDTH 44 0
BBX 43 49 1 0
BITMAP
FF0000001FE0
7F0000001FC0
7F8000003FC0
3FC000003F80
1FC000007F00
1FE00000FF00
0FE00000FE00
07F00001FC00
07F80001FC00
03F80003F800
03FC0003F800
01FC0007F000
00FE000FE000
00FF000FE000
007F001FC000
003F801FC000
003F803F8000
001FC07F0000
001FE07F0000
000FE0FE0000
0007F0FC0000
0007F1FC0000
0003F9F80000
0001FFF80000
0001FFF00000
0000FFE00000
00007FE00000
00007FC00000
00003FC00000
00003F800000
00001F800000
00001F800000
00001F800000
00001F800000
00001F800000
00001F800000
00001F800000
00001F800000
00001F800000
00001F800000
00001F800000
00001F800000
00001F800000
00001F800000
00001F800000
00001F800000
00001F800000
00001F800000
00001F800000
ENDCHAR
STARTCHAR 005A
ENCODING 90
SWIDTH 615 0
DWIDTH 41 0
BBX 37 49 2 0
BITMAP
3FFFFFFFF8
3FFFFFFFF8
3FFFFFFFF8
3FFFFFFFF8
3FFFFFFFF8
00000007F8
0000000FF0
0000001FE0
0000001FC0
0000003FC0
0000007F80
000000FF00
000000FE00
000001FE00
000003FC00
000007F800
000007F000
00000FF000
00001FE000
00003FC000
00003F8000
00007F8000
0000FF0000
0001FE0000
0003FC0000
0003F80000
0007F80000
000FF00000
001FE00000
001FC00000
003FC00000
007F800000
00FF000000
00FE000000
01FE000000
03FC000000
07F8000000
0FF0000000
0FF0000000
1FE0000000
3FC0000000
7F80000000
7F00000000
FF00000000
FFFFFFFFF8
FFFFFFFFF8
FFFFFFFFF8
FFFFFFFFF8
FFFFFFFFF8
ENDCHAR
STARTCHAR 005B
ENCODING 91
SWIDTH 285 0
DWIDTH 19 0
BBX 13 63 4 -14
BITMAP
FFF8
FFF8
FFF8
FFF8
FFF8
FC00
FC00
FC00
FC00
FC00
FC00
FC00
FC00
FC00
FC00
FC00
FC00
FC00
FC00
FC00
FC00
FC00
FC00
FC00
FC00
FC00
FC00
FC00
FC00
FC00
FC00
FC00
FC00
FC00
FC00
FC00
FC00
FC00
FC00
FC00
FC00
FC00
FC00
FC00
FC00
FC00
FC00
FC00
FC00
FC00
FC00
FC00
FC00
FC00
FC00
FC00
FC00
FC00
FFF8
FFF8
FFF8
FFF8
FFF8
ENDCHAR
STARTCHAR 005C
ENCODING 92
SWIDTH 285 0
DWIDTH 19 0
BBX 19 50 0 -1
BITMAP
E00000
F00000
F00000
700000
780000
780000
780000
3C0000
3C0000
3C0000
1C0000
1E0000
1E0000
0E0000
0F0000
0F0000
070000
078000
078000
038000
03C000
03C000
01C000
01E000
01E000
00E000
00F000
00F000
00F000
007000
007800
007800
003800
003C00
003C00
001C00
001E00
001E00
000E00
000F00
000F00
000700
000780
000780
000380
0003C0
0003C0
0003C0
0001C0
0001E0
ENDCHAR
STARTCHAR 005D
ENCODING 93
SWIDTH 285 0
DWIDTH 19 0
BBX 12 63 2 -14
BITMAP
FFF0
FFF0
FFF0
FFF0
FFF0
03F0
03F0
03F0
03F0
03F0
03F0
03F0
03F0
03F0
03F0
03F0
03F0
03F0
03F0
03F0
03F0
03F0
03F0
03F0
03F0
03F0
03F0
03F0
03F0
03F0
03F0
03F0
03F0
03F0
03F0
03F0
03F0
03F0
03F0
03F0
03F0
03F0
03F0
03F0
03F0
03F0
03F0
03F0
03F0
03F0
03F0
03F0
03F0
03F0
03F0
03F0
03F0
03F0
FFF0
FFF0
FFF0
FFF0
FFF0
ENDCHAR
STARTCHAR 005E
ENCODING 94
SWIDTH 465 0
DWIDTH 31 0
BBX 25 25 3 22
BITMAP
003E0000
007F0000
007F0000
007F8000
00FF8000
00F78000
01F7C000
01F3C000
01E3E000
03E3E000
03C1E000
07C1F000
07C0F000
0780F800
0F80F800
0F007800
1F007C00
1F003C00
1E003E00
3E003E00
3C001E00
7C001F00
7C000F00
78000F80
F8000F80
ENDCHAR
STARTCHAR 005F
ENCODING 95
SWIDTH 555 0
DWIDTH 37 0
BBX 40 3 -1 -12
BITMAP
FFFFFFFFFF
FFFFFFFFFF
FFFFFFFFFF
ENDCHAR
STARTCHAR 0060
ENCODING 96
SWIDTH 330 0
DWIDTH 22 0
BBX 13 10 2 40
BITMAP
FE00
7F00
3F80
1F80
0FC0
07E0
03E0
01F0
00F8
0078
ENDCHAR
STARTCHAR 0061
ENCODING 97
SWIDTH 555 0
DWIDTH 37 0
BBX 33 38 3 -2
BITMAP
001FF00000
00FFFF0000
03FFFF8000
0FFFFFC000
1FFFFFE000
1FF03FF000
3F8007F000
3F0003F000
3F0001F000
3E0001F000
7E0001F000
000001F000
000001F000
000001F000
000003F000
00001FF000
0007FFF000
01FFFFF000
07FFFFF000
1FFFFDF000
3FFF81F000
3FE001F000
7F0001F000
7E0001F000
FC0001F000
FC0001F000
FC0001F000
FC0001F000
FC0003F000
FC0007F000
FC000FF000
FE001FF800
7F807FF800
7FFFFDFF80
3FFFF9FF80
1FFFF0FF80
07FFC07F80
01FE003F00
ENDCHAR
STARTCHAR 0062
ENCODING 98
SWIDTH 555 0
DWIDTH 37 0
BBX 31 51 4 -2
BITMAP
F8000000
F8000000
F8000000
F8000000
F8000000
F8000000
F8000000
F8000000
F8000000
F8000000
F8000000
F8000000
F8000000
F80FF000
F83FFE00
F8FFFF00
F9FFFFC0
FBFFFFE0
FFF87FE0
FFC00FF0
FF8007F8
FF0003F8
FE0001F8
FE0001FC
FC0000FC
FC0000FC
FC0000FE
FC00007E
F800007E
F800007E
F800007E
F800007E
F800007E
F800007E
F800007E
F800007E
FC00007E
FC0000FC
FC0000FC
FC0000FC
FE0001FC
FE0001F8
FF0003F8
FF8007F0
FFC00FF0
FFF87FE0
FBFFFFC0
F9FFFF80
F8FFFF00
007FFC00
000FE000
ENDCHAR
STARTCHAR 0063
ENCODING 99
SWIDTH 495 0
DWIDTH 33 0
BBX 30 38 2 -2
BITMAP
000FF000
007FFE00
01FFFF00
03FFFFC0
07FFFFE0
0FF83FE0
1FE00FF0
1FC003F0
3F8003F8
3F0001F8
7F0001F8
7E0000F8
7E0000F8
7E000000
FC000000
FC000000
FC000000
FC000000
FC000000
FC000000
FC000000
FC000000
FC000000
FC000000
7C0000FC
7E0000FC
7E0000FC
7F0001F8
3F0001F8
3F8003F8
1FC003F0
1FE007F0
0FF83FE0
07FFFFC0
03FFFF80
01FFFF00
007FFE00
001FF000
ENDCHAR
STARTCHAR 0064
ENCODING 100
SWIDTH 555 0
DWIDTH 37 0
BBX 31 51 2 -2
BITMAP
0000007E
0000007E
0000007E
0000007E
0000007E
0000007E
0000007E
0000007E
0000007E
0000007E
0000007E
0000007E
0000007E
001FE07E
00FFF87E
01FFFE7E
07FFFF7E
0FFFFFFE
0FF83FFE
1FE00FFE
3FC003FE
3F8003FE
7F0001FE
7E0000FE
7E0000FE
FE00007E
FC00007E
FC00007E
FC00007E
FC00007E
FC00007E
FC00007E
FC00007E
FC00007E
FC00007E
FC00007E
FC00007E
FC00007E
FE00007E
7E0000FE
7E0000FE
7F0001FE
3F8003FE
3FC003FE
1FE00FFE
0FF83FFE
0FFFFFBE
07FFFF3E
01FFFE3E
00FFF800
001FE000
ENDCHAR
STARTCHAR 0065
ENCODING 101
SWIDTH 555 0
DWIDTH 37 0
BBX 31 38 3 -2
BITMAP
000FF000
007FFE00
01FFFF00
03FFFFC0
07FFFFE0
0FF83FF0
1FE007F0
3F8003F8
3F0001FC
7F0001FC
7E0000FC
7E0000FE
FC00007E
FC00007E
FC00007E
FC00007E
FFFFFFFE
FFFFFFFE
FFFFFFFE
FFFFFFFE
FFFFFFFE
FC000000
FC000000
FC000000
FC000000
FC000000
7C00007C
7E0000FC
7F0000FC
3F0001F8
3F8003F8
1FE007F0
1FF83FF0
0FFFFFE0
07FFFFC0
01FFFF00
00FFFE00
001FF000
ENDCHAR
STARTCHAR 0066
ENCODING 102
SWIDTH 285 0
DWIDTH 19 0
BBX 16 49 1 0
BITMAP
003F
00FF
01FF
03FF
03FF
07F0
07E0
07C0
07C0
07C0
07C0
07C0
07C0
07C0
FFFF
FFFF
FFFF
FFFF
FFFF
07C0
07C0
07C0
07C0
07C0
07C0
07C0
07C0
07C0
07C0
07C0
07C0
07C0
07C0
07C0
07C0
07C0
07C0
07C0
07C0
07C0
07C0
07C0
07C0
07C0
07C0
07C0
07C0
07C0
07C0
ENDCHAR
STARTCHAR 0067
ENCODING 103
SWIDTH 555 0
DWIDTH 37 0
BBX 30 51 2 -15
BITMAP
001FC000
007FF07C
01FFFC7C
03FFFE7C
07FFFF7C
0FF83FFC
0FE00FFC
1FC007FC
1F8003FC
3F0003FC
3F0001FC
7E0001FC
7E0000FC
7E0000FC
7C0000FC
7C0000FC
FC0000FC
FC0000FC
FC0000FC
FC0000FC
FC0000FC
FC0000FC
FC0000FC
7C0000FC
7E0000FC
7E0000FC
7E0001FC
3F0001FC
3F0003FC
3F8003FC
1FC007FC
1FE00FFC
0FF83FFC
07FFFEFC
03FFFCFC
01FFF8FC
007FF0FC
001FC0FC
000000FC
000000F8
7E0000F8
3E0001F8
3F0001F8
3F0003F0
1F8007F0
1FC00FE0
0FFFFFC0
07FFFF80
03FFFF00
00FFFC00
003FE000
ENDCHAR
STARTCHAR 0068
ENCODING 104
SWIDTH 555 0
DWIDTH 37 0
BBX 27 49 5 0
BITMAP
F8000000
F8000000
F8000000
F8000000
F8000000
F8000000
F8000000
F8000000
F8000000
F8000000
F8000000
F8000000
F8000000
F80FF000
F83FFE00
F8FFFF00
F9FFFF80
FBFFFFC0
FFE03FE0
FF800FE0
FF0007E0
FE0007E0
FE0003E0
FC0003E0
FC0003E0
FC0003E0
FC0003E0
F80003E0
F80003E0
F80003E0
F80003E0
F80003E0
F80003E0
F80003E0
F80003E0
F80003E0
F80003E0
F80003E0
F80003E0
F80003E0
F80003E0
F80003E0
F80003E0
F80003E0
F80003E0
F80003E0
F80003E0
F80003E0
F80003E0
ENDCHAR
STARTCHAR 0069
ENCODING 105
SWIDTH 225 0
DWIDTH 15 0
BBX 6 49 4 0
BITMAP
FC
FC
FC
FC
FC
FC
FC
00
00
00
00
00
00
00
FC
FC
FC
FC
FC
FC
FC
FC
FC
FC
FC
FC
FC
FC
FC
FC
FC
FC
FC
FC
FC
FC
FC
FC
FC
FC
FC
FC
FC
FC
FC
FC
FC
FC
FC
ENDCHAR
STARTCHAR 006A
ENCODING 106
SWIDTH 225 0
DWIDTH 15 0
BBX 11 64 -1 -15
BITMAP
03E0
03E0
03E0
03E0
03E0
03E0
03E0
0000
0000
0000
0000
0000
0000
0000
03E0
03E0
03E0
03E0
03E0
03E0
03E0
03E0
03E0
03E0
03E0
03E0
03E0
03E0
03E0
03E0
03E0
03E0
03E0
03E0
03E0
03E0
03E0
03E0
03E0
03E0
03E0
03E0
03E0
03E0
03E0
03E0
03E0
03E0
03E0
03E0
03E0
03E0
03E0
03E0
03E0
03E0
07E0
07E0
0FE0
FFE0
FFC0
FF80
FF00
F800
ENDCHAR
STARTCHAR 006B
ENCODING 107
SWIDTH 495 0
DWIDTH 33 0
BBX 29 49 4 0
BITMAP
F8000000
F8000000
F8000000
F8000000
F8000000
F8000000
F8000000
F8000000
F8000000
F8000000
F8000000
F8000000
F8000000
F8000000
F8000FE0
F8001FC0
F8003F80
F8007F00
F800FE00
F801FC00
F803F800
F807F000
F80FE000
F81FC000
F83F8000
F87F0000
F8FE0000
F9FF0000
FBFF8000
FFFF8000
FFDFC000
FF8FE000
FF0FE000
FE07F000
FC03F000
F803F800
F801FC00
F801FC00
F800FE00
F8007F00
F8007F00
F8003F80
F8001F80
F8001FC0
F8000FE0
F8000FE0
F80007F0
F80003F8
F80003F8
ENDCHAR
STARTCHAR 006C
ENCODING 108
SWIDTH 225 0
DWIDTH 15 0
BBX 5 49 5 0
BITMAP
F8
F8
F8
F8
F8
F8
F8
F8
F8
F8
F8
F8
F8
F8
F8
F8
F8
F8
F8
F8
F8
F8
F8
F8
F8
F8
F8
F8
F8
F8
F8
F8
F8
F8
F8
F8
F8
F8
F8
F8
F8
F8
F8
F8
F8
F8
F8
F8
F8
ENDCHAR
STARTCHAR 006D
ENCODING 109
SWIDTH 840 0
DWIDTH 56 0
BBX 46 36 5 0
BITMAP
000FE000FF00
F87FFC07FFC0
F8FFFE0FFFE0
F9FFFF1FFFF0
FBFFFF3FFFF8
FFC07FFE07F8
FF803FF803F8
FF001FF001FC
FE001FE000FC
FC000FE000FC
FC000FC000FC
FC000FC000FC
F8000FC000FC
F8000FC000FC
F8000FC000FC
F8000FC000FC
F8000FC000FC
F8000FC000FC
F8000FC000FC
F8000FC000FC
F8000FC000FC
F8000FC000FC
F8000FC000FC
F8000FC000FC
F8000FC000FC
F8000FC000FC
F8000FC000FC
F8000FC000FC
F8000FC000FC
F8000FC000FC
F8000FC000FC
F8000FC000FC
F8000FC000FC
F8000FC000FC
F8000FC000FC
F8000FC000FC
ENDCHAR
STARTCHAR 006E
ENCODING 110
SWIDTH 555 0
DWIDTH 37 0
BBX 27 36 5 0
BITMAP
0007F000
F83FFE00
F87FFF00
F9FFFF80
F9FFFFC0
FBE03FE0
FFC00FE0
FF0007E0
FF0007E0
FE0003E0
FC0003E0
FC0003E0
FC0003E0
FC0003E0
F80003E0
F80003E0
F80003E0
F80003E0
F80003E0
F80003E0
F80003E0
F80003E0
F80003E0
F80003E0
F80003E0
F80003E0
F80003E0
F80003E0
F80003E0
F80003E0
F80003E0
F80003E0
F80003E0
F80003E0
F80003E0
F80003E0
ENDCHAR
STARTCHAR 006F
ENCODING 111
SWIDTH 555 0
DWIDTH 37 0
BBX 32 38 2 -2
BITMAP
000FF800
007FFF00
01FFFF80
03FFFFE0
07FFFFF0
0FFC1FF0
0FE007F8
1FC003FC
3F8001FC
3F0000FC
3F00007E
7E00007E
7E00007E
7E00003F
7E00003F
7C00003F
7C00003F
FC00003F
FC00003F
FC00003F
FC00003F
7C00003F
7C00003F
7E00003F
7E00003F
7E00007E
7F00007E
3F00007E
3F0000FC
3F8001FC
1FC003FC
1FE007F8
0FFC1FF0
07FFFFE0
03FFFFC0
01FFFF80
007FFE00
000FF000
ENDCHAR
STARTCHAR 0070
ENCODING 112
SWIDTH 555 0
DWIDTH 37 0
BBX 31 51 4 -15
BITMAP
000FF000
F83FFE00
F8FFFF00
F9FFFF80
FBFFFFC0
FFF87FE0
FFC00FF0
FF8007F0
FF0003F8
FF0001F8
FE0001FC
FE0000FC
FC0000FC
FC0000FC
FC00007E
F800007E
F800007E
F800007E
F800007E
F800007E
F800007E
F800007E
F800007E
FC00007E
FC0000FC
FC0000FC
FE0000FC
FE0001FC
FF0001F8
FF0003F8
FF8007F0
FFC00FF0
FFF87FE0
FBFFFFC0
F9FFFF80
F8FFFF00
F87FFC00
F80FF000
F8000000
F8000000
F8000000
F8000000
F8000000
F8000000
F8000000
F8000000
F8000000
F8000000
F8000000
F8000000
F8000000
ENDCHAR
STARTCHAR 0071
ENCODING 113
SWIDTH 555 0
DWIDTH 37 0
BBX 31 51 2 -15
BITMAP
001FE000
00FFF83E
01FFFE3E
03FFFF3E
07FFFFBE
0FF83FFE
1FE00FFE
3FC003FE
3F8003FE
3F0001FE
7E0000FE
7E0000FE
7E0000FE
FC00007E
FC00007E
FC00007E
FC00007E
FC00007E
FC00007E
FC00007E
FC00007E
FC00007E
FC00007E
FC00007E
FC00007E
FE00007E
7E0000FE
7E0000FE
7F0001FE
3F8003FE
3FC003FE
1FE00FFE
1FF83FFE
0FFFFFFE
07FFFF7E
03FFFE7E
00FFF87E
001FE07E
0000007E
0000007E
0000007E
0000007E
0000007E
0000007E
0000007E
0000007E
0000007E
0000007E
0000007E
0000007E
0000007E
ENDCHAR
STARTCHAR 0072
ENCODING 114
SWIDTH 330 0
DWIDTH 22 0
BBX 16 36 5 0
BITMAP
000F
F83F
F87F
F8FF
F9FF
FBFF
FFE0
FF80
FF00
FE00
FE00
FC00
FC00
FC00
F800
F800
F800
F800
F800
F800
F800
F800
F800
F800
F800
F800
F800
F800
F800
F800
F800
F800
F800
F800
F800
F800
ENDCHAR
STARTCHAR 0073
ENCODING 115
SWIDTH 495 0
DWIDTH 33 0
BBX 29 38 2 -2
BITMAP
003FE000
01FFFC00
07FFFF00
0FFFFF80
1FFFFF80
1FE07FC0
3F801FC0
3F000FE0
7E0007E0
7E0007E0
7E0007E0
7E000000
7F000000
7F000000
3FC00000
3FF80000
1FFF8000
0FFFF800
07FFFE00
01FFFF80
003FFFC0
0003FFE0
00003FF0
00000FF0
000003F0
000003F8
FC0001F8
FC0001F8
7E0001F0
7E0003F0
7F0003F0
7F800FF0
3FF03FE0
3FFFFFC0
1FFFFF80
0FFFFF00
03FFFC00
007FE000
ENDCHAR
STARTCHAR 0074
ENCODING 116
SWIDTH 285 0
DWIDTH 19 0
BBX 16 47 1 -2
BITMAP
07C0
07C0
07C0
07C0
07C0
07C0
07C0
07C0
07C0
07C0
FFFF
FFFF
FFFF
FFFF
FFFF
07C0
07C0
07C0
07C0
07C0
07C0
07C0
07C0
07C0
07C0
07C0
07C0
07C0
07C0
07C0
07C0
07C0
07C0
07C0
07C0
07C0
07C0
07C0
07C0
07C0
07C0
07E0
07FF
07FF
07FF
03FF
00FF
ENDCHAR
STARTCHAR 0075
ENCODING 117
SWIDTH 555 0
DWIDTH 37 0
BBX 28 37 4 -2
BITMAP
FC0001F0
FC0001F0
FC0001F0
FC0001F0
FC0001F0
FC0001F0
FC0001F0
FC0001F0
FC0001F0
FC0001F0
FC0001F0
FC0001F0
FC0001F0
FC0001F0
FC0001F0
FC0001F0
FC0001F0
FC0001F0
FC0001F0
FC0001F0
FC0001F0
FC0001F0
FC0003F0
FC0003F0
FC0003F0
FC0003F0
FC0007F0
FC0007F0
FE000FF0
7E001FF0
7F003FF0
7FC0FDF0
3FFFF9F0
3FFFF1F0
1FFFE1F0
07FF8000
01FC0000
ENDCHAR
STARTCHAR 0076
ENCODING 118
SWIDTH 495 0
DWIDTH 33 0
BBX 31 35 1 0
BITMAP
FC00007E
FC00007E
7E0000FC
7E0000FC
7E0000FC
3F0001F8
3F0001F8
3F0001F8
1F8003F0
1F8003F0
1F8007E0
0FC007E0
0FC007E0
0FC00FC0
07E00FC0
07E00F80
07E01F80
03F01F80
03F01F00
03F03F00
01F83F00
01F83E00
00F87E00
00FC7C00
00FC7C00
007CFC00
007EF800
007EF800
003FF000
003FF000
003FF000
001FE000
001FE000
001FE000
000FC000
ENDCHAR
STARTCHAR 0077
ENCODING 119
SWIDTH 720 0
DWIDTH 48 0
BBX 46 35 1 0
BITMAP
FC001FC000FC
FC001FE000FC
FC001FE001F8
FC003FE001F8
7E003FE001F8
7E003FF001F8
7E003FF003F0
3F007FF003F0
3F007DF003F0
3F007DF803E0
3F007DF807E0
1F807CF807E0
1F80F8F807E0
1F80F8FC0FC0
0F80F8FC0FC0
0FC0F87C0FC0
0FC1F07C0F80
0FC1F07E1F80
07C1F07E1F80
07E1F03E1F00
07E3E03E1F00
03E3E03F3F00
03E3E03F3F00
03F3E01F3E00
03F7C01F3E00
01F7C01FFE00
01F7C01FFC00
01FFC00FFC00
00FF800FFC00
00FF800FFC00
00FF800FF800
00FF8007F800
007F0007F800
007F0007F000
007F0007F000
ENDCHAR
STARTCHAR 0078
ENCODING 120
SWIDTH 495 0
DWIDTH 33 0
BBX 30 35 1 0
BITMAP
7E0000FC
3F0001F8
3F8003F0
1F8003F0
0FC007E0
07E00FC0
07E00FC0
03F01F80
01F83F00
01F83F00
00FC7E00
007EFC00
007EFC00
003FF800
001FF000
001FE000
000FE000
000FE000
000FF000
001FF000
003FF800
007FFC00
007EFC00
00FC7E00
01F87F00
01F83F00
03F01F80
07E01FC0
07E00FC0
0FC00FE0
1F8007F0
1F8003F0
3F0003F8
7E0001FC
FE0000FC
ENDCHAR
STARTCHAR 0079
ENCODING 121
SWIDTH 495 0
DWIDTH 33 0
BBX 31 49 1 -14
BITMAP
FC00007E
7E0000FC
7E0000FC
7E0000FC
3F0001F8
3F0001F8
1F0001F0
1F8003F0
1F8003F0
0F8007E0
0FC007E0
0FC007E0
07C00FC0
07E00FC0
07E00FC0
03E01F80
03F01F80
03F01F00
01F03F00
01F83F00
01F83E00
00F87E00
00FC7E00
00FC7C00
007CFC00
007EF800
007FF800
003FF800
003FF000
003FF000
001FF000
001FE000
001FE000
000FE000
000FC000
000FC000
000F8000
001F8000
001F8000
003F0000
003F0000
003F0000
007E0000
00FE0000
1FFC0000
1FFC0000
1FF80000
1FF00000
1FC00000
ENDCHAR
STARTCHAR 007A
ENCODING 122
SWIDTH 495 0
DWIDTH 33 0
BBX 28 35 2 0
BITMAP
7FFFFFF0
7FFFFFF0
7FFFFFF0
7FFFFFF0
7FFFFFF0
00000FE0
00000FC0
00001F80
00003F80
00007F00
0000FE00
0001FC00
0001F800
0003F000
0007F000
000FE000
001FC000
003F8000
003F0000
007F0000
00FE0000
01FC0000
03F80000
07F00000
07E00000
0FE00000
1FC00000
3F800000
7F000000
FE000000
FFFFFFF0
FFFFFFF0
FFFFFFF0
FFFFFFF0
FFFFFFF0
ENDCHAR
STARTCHAR 007B
ENCODING 123
SWIDTH 330 0
DWIDTH 22 0
BBX 15 63 3 -14
BITMAP
003E
00FE
01FE
03FE
03F8
07E0
07C0
07C0
07C0
07C0
07C0
07C0
07C0
07C0
07C0
07C0
07C0
07C0
07C0
07C0
07C0
07C0
07C0
07C0
07C0
0FC0
0F80
1F80
3F80
FF00
FC00
F800
FE00
FF00
3F80
1F80
0F80
0FC0
07C0
07C0
07C0
07C0
07C0
07C0
07C0
07C0
07C0
07C0
07C0
07C0
07C0
07C0
07C0
07C0
07C0
07C0
07E0
07E0
03FE
03FE
01FE
00FE
003E
ENDCHAR
STARTCHAR 007C
ENCODING 124
SWIDTH 255 0
DWIDTH 17 0
BBX 4 63 7 -14
BITMAP
F0
F0
F0
F0
F0
F0
F0
F0
F0
F0
F0
F0
F0
F0
F0
F0
F0
F0
F0
F0
F0
F0
F0
F0
F0
F0
F0
F0
F0
F0
F0
F0
F0
F0
F0
F0
F0
F0
F0
F0
F0
F0
F0
F0
F0
F0
F0
F0
F0
F0
F0
F0
F0
F0
F0
F0
F0
F0
F0
F0
F0
F0
F0
ENDCHAR
STARTCHAR 007D
ENCODING 125
SWIDTH 330 0
DWIDTH 22 0
BBX 15 63 2 -14
BITMAP
FC00
FF00
FF80
FF80
3FC0
07C0
07C0
07C0
07C0
07C0
07C0
07C0
07C0
07C0
07C0
07C0
07C0
07C0
07C0
07C0
07C0
07C0
07E0
07E0
03E0
03E0
03F0
01F0
01FC
00FE
007E
001E
007E
00FE
01F8
01F0
03E0
03E0
03E0
07E0
07C0
07C0
07C0
07C0
07C0
07C0
07C0
07C0
07C0
07C0
07C0
07C0
07C0
07C0
07C0
07C0
07C0
0FC0
FFC0
FF80
FF00
FE00
F800
ENDCHAR
STARTCHAR 007E
ENCODING 126
SWIDTH 585 0
DWIDTH 39 0
BBX 29 11 5 18
BITMAP
07C00000
1FF00000
3FF80078
7FFE0078
7FFF8078
783FE078
F00FFFF0
F003FFF0
F001FFE0
00007FC0
00001F00
ENDCHAR
STARTCHAR 00A0
ENCODING 160
SWIDTH 285 0
DWIDTH 19 0
BBX 0 0 0 0
BITMAP
ENDCHAR
STARTCHAR 00A1
ENCODING 161
SWIDTH 330 0
DWIDTH 22 0
BBX 6 49 8 -14
BITMAP
FC
FC
FC
FC
FC
FC
FC
00
00
00
00
30
70
70
78
78
78
78
78
78
78
78
F8
F8
FC
FC
FC
FC
FC
FC
FC
FC
FC
FC
FC
FC
FC
FC
FC
FC
FC
FC
FC
FC
FC
FC
FC
FC
FC
ENDCHAR
STARTCHAR 00A2
ENCODING 162
SWIDTH 555 0
DWIDTH 37 0
BBX 31 50 3 -8
BITMAP
0001C000
0001C000
0001C000
0001C000
0001C000
0001C000
0007F800
003FFF00
00FFFF80
01FFFFE0
03FFFFF0
07FDDFF0
0FF1C3F8
1FC1C1F8
1F81C0FC
3F81C0FC
3F01C0FC
3F01C07E
7E01C07E
7E01C000
7E01C000
7E01C000
7C01C000
7C01C000
FC01C000
FC01C000
7C01C000
7C01C000
7E01C000
7E01C000
7E01C07E
7E01C07E
3F01C07E
3F01C07C
3F81C0FC
1FC1C1FC
1FE1C1F8
0FF1C7F8
07FFFFF0
03FFFFE0
01FFFFC0
00FFFF80
001FFE00
0001C000
0001C000
0001C000
0001C000
0001C000
0001C000
0001C000
ENDCHAR
STARTCHAR 00A3
ENCODING 163
SWIDTH 555 0
DWIDTH 37 0
BBX 33 51 2 -2
BITMAP
0007FC0000
003FFF8000
00FFFFC000
01FFFFF000
03FFFFF800
07FE0FFC00
0FF003FC00
0FC000FE00
1FC000FE00
1F80007E00
3F00007F00
3F00003F00
3F00003F00
3F00003F00
3F00003F00
3F00003F00
3F00000000
3F00000000
3F80000000
1F80000000
1FC0000000
0FC0000000
0FE0000000
07F0000000
FFFFFC0000
FFFFFC0000
FFFFFC0000
FFFFFC0000
00FC000000
00FC000000
00FC000000
007C000000
007C000000
007C000000
007C000000
00FC000000
00F8000000
00F8000000
01F0000000
01F0000000
03E0000000
07C0000000
0F80000000
1F1FE00200
3EFFFE1F00
7FFFFFFF80
7FFFFFFF80
7FFFFFFF80
3F03FFFF00
18007FFE00
000007F000
ENDCHAR
STARTCHAR 00A4
ENCODING 164
SWIDTH 555 0
DWIDTH 37 0
BBX 27 28 5 9
BITMAP
10000000
38000180
7C3F87C0
FFFFEFE0
FFFFFFE0
7FFFFFC0
3FFFFF80
1FE1FF00
3F807F00
3F001F80
7E001F80
7E000F80
7C000FC0
7C000FC0
7C000FC0
7C000FC0
7E000F80
7E000F80
3F001F80
3F803F00
1FE0FF00
3FFFFF80
7FFFFFC0
FFFFFFE0
FFFFEFE0
7C7F87C0
38000380
10000100
ENDCHAR
STARTCHAR 00A5
ENCODING 165
SWIDTH 555 0
DWIDTH 37 0
BBX 35 47 1 0
BITMAP
FC000007E0
7C000007C0
7E00000FC0
3E00000F80
3F00001F80
1F80001F00
1F80003F00
0FC0007E00
07C0007C00
07E000FC00
03E000F800
03F001F800
01F801F000
00F803F000
00FC03E000
007C07E000
007E0FC000
003E0F8000
003F1F8000
001F9F0000
000FBF0000
000FFE0000
0007FE0000
0007FC0000
1FFFFFFF00
1FFFFFFF00
1FFFFFFF00
0001F80000
0001F80000
0001F80000
0001F80000
0001F80000
1FFFFFFF00
1FFFFFFF00
1FFFFFFF00
0001F80000
0001F80000
0001F80000
0001F80000
0001F80000
0001F80000
0001F80000
0001F80000
0001F80000
0001F80000
0001F80000
0001F80000
ENDCHAR
STARTCHAR 00A6
ENCODING 166
SWIDTH 255 0
DWIDTH 17 0
BBX 4 63 7 -14
BITMAP
F0
F0
F0
F0
F0
F0
F0
F0
F0
F0
F0
F0
F0
F0
F0
F0
F0
F0
F0
F0
F0
F0
F0
F0
F0
F0
F0
00
00
00
00
00
00
00
00
00
F0
F0
F0
F0
F0
F0
F0
F0
F0
F0
F0
F0
F0
F0
F0
F0
F0
F0
F0
F0
F0
F0
F0
F0
F0
F0
F0
ENDCHAR
STARTCHAR 00A7
ENCODING 167
SWIDTH 555 0
DWIDTH 37 0
BBX 31 63 3 -14
BITMAP
0007F000
003FFE00
00FFFF00
01FFFF80
03FFFFC0
03FC3FC0
07F00FE0
07E007E0
0FE003F0
0FC003F0
0FC003F0
0FC003F0
0FC003F0
0FE003F0
07F00000
07F80000
03FC0000
03FF0000
03FF8000
07FFE000
1FFFF000
3F0FFC00
3E07FE00
7C01FF80
7C00FFC0
F8007FE0
F8001FF0
F8000FF8
F80003FC
FC0001FC
FC0000FC
FE0000FE
7F00007E
7F80007E
3FE0007E
3FF0007E
1FF8007C
07FE007C
03FF00FC
01FF80F8
007FE1F8
003FF7F0
000FFFE0
0007FF80
0001FF00
0000FF80
00007F80
00001FC0
00000FC0
00000FE0
3F0007E0
3F0007E0
3F0007E0
3F0007E0
1F8007E0
1F800FC0
1FC01FC0
0FF07F80
0FFFFF80
07FFFF00
03FFFE00
00FFF800
003FE000
ENDCHAR
STARTCHAR 00A8
ENCODING 168
SWIDTH 330 0
DWIDTH 22 0
BBX 18 7 2 41
BITMAP
FE1FC0
FE1FC0
FE1FC0
FE1FC0
FE1FC0
FE1FC0
FE1FC0
ENDCHAR
STARTCHAR 00A9
ENCODING 169
SWIDTH 735 0
DWIDTH 49 0
BBX 51 51 -1 -1
BITMAP
000007FE000000
00007FFFC00000
0001FFFFF80000
0007FFFFFE0000
001FFC07FF0000
003FC0007FC000
007F00001FE000
00FC000007F000
01F8000003F800
03F0000001FC00
07E001FC00FC00
0FC00FFF007E00
0F801FFF803F00
1F007FFFC01F00
1F007F0FE00F80
3E00FC03F00F80
3E01F801F007C0
7C01F000F807C0
7C03E000F807C0
7C03E000F803C0
7803C0000003E0
F803C0000003E0
F807C0000003E0
F807C0000003E0
F807C0000001E0
F807C0000001E0
F807C0000001E0
F807C0000003E0
F807C0000003E0
F807C0007C03E0
7803C0007803E0
7C03E000F803C0
7C03E000F807C0
7C01F000F807C0
3E01F801F00780
3E00FC03F00F80
1F00FF07E00F80
1F007FFFC01F00
0F803FFF803F00
0FC00FFF007E00
07E003FC007C00
03F0000000F800
01F8000003F800
00FC000007F000
007F00001FE000
003FC0007F8000
001FFC07FF0000
0007FFFFFC0000
0003FFFFF80000
00007FFFC00000
00000FFC000000
ENDCHAR
STARTCHAR 00AA
ENCODING 170
SWIDTH 375 0
DWIDTH 25 0
BBX 20 29 2 21
BITMAP
03FC00
0FFF00
1FFF80
3FBFC0
3C07C0
7C03C0
7803C0
0003C0
0003C0
000FC0
07FFC0
1FFFC0
3FE3C0
7C03C0
7803C0
7003C0
F003C0
F807C0
780FC0
7FFFC0
3FFFF0
1FF9F0
0FC0F0
000000
000000
000000
7FFFE0
7FFFE0
7FFFE0
ENDCHAR
STARTCHAR 00AB
ENCODING 171
SWIDTH 555 0
DWIDTH 37 0
BBX 23 22 7 7
BITMAP
004002
00C006
03C00E
07C01E
0FC07E
1F80FE
7F01FC
FE03F8
FC07E0
F007C0
E00780
E00780
F807C0
FC07F0
FE03F8
3F81FC
1FC0FE
0FC03E
07C01E
01C00E
00C006
004000
ENDCHAR
STARTCHAR 00AC
ENCODING 172
SWIDTH 585 0
DWIDTH 39 0
BBX 33 19 3 6
BITMAP
FFFFFFFF80
FFFFFFFF80
FFFFFFFF80
FFFFFFFF80
FFFFFFFF80
0000000780
0000000780
0000000780
0000000780
0000000780
0000000780
0000000780
0000000780
0000000780
0000000780
0000000780
0000000780
0000000780
0000000780
ENDCHAR
STARTCHAR 00AD
ENCODING 173
SWIDTH 330 0
DWIDTH 22 0
BBX 16 5 3 16
BITMAP
FFFF
FFFF
FFFF
FFFF
FFFF
ENDCHAR
STARTCHAR 00AE
ENCODING 174
SWIDTH 735 0
DWIDTH 49 0
BBX 51 51 -1 -1
BITMAP
000007FE000000
00007FFFC00000
0001FFFFF80000
0007FFFFFC0000
001FFC07FF0000
003FC0007F8000
007F00001FE000
00FC000007F000
01F8000003F800
03F0000001F800
07E0000000FC00
0FC3FFFF807E00
0F83FFFFE03F00
1F03FFFFF01F00
1F03FFFFF81F80
3E03E001F80F80
3E03E000F80F80
3C03E000FC07C0
7C03E0007C07C0
7C03E0007C03C0
7803E0007C03E0
7803E000F803E0
F803E000F803E0
F803E003F003E0
F803FFFFE001E0
F803FFFFC001E0
F803FFFFE001E0
F803FFFFF003E0
F803E003F803E0
F803E000F803E0
7803E000F803E0
7C03E000F803C0
7C03E000F807C0
7C03E000F807C0
3E03E000F807C0
3E03E000F80F80
1F03E000F80F80
1F03E000FC1F00
0F83E0007C3F00
0FC3E0007E3E00
07E00000007C00
03F0000000FC00
01F8000003F800
00FC000007F000
007F00001FE000
003FC0007F8000
001FFC07FF0000
0007FFFFFC0000
0003FFFFF80000
00007FFFC00000
00000FFC000000
ENDCHAR
STARTCHAR 00AF
ENCODING 175
SWIDTH 330 0
DWIDTH 22 0
BBX 18 5 2 42
BITMAP
FFFFC0
FFFFC0
FFFFC0
FFFFC0
FFFFC0
ENDCHAR
STARTCHAR 00B0
ENCODING 176
SWIDTH 405 0
DWIDTH 27 0
BBX 20 21 3 25
BITMAP
00F800
07FE00
0FFF80
1FFFC0
3F07E0
3C03E0
7801F0
7800F0
F000F0
F00070
F00070
F00070
F000F0
7800F0
7801F0
7C03E0
3F07E0
1FFFC0
0FFF80
07FE00
00F800
ENDCHAR
STARTCHAR 00B1
ENCODING 177
SWIDTH 585 0
DWIDTH 39 0
BBX 33 42 3 -1
BITMAP
0003E00000
0003E00000
0003E00000
0003E00000
0003E00000
0003E00000
0003E00000
0003E00000
0003E00000
0003E00000
0003E00000
0003E00000
0003E00000
FFFFFFFF80
FFFFFFFF80
FFFFFFFF80
FFFFFFFF80
FFFFFFFF80
0003E00000
0003E00000
0003E00000
0003E00000
0003E00000
0003E00000
0003E00000
0003E00000
0003E00000
0003E00000
0003E00000
0003E00000
0003E00000
0003E00000
0000000000
0000000000
0000000000
0000000000
0000000000
FFFFFFFF80
FFFFFFFF80
FFFFFFFF80
FFFFFFFF80
FFFFFFFF80
ENDCHAR
STARTCHAR 00B2
ENCODING 178
SWIDTH 330 0
DWIDTH 22 0
BBX 20 28 1 19
BITMAP
01FC00
0FFF00
1FFFC0
3FFFE0
3E03E0
7C01F0
7801F0
7800F0
F800F0
F800F0
0001F0
0001E0
0003E0
000FC0
003F80
00FF00
01FC00
07F000
0FC000
1F0000
3E0000
7C0000
780000
F80000
FFFFF0
FFFFF0
FFFFF0
FFFFF0
ENDCHAR
STARTCHAR 00B3
ENCODING 179
SWIDTH 330 0
DWIDTH 22 0
BBX 21 29 0 18
BITMAP
01FC00
07FF80
1FFFC0
1FFFE0
3E03E0
3C01F0
7C01F0
7800F0
7800F0
0000F0
0001E0
0003E0
00FFC0
00FF00
00FFC0
001FE0
0001F0
0000F8
0000F8
000078
F80078
780078
7800F8
7C00F0
3E01F0
3FFFE0
1FFFC0
0FFF80
01FC00
ENDCHAR
STARTCHAR 00B4
ENCODING 180
SWIDTH 330 0
DWIDTH 22 0
BBX 14 10 6 40
BITMAP
03FC
03F8
07F0
0FE0
0FC0
1F80
3F00
3E00
7C00
F800
ENDCHAR
STARTCHAR 00B5
ENCODING 181
SWIDTH 555 0
DWIDTH 37 0
BBX 32 50 4 -15
BITMAP
FC0001F0
FC0001F0
FC0001F0
FC0001F0
FC0001F0
FC0001F0
FC0001F0
FC0001F0
FC0001F0
FC0001F0
FC0001F0
FC0001F0
FC0001F0
FC0001F0
FC0001F0
FC0001F0
FC0001F0
FC0001F0
FC0001F0
FC0001F0
FC0001F0
FC0001F0
FC0003F0
FC0003F0
FC0003F0
FC0003F0
FC0007F0
FC0007F0
FE000FF0
FE001FF0
FF003FF0
FFC0FFF8
FFFFFDFF
FFFFF9FF
FFFFF1FF
FFFFC0FF
FCFF003F
FC000000
FC000000
FC000000
FC000000
FC000000
FC000000
FC000000
FC000000
FC000000
FC000000
FC000000
FC000000
FC000000
ENDCHAR
STARTCHAR 00B6
ENCODING 182
SWIDTH 540 0
DWIDTH 36 0
BBX 32 60 3 -11
BITMAP
001FFFFF
007FFFFF
01FFFFFF
03FFFFFF
07FFC0F0
0FFFC0F0
1FFFC0F0
3FFFC0F0
3FFFC0F0
7FFFC0F0
7FFFC0F0
7FFFC0F0
7FFFC0F0
FFFFC0F0
FFFFC0F0
FFFFC0F0
FFFFC0F0
FFFFC0F0
FFFFC0F0
7FFFC0F0
7FFFC0F0
7FFFC0F0
7FFFC0F0
3FFFC0F0
3FFFC0F0
1FFFC0F0
0FFFC0F0
07FFC0F0
03FFC0F0
01FFC0F0
007FC0F0
0003C0F0
0003C0F0
0003C0F0
0003C0F0
0003C0F0
0003C0F0
0003C0F0
0003C0F0
0003C0F0
0003C0F0
0003C0F0
0003C0F0
0003C0F0
0003C0F0
0003C0F0
0003C0F0
0003C0F0
0003C0F0
0003C0F0
0003C0F0
0003C0F0
0003C0F0
0003C0F0
0003C0F0
0003C0F0
0003C0F0
0003C0F0
0003C0F0
0003C0F0
ENDCHAR
STARTCHAR 00B7
ENCODING 183
SWIDTH 285 0
DWIDTH 19 0
BBX 7 7 7 15
BITMAP
FE
FE
FE
FE
FE
FE
FE
ENDCHAR
STARTCHAR 00B8
ENCODING 184
SWIDTH 330 0
DWIDTH 22 0
BBX 16 14 3 -14
BITMAP
00C0
01C0
0180
0380
03FC
07FE
003F
001F
001F
401F
F03F
FFFE
7FFC
0FF0
ENDCHAR
STARTCHAR 00B9
ENCODING 185
SWIDTH 330 0
DWIDTH 22 0
BBX 11 28 3 19
BITMAP
00E0
00E0
01E0
01E0
07E0
FFE0
FFE0
FFE0
01E0
01E0
01E0
01E0
01E0
01E0
01E0
01E0
01E0
01E0
01E0
01E0
01E0
01E0
01E0
01E0
01E0
01E0
01E0
01E0
ENDCHAR
STARTCHAR 00BA
ENCODING 186
SWIDTH 360 0
DWIDTH 24 0
BBX 19 29 3 21
BITMAP
03F800
0FFE00
1FFF00
3FFF80
7C0F80
7807C0
F803C0
F003C0
F003C0
F001E0
F001E0
F001E0
F001E0
F001E0
F003C0
F003C0
F803C0
7807C0
7C0F80
3FBF80
1FFF00
0FFC00
03F000
000000
000000
000000
FFFFC0
FFFFC0
FFFFC0
ENDCHAR
STARTCHAR 00BB
ENCODING 187
SWIDTH 555 0
DWIDTH 37 0
BBX 23 21 7 7
BITMAP
800400
C00600
E00700
F007C0
FC07E0
FE07F0
7F03F8
3F80FE
0FC07E
07C03E
03C01E
03C01E
07C03E
1FC07E
3F81FC
7F03F8
FC07F0
F807C0
F00780
E00700
800600
ENDCHAR
STARTCHAR 00BC
ENCODING 188
SWIDTH 840 0
DWIDTH 56 0
BBX 52 49 2 -1
BITMAP
00C0000003C000
01C0000003C000
01C00000078000
01C00000070000
03C000000F0000
1FC000001E0000
FFC000001E0000
FFC000003C0000
FFC00000380000
03C00000780000
03C00000F00000
03C00000F00000
03C00001E00000
03C00003C00000
03C00003C00000
03C00007800000
03C00007000000
03C0000F000000
03C0001E000000
03C0001E000700
03C0003C000F00
03C00078001F00
03C00078003F00
03C000F0003F00
03C000E0007F00
03C001E000FF00
03C003C001EF00
03C003C003EF00
03C0078003CF00
00000F00078F00
00000F000F0F00
00001E001F0F00
00001C001E0F00
00003C003C0F00
00007800780F00
00007800F80F00
0000F000F00F00
0000E001FFFFF0
0001E001FFFFF0
0003C001FFFFF0
0003C001FFFFF0
00078000000F00
000F0000000F00
000F0000000F00
001E0000000F00
001C0000000F00
003C0000000F00
00780000000F00
00780000000000
ENDCHAR
STARTCHAR 00BD
ENCODING 189
SWIDTH 840 0
DWIDTH 56 0
BBX 52 48 2 -1
BITMAP
01C000000F0000
01C000000F0000
01C000001E0000
03C000003C0000
0FC000003C0000
FFC00000780000
FFC00000700000
FFC00000F00000
03C00001E00000
03C00001E00000
03C00003C00000
03C00007800000
03C00007800000
03C0000F000000
03C0000E000000
03C0001E000000
03C0003C000000
03C0003C000000
03C00078002000
03C000F007FE00
03C000F01FFF80
03C001E03FFFC0
03C001C03E0FE0
03C003C07C03E0
03C007807801F0
03C00780F801F0
03C00F00F000F0
03C01E00F000F0
00001E00F001F0
00003C000001E0
000038000003E0
000078000007C0
0000F000001FC0
0000F000007F00
0001E00001FE00
0003C00003F800
0003C0000FE000
000780001F8000
000780003F0000
000F00007C0000
001E0000780000
001E0000F80000
003C0000F80000
00380000FFFFF0
00780000FFFFF0
00F00000FFFFF0
00F00001FFFFF0
01E00000000000
ENDCHAR
STARTCHAR 00BE
ENCODING 190
SWIDTH 840 0
DWIDTH 56 0
BBX 52 48 2 -1
BITMAP
03FC000000F000
0FFF000001E000
1FFF800001E000
3FFFC00003C000
7C07C000038000
7803E000078000
7801E0000F0000
F801E0000F0000
F001E0001E0000
0001E0003C0000
0003E0003C0000
0007C000780000
00FF8000700000
00FE0000F00000
00FF8001E00000
001FE001E00000
0003E003C00000
0001F007800000
0000F007800000
0000F00F000F00
F000F00E001F00
F000F01E003F00
F001F03C003F00
F801E03C007F00
7C03E07800FF00
7FFFC0F001FF00
3FFF80F001EF00
0FFF01E003CF00
03F801C0078F00
000003C00F0F00
000007801F0F00
000007001E0F00
00000F003C0F00
00001E00780F00
00001E00F00F00
00003C01F00F00
00007801FFFFF0
00007801FFFFF0
0000F001FFFFF0
0000E001FFFFF0
0001E000000F00
0003C000000F00
0003C000000F00
00078000000F00
000F0000000F00
000F0000000F00
001E0000000F00
001C0000000000
ENDCHAR
STARTCHAR 00BF
ENCODING 191
SWIDTH 615 0
DWIDTH 41 0
BBX 29 49 6 -14
BITMAP
000FC000
000FC000
000FC000
000FC000
000FC000
000FC000
000FC000
00000000
00000000
00000000
00000000
00000000
00000000
000FC000
000FC000
000FC000
000FC000
000FC000
000FC000
000FC000
001FC000
003F8000
007F8000
00FF0000
01FE0000
03FC0000
07F80000
0FF00000
1FC00000
3F800000
3F800000
7F000000
7E000000
7E000000
FE0000F8
FC0001F8
FC0001F8
FC0001F8
FE0001F8
7E0001F8
7F0003F0
7F0003F0
3FC007E0
3FF03FE0
1FFFFFC0
0FFFFF80
07FFFF00
01FFFE00
007FF000
ENDCHAR
STARTCHAR 00C0
ENCODING 192
SWIDTH 660 0
DWIDTH 44 0
BBX 42 63 1 0
BITMAP
000FF0000000
0007F0000000
0003F8000000
0001F8000000
0000FC000000
00007E000000
00003E000000
00001F000000
00000F800000
000007800000
000000000000
000000000000
000000000000
000000000000
00007FC00000
00007FC00000
00007FC00000
0000FFE00000
0000FFE00000
0000FFE00000
0001FFF00000
0001FBF00000
0003FBF00000
0003F3F80000
0003F1F80000
0007F1F80000
0007E1FC0000
0007E0FC0000
000FE0FE0000
000FC0FE0000
000FC07E0000
001FC07F0000
001F807F0000
001F803F0000
003F003F8000
003F003F8000
003F001F8000
007E001FC000
007E001FC000
00FE000FC000
00FC000FE000
00FC000FE000
01FC0007E000
01FFFFFFF000
01FFFFFFF000
03FFFFFFF000
03FFFFFFF800
03FFFFFFF800
07F00001F800
07E00001FC00
07E00001FC00
0FE00000FE00
0FC00000FE00
1FC00000FE00
1FC000007F00
1F8000007F00
3F8000007F00
3F8000003F80
3F0000003F80
7F0000003F80
7F0000001FC0
7E0000001FC0
FE0000001FC0
ENDCHAR
STARTCHAR 00C1
ENCODING 193
SWIDTH 660 0
DWIDTH 44 0
BBX 42 63 1 0
BITMAP
000001FE0000
000001FC0000
000003F80000
000007F00000
000007E00000
00000FC00000
00001F800000
00001F000000
00003E000000
00007C000000
000000000000
000000000000
000000000000
000000000000
00007FC00000
00007FC00000
00007FC00000
0000FFE00000
0000FFE00000
0000FFE00000
0001FFF00000
0001FBF00000
0003FBF00000
0003F3F80000
0003F1F80000
0007F1F80000
0007E1FC0000
0007E0FC0000
000FE0FE0000
000FC0FE0000
000FC07E0000
001FC07F0000
001F807F0000
001F803F0000
003F003F8000
003F003F8000
003F001F8000
007E001FC000
007E001FC000
00FE000FC000
00FC000FE000
00FC000FE000
01FC0007E000
01FFFFFFF000
01FFFFFFF000
03FFFFFFF000
03FFFFFFF800
03FFFFFFF800
07F00001F800
07E00001FC00
07E00001FC00
0FE00000FE00
0FC00000FE00
1FC00000FE00
1FC000007F00
1F8000007F00
3F8000007F00
3F8000003F80
3F0000003F80
7F0000003F80
7F0000001FC0
7E0000001FC0
FE0000001FC0
ENDCHAR
STARTCHAR 00C2
ENCODING 194
SWIDTH 660 0
DWIDTH 44 0
BBX 42 63 1 0
BITMAP
00003F800000
00007F800000
00007FC00000
0000FFE00000
0001FBE00000
0001F1F00000
0003E0F80000
0007C0780000
0007807C0000
000F003E0000
000000000000
000000000000
000000000000
000000000000
00007FC00000
00007FC00000
00007FC00000
0000FFE00000
0000FFE00000
0000FFE00000
0001FFF00000
0001FBF00000
0003FBF00000
0003F3F80000
0003F1F80000
0007F1F80000
0007E1FC0000
0007E0FC0000
000FE0FE0000
000FC0FE0000
000FC07E0000
001FC07F0000
001F807F0000
001F803F0000
003F003F8000
003F003F8000
003F001F8000
007E001FC000
007E001FC000
00FE000FC000
00FC000FE000
00FC000FE000
01FC0007E000
01FFFFFFF000
01FFFFFFF000
03FFFFFFF000
03FFFFFFF800
03FFFFFFF800
07F00001F800
07E00001FC00
07E00001FC00
0FE00000FE00
0FC00000FE00
1FC00000FE00
1FC000007F00
1F8000007F00
3F8000007F00
3F8000003F80
3F0000003F80
7F0000003F80
7F0000001FC0
7E0000001FC0
FE0000001FC0
ENDCHAR
STARTCHAR 00C3
ENCODING 195
SWIDTH 660 0
DWIDTH 44 0
BBX 42 61 1 0
BITMAP
0003F00F0000
0007FE1E0000
000FFFFE0000
000FFFFE0000
001F1FFC0000
001E03F80000
000000400000
000000000000
000000000000
000000000000
000000000000
000000000000
00007FC00000
00007FC00000
00007FC00000
0000FFE00000
0000FFE00000
0000FFE00000
0001FFF00000
0001FBF00000
0003FBF00000
0003F3F80000
0003F1F80000
0007F1F80000
0007E1FC0000
0007E0FC0000
000FE0FE0000
000FC0FE0000
000FC07E0000
001FC07F0000
001F807F0000
001F803F0000
003F003F8000
003F003F8000
003F001F8000
007E001FC000
007E001FC000
00FE000FC000
00FC000FE000
00FC000FE000
01FC0007E000
01FFFFFFF000
01FFFFFFF000
03FFFFFFF000
03FFFFFFF800
03FFFFFFF800
07F00001F800
07E00001FC00
07E00001FC00
0FE00000FE00
0FC00000FE00
1FC00000FE00
1FC000007F00
1F8000007F00
3F8000007F00
3F8000003F80
3F0000003F80
7F0000003F80
7F0000001FC0
7E0000001FC0
FE0000001FC0
ENDCHAR
STARTCHAR 00C4
ENCODING 196
SWIDTH 660 0
DWIDTH 44 0
BBX 42 61 1 0
BITMAP
000FE1FC0000
000FE1FC0000
000FE1FC0000
000FE1FC0000
000FE1FC0000
000FE1FC0000
000FE1FC0000
000000000000
000000000000
000000000000
000000000000
000000000000
00007FC00000
00007FC00000
00007FC00000
0000FFE00000
0000FFE00000
0000FFE00000
0001FFF00000
0001FBF00000
0003FBF00000
0003F3F80000
0003F1F80000
0007F1F80000
0007E1FC0000
0007E0FC0000
000FE0FE0000
000FC0FE0000
000FC07E0000
001FC07F0000
001F807F0000
001F803F0000
003F003F8000
003F003F8000
003F001F8000
007E001FC000
007E001FC000
00FE000FC000
00FC000FE000
00FC000FE000
01FC0007E000
01FFFFFFF000
01FFFFFFF000
03FFFFFFF000
03FFFFFFF800
03FFFFFFF800
07F00001F800
07E00001FC00
07E00001FC00
0FE00000FE00
0FC00000FE00
1FC00000FE00
1FC000007F00
1F8000007F00
3F8000007F00
3F8000003F80
3F0000003F80
7F0000003F80
7F0000001FC0
7E0000001FC0
FE0000001FC0
ENDCHAR
STARTCHAR 00C5
ENCODING 197
SWIDTH 660 0
DWIDTH 44 0
BBX 42 64 1 0
BITMAP
00001F000000
00003F800000
00007FC00000
0000F1E00000
0000E0E00000
0001C0E00000
0001C0E00000
0000E0E00000
0000F1E00000
00007FC00000
00007F800000
00001E000000
000000000000
000000000000
000000000000
00007FC00000
00007FC00000
00007FC00000
0000FFE00000
0000FFE00000
0000FFE00000
0001FFF00000
0001FBF00000
0003FBF00000
0003F3F80000
0003F1F80000
0007F1F80000
0007E1FC0000
0007E0FC0000
000FE0FE0000
000FC0FE0000
000FC07E0000
001FC07F0000
001F807F0000
001F803F0000
003F003F8000
003F003F8000
003F001F8000
007E001FC000
007E001FC000
00FE000FC000
00FC000FE000
00FC000FE000
01FC0007E000
01FFFFFFF000
01FFFFFFF000
03FFFFFFF000
03FFFFFFF800
03FFFFFFF800
07F00001F800
07E00001FC00
07E00001FC00
0FE00000FE00
0FC00000FE00
1FC00000FE00
1FC000007F00
1F8000007F00
3F8000007F00
3F8000003F80
3F0000003F80
7F0000003F80
7F0000001FC0
7E0000001FC0
FE0000001FC0
ENDCHAR
STARTCHAR 00C6
ENCODING 198
SWIDTH 1005 0
DWIDTH 67 0
BBX 62 49 1 0
BITMAP
00001FFFFFFFFFF8
00001FFFFFFFFFF8
00001FFFFFFFFFF8
00003FFFFFFFFFF8
00003FFFFFFFFFF8
00007F03F0000000
00007E03F0000000
00007E03F0000000
0000FC03F0000000
0000FC03F0000000
0001FC03F0000000
0001F803F0000000
0001F803F0000000
0003F003F0000000
0003F003F0000000
0007F003F0000000
0007E003F0000000
0007E003F0000000
000FC003F0000000
000FC003F0000000
001FC003F0000000
001F8003FFFFFFF0
001F8003FFFFFFF0
003F0003FFFFFFF0
003F0003FFFFFFF0
007F0003FFFFFFF0
007E0003F0000000
00FE0003F0000000
00FE0003F0000000
00FFFFFFF0000000
01FFFFFFF0000000
01FFFFFFF0000000
03FFFFFFF0000000
03FFFFFFF0000000
03F00003F0000000
07F00003F0000000
07E00003F0000000
0FE00003F0000000
0FE00003F0000000
0FC00003F0000000
1FC00003F0000000
1FC00003F0000000
3F800003F0000000
3F800003F0000000
3F000003FFFFFFFC
7F000003FFFFFFFC
7F000003FFFFFFFC
FE000003FFFFFFFC
FE000003FFFFFFFC
ENDCHAR
STARTCHAR 00C7
ENCODING 199
SWIDTH 720 0
DWIDTH 48 0
BBX 42 64 3 -14
BITMAP
00007FF00000
0003FFFE0000
000FFFFF8000
003FFFFFE000
007FFFFFF000
00FFFBFFF800
01FF000FF800
03FC0003FC00
07F80001FE00
07F00000FE00
0FE000007F00
1FC000007F00
1F8000003F00
1F8000003F80
3F0000003F80
3F0000001F80
7F0000000000
7E0000000000
7E0000000000
7E0000000000
7E0000000000
FE0000000000
FE0000000000
FC0000000000
FC0000000000
FC0000000000
FC0000000000
FC0000000000
FE0000000000
FE0000000000
FE0000000000
7E0000000000
7E0000000FC0
7E0000001FC0
7F0000001FC0
3F0000001FC0
3F0000001F80
3F8000003F80
1F8000003F80
1FC000003F00
1FE000007F00
0FF00000FF00
07F80000FE00
07FC0001FE00
03FE0007FC00
01FFC01FF800
00FFFFFFF000
007FFFFFE000
001FFFFFC000
000FFFFF0000
0001FFF80000
00000C000000
00001C000000
000018000000
00003FE00000
00003FF00000
000003F00000
000001F80000
000000F80000
000401F00000
000703F00000
000FFFE00000
0003FFC00000
0000FF000000
ENDCHAR
STARTCHAR 00C8
ENCODING 200
SWIDTH 660 0
DWIDTH 44 0
BBX 35 63 6 0
BITMAP
00FF000000
007F000000
003F800000
001FC00000
000FC00000
0007E00000
0003F00000
0001F00000
0000F80000
0000780000
0000000000
0000000000
0000000000
0000000000
FFFFFFFFC0
FFFFFFFFC0
FFFFFFFFC0
FFFFFFFFC0
FFFFFFFFC0
FC00000000
FC00000000
FC00000000
FC00000000
FC00000000
FC00000000
FC00000000
FC00000000
FC00000000
FC00000000
FC00000000
FC00000000
FC00000000
FC00000000
FC00000000
FC00000000
FFFFFFFF80
FFFFFFFF80
FFFFFFFF80
FFFFFFFF80
FFFFFFFF80
FC00000000
FC00000000
FC00000000
FC00000000
FC00000000
FC00000000
FC00000000
FC00000000
FC00000000
FC00000000
FC00000000
FC00000000
FC00000000
FC00000000
FC00000000
FC00000000
FC00000000
FC00000000
FFFFFFFFE0
FFFFFFFFE0
FFFFFFFFE0
FFFFFFFFE0
FFFFFFFFE0
ENDCHAR
STARTCHAR 00C9
ENCODING 201
SWIDTH 660 0
DWIDTH 44 0
BBX 35 63 6 0
BITMAP
00003F8000
00007F0000
00007E0000
0000FC0000
0000F80000
0001F00000
0003E00000
0003C00000
0007800000
000F000000
0000000000
0000000000
0000000000
0000000000
FFFFFFFFC0
FFFFFFFFC0
FFFFFFFFC0
FFFFFFFFC0
FFFFFFFFC0
FC00000000
FC00000000
FC00000000
FC00000000
FC00000000
FC00000000
FC00000000
FC00000000
FC00000000
FC00000000
FC00000000
FC00000000
FC00000000
FC00000000
FC00000000
FC00000000
FFFFFFFF80
FFFFFFFF80
FFFFFFFF80
FFFFFFFF80
FFFFFFFF80
FC00000000
FC00000000
FC00000000
FC00000000
FC00000000
FC00000000
FC00000000
FC00000000
FC00000000
FC00000000
FC00000000
FC00000000
FC00000000
FC00000000
FC00000000
FC00000000
FC00000000
FC00000000
FFFFFFFFE0
FFFFFFFFE0
FFFFFFFFE0
FFFFFFFFE0
FFFFFFFFE0
ENDCHAR
STARTCHAR 00CA
ENCODING 202
SWIDTH 660 0
DWIDTH 44 0
BBX 35 63 6 0
BITMAP
0007F00000
0007F80000
000FFC0000
000FFC0000
001F3E0000
003E1F0000
003E1F0000
007C0F8000
00F807C000
00F003C000
0000000000
0000000000
0000000000
0000000000
FFFFFFFFC0
FFFFFFFFC0
FFFFFFFFC0
FFFFFFFFC0
FFFFFFFFC0
FC00000000
FC00000000
FC00000000
FC00000000
FC00000000
FC00000000
FC00000000
FC00000000
FC00000000
FC00000000
FC00000000
FC00000000
FC00000000
FC00000000
FC00000000
FC00000000
FFFFFFFF80
FFFFFFFF80
FFFFFFFF80
FFFFFFFF80
FFFFFFFF80
FC00000000
FC00000000
FC00000000
FC00000000
FC00000000
FC00000000
FC00000000
FC00000000
FC00000000
FC00000000
FC00000000
FC00000000
FC00000000
FC00000000
FC00000000
FC00000000
FC00000000
FC00000000
FFFFFFFFE0
FFFFFFFFE0
FFFFFFFFE0
FFFFFFFFE0
FFFFFFFFE0
ENDCHAR
STARTCHAR 00CB
ENCODING 203
SWIDTH 660 0
DWIDTH 44 0
BBX 35 61 6 0
BITMAP
00FE1FC000
00FE1FC000
00FE1FC000
00FE1FC000
00FE1FC000
00FE1FC000
00FE1FC000
0000000000
0000000000
0000000000
0000000000
0000000000
FFFFFFFFC0
FFFFFFFFC0
FFFFFFFFC0
FFFFFFFFC0
FFFFFFFFC0
FC00000000
FC00000000
FC00000000
FC00000000
FC00000000
FC00000000
FC00000000
FC00000000
FC00000000
FC00000000
FC00000000
FC00000000
FC00000000
FC00000000
FC00000000
FC00000000
FFFFFFFF80
FFFFFFFF80
FFFFFFFF80
FFFFFFFF80
FFFFFFFF80
FC00000000
FC00000000
FC00000000
FC00000000
FC00000000
FC00000000
FC00000000
FC00000000
FC00000000
FC00000000
FC00000000
FC00000000
FC00000000
FC00000000
FC00000000
FC00000000
FC00000000
FC00000000
FFFFFFFFE0
FFFFFFFFE0
FFFFFFFFE0
FFFFFFFFE0
FFFFFFFFE0
ENDCHAR
STARTCHAR 00CC
ENCODING 204
SWIDTH 285 0
DWIDTH 19 0
BBX 13 63 1 0
BITMAP
FE00
7F00
3F00
1F80
0FC0
07C0
03E0
01E0
00F0
0078
0000
0000
0000
0000
03F0
03F0
03F0
03F0
03F0
03F0
03F0
03F0
03F0
03F0
03F0
03F0
03F0
03F0
03F0
03F0
03F0
03F0
03F0
03F0
03F0
03F0
03F0
03F0
03F0
03F0
03F0
03F0
03F0
03F0
03F0
03F0
03F0
03F0
03F0
03F0
03F0
03F0
03F0
03F0
03F0
03F0
03F0
03F0
03F0
03F0
03F0
03F0
03F0
ENDCHAR
STARTCHAR 00CD
ENCODING 205
SWIDTH 285 0
DWIDTH 19 0
BBX 13 63 5 0
BITMAP
03F8
07F0
07E0
0FC0
1F80
1F00
3E00
7C00
7800
F000
0000
0000
0000
0000
3F00
3F00
3F00
3F00
3F00
3F00
3F00
3F00
3F00
3F00
3F00
3F00
3F00
3F00
3F00
3F00
3F00
3F00
3F00
3F00
3F00
3F00
3F00
3F00
3F00
3F00
3F00
3F00
3F00
3F00
3F00
3F00
3F00
3F00
3F00
3F00
3F00
3F00
3F00
3F00
3F00
3F00
3F00
3F00
3F00
3F00
3F00
3F00
3F00
ENDCHAR
STARTCHAR 00CE
ENCODING 206
SWIDTH 285 0
DWIDTH 19 0
BBX 19 63 0 0
BITMAP
03F800
07FC00
07FC00
0FFE00
1FBF00
1F1F00
3E0F80
7C07C0
7803C0
F803E0
000000
000000
000000
000000
01F800
01F800
01F800
01F800
01F800
01F800
01F800
01F800
01F800
01F800
01F800
01F800
01F800
01F800
01F800
01F800
01F800
01F800
01F800
01F800
01F800
01F800
01F800
01F800
01F800
01F800
01F800
01F800
01F800
01F800
01F800
01F800
01F800
01F800
01F800
01F800
01F800
01F800
01F800
01F800
01F800
01F800
01F800
01F800
01F800
01F800
01F800
01F800
01F800
ENDCHAR
STARTCHAR 00CF
ENCODING 207
SWIDTH 285 0
DWIDTH 19 0
BBX 17 61 1 0
BITMAP
FE3F80
FE3F80
FE3F80
FE3F80
FE3F80
FE3F80
FE3F80
000000
000000
000000
000000
000000
03F000
03F000
03F000
03F000
03F000
03F000
03F000
03F000
03F000
03F000
03F000
03F000
03F000
03F000
03F000
03F000
03F000
03F000
03F000
03F000
03F000
03F000
03F000
03F000
03F000
03F000
03F000
03F000
03F000
03F000
03F000
03F000
03F000
03F000
03F000
03F000
03F000
03F000
03F000
03F000
03F000
03F000
03F000
03F000
03F000
03F000
03F000
03F000
03F000
ENDCHAR
STARTCHAR 00D0
ENCODING 208
SWIDTH 720 0
DWIDTH 48 0
BBX 43 49 1 0
BITMAP
07FFFFF80000
07FFFFFF0000
07FFFFFFC000
07FFFFFFE000
07FFFFFFF000
07E001FFF800
07E0000FFC00
07E00003FE00
07E00000FF00
07E000007F00
07E000003F80
07E000003F80
07E000001FC0
07E000001FC0
07E000000FC0
07E000000FE0
07E000000FE0
07E0000007E0
07E0000007E0
07E0000007E0
07E0000007E0
07E0000007E0
FFFFFE0007E0
FFFFFE0007E0
FFFFFE0007E0
FFFFFE0007E0
07E0000007E0
07E0000007E0
07E0000007E0
07E0000007E0
07E0000007E0
07E0000007E0
07E000000FE0
07E000000FC0
07E000000FC0
07E000001FC0
07E000001FC0
07E000003F80
07E000003F80
07E000007F00
07E00000FF00
07E00001FE00
07E00007FC00
07E001FFF800
07FFFFFFF000
07FFFFFFE000
07FFFFFFC000
07FFFFFE0000
07FFFFF00000
ENDCHAR
STARTCHAR 00D1
ENCODING 209
SWIDTH 720 0
DWIDTH 48 0
BBX 38 61 5 0
BITMAP
000FE03C00
001FF87C00
003FFFF800
003FFFF800
003C7FF000
00780FE000
0000000000
0000000000
0000000000
0000000000
0000000000
0000000000
FE000000FC
FF000000FC
FF000000FC
FF800000FC
FFC00000FC
FFC00000FC
FFE00000FC
FFF00000FC
FFF00000FC
FFF80000FC
FDF80000FC
FDFC0000FC
FCFE0000FC
FC7E0000FC
FC7F0000FC
FC3F8000FC
FC3F8000FC
FC1FC000FC
FC0FE000FC
FC0FE000FC
FC07F000FC
FC03F000FC
FC03F800FC
FC01FC00FC
FC00FC00FC
FC00FE00FC
FC007F00FC
FC007F00FC
FC003F80FC
FC001FC0FC
FC001FC0FC
FC000FE0FC
FC0007E0FC
FC0007F0FC
FC0003F8FC
FC0003F8FC
FC0001FCFC
FC0000FEFC
FC0000FEFC
FC00007FFC
FC00003FFC
FC00003FFC
FC00001FFC
FC00000FFC
FC00000FFC
FC000007FC
FC000007FC
FC000003FC
FC000001FC
ENDCHAR
STARTCHAR 00D2
ENCODING 210
SWIDTH 780 0
DWIDTH 52 0
BBX 46 65 3 -2
BITMAP
0003F8000000
0001FC000000
0000FE000000
00007E000000
00003F000000
00001F800000
00000F800000
000007C00000
000003E00000
000001E00000
000000000000
000000000000
000000000000
00003FF00000
0003FFFF0000
000FFFFFC000
003FFFFFF000
007FFFFFF800
00FFFFFFFC00
01FF8007FE00
03FE0001FF00
07F800007F80
0FF000003FC0
0FE000001FE0
1FC000000FE0
3F80000007F0
3F80000007F0
3F00000003F8
7F00000003F8
7E00000001F8
7E00000001F8
FE00000001FC
FC00000000FC
FC00000000FC
FC00000000FC
FC00000000FC
FC00000000FC
FC00000000FC
FC00000000FC
FC00000000FC
FC00000000FC
FC00000000FC
FC00000000FC
FC00000000FC
FC00000000FC
FC00000000FC
FE00000001FC
7E00000001F8
7E00000001F8
7F00000003F8
3F00000003F0
3F80000007F0
3F80000007F0
1FC000000FE0
0FE000001FC0
0FF000003FC0
07F800007F80
03FE0001FF00
01FF8007FE00
00FFFFFFFC00
007FFFFFF800
003FFFFFF000
000FFFFFC000
0003FFFF0000
00003FF00000
ENDCHAR
STARTCHAR 00D3
ENCODING 211
SWIDTH 780 0
DWIDTH 52 0
BBX 46 65 3 -2
BITMAP
000000FF0000
000000FE0000
000001FC0000
000001F80000
000003F00000
000007E00000
000007C00000
00000F800000
00001F000000
00001E000000
000000000000
000000000000
000000000000
00003FF00000
0003FFFF0000
000FFFFFC000
003FFFFFF000
007FFFFFF800
00FFFFFFFC00
01FF8007FE00
03FE0001FF00
07F800007F80
0FF000003FC0
0FE000001FE0
1FC000000FE0
3F80000007F0
3F80000007F0
3F00000003F8
7F00000003F8
7E00000001F8
7E00000001F8
FE00000001FC
FC00000000FC
FC00000000FC
FC00000000FC
FC00000000FC
FC00000000FC
FC00000000FC
FC00000000FC
FC00000000FC
FC00000000FC
FC00000000FC
FC00000000FC
FC00000000FC
FC00000000FC
FC00000000FC
FE00000001FC
7E00000001F8
7E00000001F8
7F00000003F8
3F00000003F0
3F80000007F0
3F80000007F0
1FC000000FE0
0FE000001FC0
0FF000003FC0
07F800007F80
03FE0001FF00
01FF8007FE00
00FFFFFFFC00
007FFFFFF800
003FFFFFF000
000FFFFFC000
0003FFFF0000
00003FF00000
ENDCHAR
STARTCHAR 00D4
ENCODING 212
SWIDTH 780 0
DWIDTH 52 0
BBX 46 65 3 -2
BITMAP
00001FE00000
00001FE00000
00003FF00000
00007FF80000
00007CF80000
0000F87C0000
0000F03E0000
0001F03E0000
0003E01F0000
0003C00F0000
000000000000
000000000000
000000000000
00003FF00000
0003FFFF0000
000FFFFFC000
003FFFFFF000
007FFFFFF800
00FFFFFFFC00
01FF8007FE00
03FE0001FF00
07F800007F80
0FF000003FC0
0FE000001FE0
1FC000000FE0
3F80000007F0
3F80000007F0
3F00000003F8
7F00000003F8
7E00000001F8
7E00000001F8
FE00000001FC
FC00000000FC
FC00000000FC
FC00000000FC
FC00000000FC
FC00000000FC
FC00000000FC
FC00000000FC
FC00000000FC
FC00000000FC
FC00000000FC
FC00000000FC
FC00000000FC
FC00000000FC
FC00000000FC
FE00000001FC
7E00000001F8
7E00000001F8
7F00000003F8
3F00000003F0
3F80000007F0
3F80000007F0
1FC000000FE0
0FE000001FC0
0FF000003FC0
07F800007F80
03FE0001FF00
01FF8007FE00
00FFFFFFFC00
007FFFFFF800
003FFFFFF000
000FFFFFC000
0003FFFF0000
00003FF00000
ENDCHAR
STARTCHAR 00D5
ENCODING 213
SWIDTH 780 0
DWIDTH 52 0
BBX 46 63 3 -2
BITMAP
0000FC03C000
0001FF878000
0003FFFF8000
0003FFFF8000
0007C7FF0000
000780FE0000
000000100000
000000000000
000000000000
000000000000
000000000000
00003FF00000
0003FFFF0000
000FFFFFC000
003FFFFFF000
007FFFFFF800
00FFFFFFFC00
01FF8007FE00
03FE0001FF00
07F800007F80
0FF000003FC0
0FE000001FE0
1FC000000FE0
3F80000007F0
3F80000007F0
3F00000003F8
7F00000003F8
7E00000001F8
7E00000001F8
FE00000001FC
FC00000000FC
FC00000000FC
FC00000000FC
FC00000000FC
FC00000000FC
FC00000000FC
FC00000000FC
FC00000000FC
FC00000000FC
FC00000000FC
FC00000000FC
FC00000000FC
FC00000000FC
FC00000000FC
FE00000001FC
7E00000001F8
7E00000001F8
7F00000003F8
3F00000003F0
3F80000007F0
3F80000007F0
1FC000000FE0
0FE000001FC0
0FF000003FC0
07F800007F80
03FE0001FF00
01FF8007FE00
00FFFFFFFC00
007FFFFFF800
003FFFFFF000
000FFFFFC000
0003FFFF0000
00003FF00000
ENDCHAR
STARTCHAR 00D6
ENCODING 214
SWIDTH 780 0
DWIDTH 52 0
BBX 46 64 3 -2
BITMAP
0003F87F0000
0003F87F0000
0003F87F0000
0003F87F0000
0003F87F0000
0003F87F0000
0003F87F0000
000000000000
000000000000
000000000000
000000000000
000000000000
00003FF00000
0003FFFF0000
000FFFFFC000
003FFFFFF000
007FFFFFF800
00FFFFFFFC00
01FF8007FE00
03FE0001FF00
07F800007F80
0FF000003FC0
0FE000001FE0
1FC000000FE0
3F80000007F0
3F80000007F0
3F00000003F8
7F00000003F8
7E00000001F8
7E00000001F8
FE00000001FC
FC00000000FC
FC00000000FC
FC00000000FC
FC00000000FC
FC00000000FC
FC00000000FC
FC00000000FC
FC00000000FC
FC00000000FC
FC00000000FC
FC00000000FC
FC00000000FC
FC00000000FC
FC00000000FC
FE00000001FC
7E00000001F8
7E00000001F8
7F00000003F8
3F00000003F0
3F80000007F0
3F80000007F0
1FC000000FE0
0FE000001FC0
0FF000003FC0
07F800007F80
03FE0001FF00
01FF8007FE00
00FFFFFFFC00
007FFFFFF800
003FFFFFF000
000FFFFFC000
0003FFFF0000
00003FF00000
ENDCHAR
STARTCHAR 00D7
ENCODING 215
SWIDTH 585 0
DWIDTH 39 0
BBX 26 26 6 2
BITMAP
18000300
3C000780
7E000FC0
7F001FC0
3F803F80
1FC07F00
0FE0FE00
07F1FC00
03FBF800
01FFF000
00FFE000
007FC000
003F8000
007FC000
00FFE000
01FFF000
03FBF800
07F1FC00
0FE0FE00
1FC07F00
3F803F80
7F001FC0
FE000FC0
7C000780
38000300
10000000
ENDCHAR
STARTCHAR 00D8
ENCODING 216
SWIDTH 780 0
DWIDTH 52 0
BBX 48 52 2 -1
BITMAP
00001FF8000E
0001FFFF801F
0007FFFFE03E
001FFFFFF87C
003FFFFFFCF8
007FFEFFFFF0
01FFC003FFE0
01FF0000FFC0
03FC00003FC0
07F800001FE0
0FF000001FE0
0FE000003FF0
1FC000007FF8
1FC00000FBF8
3F800001F1F8
3F800003E1FC
3F000007C1FC
7F00000F80FC
7F00001F00FC
7E00001E00FE
7E00003E007E
7E00007C007E
7E0000F8007E
FE0001F0007E
FE0003E0007E
FE0007C0007E
FE000F80007E
FE001F00007E
FE001E00007E
7E003C00007E
7E007C00007E
7E00F800007E
7E01F00000FE
7F03E00000FE
7F07C00000FC
3F0F800001FC
3F9F000001FC
3F9E000001F8
1FFC000003F8
1FF8000007F0
0FF8000007F0
0FF000000FE0
07F800001FE0
07FC00003FC0
0FFF0000FF80
1FFFC003FF00
3EFFFEFFFE00
3C7FFFFFFC00
781FFFFFF000
F807FFFFE000
7001FFFF0000
20003FF80000
ENDCHAR
STARTCHAR 00D9
ENCODING 217
SWIDTH 720 0
DWIDTH 48 0
BBX 37 65 6 -2
BITMAP
007F800000
003F800000
001FC00000
000FC00000
0007E00000
0003F00000
0001F00000
0000F80000
00007C0000
00003C0000
0000000000
0000000000
0000000000
0000000000
FC000001F8
FC000001F8
FC000001F8
FC000001F8
FC000001F8
FC000001F8
FC000001F8
FC000001F8
FC000001F8
FC000001F8
FC000001F8
FC000001F8
FC000001F8
FC000001F8
FC000001F8
FC000001F8
FC000001F8
FC000001F8
FC000001F8
FC000001F8
FC000001F8
FC000001F8
FC000001F8
FC000001F8
FC000001F8
FC000001F8
FC000001F8
FC000001F8
FC000001F8
FC000001F8
FC000001F8
FC000001F8
FC000001F8
FC000001F8
FC000001F8
FC000001F8
FC000001F8
FC000001F8
FC000003F8
FE000003F0
7E000007F0
7F000007F0
7F80000FE0
3FC0003FE0
1FF000FFC0
0FFFDFFF80
07FFFFFF00
03FFFFFE00
01FFFFF800
003FFFE000
0007FE0000
ENDCHAR
STARTCHAR 00DA
ENCODING 218
SWIDTH 720 0
DWIDTH 48 0
BBX 37 65 6 -2
BITMAP
00001FE000
00001FC000
00003F8000
00003F0000
00007E0000
0000FC0000
0000F80000
0001F00000
0003E00000
0003C00000
0000000000
0000000000
0000000000
0000000000
FC000001F8
FC000001F8
FC000001F8
FC000001F8
FC000001F8
FC000001F8
FC000001F8
FC000001F8
FC000001F8
FC000001F8
FC000001F8
FC000001F8
FC000001F8
FC000001F8
FC000001F8
FC000001F8
FC000001F8
FC000001F8
FC000001F8
FC000001F8
FC000001F8
FC000001F8
FC000001F8
FC000001F8
FC000001F8
FC000001F8
FC000001F8
FC000001F8
FC000001F8
FC000001F8
FC000001F8
FC000001F8
FC000001F8
FC000001F8
FC000001F8
FC000001F8
FC000001F8
FC000001F8
FC000003F8
FE000003F0
7E000007F0
7F000007F0
7F80000FE0
3FC0003FE0
1FF000FFC0
0FFFDFFF80
07FFFFFF00
03FFFFFE00
01FFFFF800
003FFFE000
0007FE0000
ENDCHAR
STARTCHAR 00DB
ENCODING 219
SWIDTH 720 0
DWIDTH 48 0
BBX 37 65 6 -2
BITMAP
0001FC0000
0003FC0000
0003FE0000
0007FF0000
000FDF0000
000F8F8000
001F07C000
003E03C000
003C03E000
007801F000
0000000000
0000000000
0000000000
0000000000
FC000001F8
FC000001F8
FC000001F8
FC000001F8
FC000001F8
FC000001F8
FC000001F8
FC000001F8
FC000001F8
FC000001F8
FC000001F8
FC000001F8
FC000001F8
FC000001F8
FC000001F8
FC000001F8
FC000001F8
FC000001F8
FC000001F8
FC000001F8
FC000001F8
FC000001F8
FC000001F8
FC000001F8
FC000001F8
FC000001F8
FC000001F8
FC000001F8
FC000001F8
FC000001F8
FC000001F8
FC000001F8
FC000001F8
FC000001F8
FC000001F8
FC000001F8
FC000001F8
FC000001F8
FC000003F8
FE000003F0
7E000007F0
7F000007F0
7F80000FE0
3FC0003FE0
1FF000FFC0
0FFFDFFF80
07FFFFFF00
03FFFFFE00
01FFFFF800
003FFFE000
0007FE0000
ENDCHAR
STARTCHAR 00DC
ENCODING 220
SWIDTH 720 0
DWIDTH 48 0
BBX 37 63 6 -2
BITMAP
007F0FE000
007F0FE000
007F0FE000
007F0FE000
007F0FE000
007F0FE000
007F0FE000
0000000000
0000000000
0000000000
0000000000
0000000000
FC000001F8
FC000001F8
FC000001F8
FC000001F8
FC000001F8
FC000001F8
FC000001F8
FC000001F8
FC000001F8
FC000001F8
FC000001F8
FC000001F8
FC000001F8
FC000001F8
FC000001F8
FC000001F8
FC000001F8
FC000001F8
FC000001F8
FC000001F8
FC000001F8
FC000001F8
FC000001F8
FC000001F8
FC000001F8
FC000001F8
FC000001F8
FC000001F8
FC000001F8
FC000001F8
FC000001F8
FC000001F8
FC000001F8
FC000001F8
FC000001F8
FC000001F8
FC000001F8
FC000001F8
FC000003F8
FE000003F0
7E000007F0
7F000007F0
7F80000FE0
3FC0003FE0
1FF000FFC0
0FFFDFFF80
07FFFFFF00
03FFFFFE00
01FFFFF800
003FFFE000
0007FE0000
ENDCHAR
STARTCHAR 00DD
ENCODING 221
SWIDTH 660 0
DWIDTH 44 0
BBX 43 63 1 0
BITMAP
000001FC0000
000003F80000
000003F00000
000007E00000
00000FC00000
00000F800000
00001F000000
00003E000000
00003C000000
000078000000
000000000000
000000000000
000000000000
000000000000
FF0000001FE0
7F0000001FC0
7F8000003F80
3FC000003F80
1FC000007F00
1FE00000FF00
0FE00000FE00
07F00001FC00
07F80001FC00
03F80003F800
03FC0007F800
01FC0007F000
00FE000FE000
00FF000FE000
007F001FC000
003F801F8000
003F803F8000
001FC07F0000
001FE07F0000
000FE0FE0000
0007F0FC0000
0007F1FC0000
0003F9F80000
0001FFF80000
0001FFF00000
0000FFE00000
0000FFE00000
00007FC00000
00003FC00000
00003F800000
00001F800000
00001F800000
00001F800000
00001F800000
00001F800000
00001F800000
00001F800000
00001F800000
00001F800000
00001F800000
00001F800000
00001F800000
00001F800000
00001F800000
00001F800000
00001F800000
00001F800000
00001F800000
00001F800000
ENDCHAR
STARTCHAR 00DE
ENCODING 222
SWIDTH 660 0
DWIDTH 44 0
BBX 35 49 6 0
BITMAP
FC00000000
FC00000000
FC00000000
FC00000000
FC00000000
FC00000000
FC00000000
FC00000000
FFFFFF8000
FFFFFFF000
FFFFFFFC00
FFFFFFFE00
FFFFFFFF00
FC000FFF80
FC0000FF80
FC00003FC0
FC00001FC0
FC00001FC0
FC00000FE0
FC00000FE0
FC00000FE0
FC00000FE0
FC00000FE0
FC00000FE0
FC00000FE0
FC00000FE0
FC00000FE0
FC00001FC0
FC00003FC0
FC00007F80
FC0001FF80
FFFFFFFF00
FFFFFFFE00
FFFFFFFC00
FFFFFFF800
FFFFFFE000
FC00000000
FC00000000
FC00000000
FC00000000
FC00000000
FC00000000
FC00000000
FC00000000
FC00000000
FC00000000
FC00000000
FC00000000
FC00000000
ENDCHAR
STARTCHAR 00DF
ENCODING 223
SWIDTH 615 0
DWIDTH 41 0
BBX 32 50 5 -1
BITMAP
001FF000
01FFFE00
07FFFF80
0FFFFFC0
1FFFFFE0
3FF07FF0
7F800FF0
7E0003F8
FE0003F8
FC0001F8
FC0000FC
F80000FC
F80000FC
F80000FC
F80000F8
F80001F8
F80001F8
F80003F0
F8000FE0
F8003FC0
F807FF80
F807FC00
F807FE00
F807FFC0
F807FFE0
F8007FF0
F80003F8
F80001FC
F80000FE
F800007E
F800007F
F800003F
F800003F
F800003F
F800003F
F800003F
F800003F
F800003F
F800007F
F800007E
F80000FE
F80001FE
F80003FC
F8000FF8
F800FFF8
F80FFFF0
F80FFFE0
F80FFF80
F80FFE00
000FF000
ENDCHAR
STARTCHAR 00E0
ENCODING 224
SWIDTH 555 0
DWIDTH 37 0
BBX 33 52 3 -2
BITMAP
01FC000000
00FE000000
007E000000
007F000000
003F000000
001F800000
000FC00000
0007C00000
0003E00000
0001F00000
0000000000
0000000000
0000000000
0000000000
001FF00000
00FFFF0000
03FFFF8000
0FFFFFC000
1FFFFFE000
1FF03FF000
3F8007F000
3F0003F000
3F0001F000
3E0001F000
7E0001F000
000001F000
000001F000
000001F000
000003F000
00001FF000
0007FFF000
01FFFFF000
07FFFFF000
1FFFFDF000
3FFF81F000
3FE001F000
7F0001F000
7E0001F000
FC0001F000
FC0001F000
FC0001F000
FC0001F000
FC0003F000
FC0007F000
FC000FF000
FE001FF800
7F807FF800
7FFFFDFF80
3FFFF9FF80
1FFFF0FF80
07FFC07F80
01FE003F00
ENDCHAR
STARTCHAR 00E1
ENCODING 225
SWIDTH 555 0
DWIDTH 37 0
BBX 33 52 3 -2
BITMAP
00007F0000
0000FE0000
0000FC0000
0001F80000
0003F00000
0003E00000
0007C00000
0007800000
000F800000
001F000000
0000000000
0000000000
0000000000
0000000000
001FF00000
00FFFF0000
03FFFF8000
0FFFFFC000
1FFFFFE000
1FF03FF000
3F8007F000
3F0003F000
3F0001F000
3E0001F000
7E0001F000
000001F000
000001F000
000001F000
000003F000
00001FF000
0007FFF000
01FFFFF000
07FFFFF000
1FFFFDF000
3FFF81F000
3FE001F000
7F0001F000
7E0001F000
FC0001F000
FC0001F000
FC0001F000
FC0001F000
FC0003F000
FC0007F000
FC000FF000
FE001FF800
7F807FF800
7FFFFDFF80
3FFFF9FF80
1FFFF0FF80
07FFC07F80
01FE003F00
ENDCHAR
STARTCHAR 00E2
ENCODING 226
SWIDTH 555 0
DWIDTH 37 0
BBX 33 52 3 -2
BITMAP
000FE00000
001FE00000
001FF00000
003FF80000
007EF80000
007C7C0000
00F83E0000
00F03E0000
01F01F0000
03E00F0000
0000000000
0000000000
0000000000
0000000000
001FF00000
00FFFF0000
03FFFF8000
0FFFFFC000
1FFFFFE000
1FF03FF000
3F8007F000
3F0003F000
3F0001F000
3E0001F000
7E0001F000
000001F000
000001F000
000001F000
000003F000
00001FF000
0007FFF000
01FFFFF000
07FFFFF000
1FFFFDF000
3FFF81F000
3FE001F000
7F0001F000
7E0001F000
FC0001F000
FC0001F000
FC0001F000
FC0001F000
FC0003F000
FC0007F000
FC000FF000
FE001FF800
7F807FF800
7FFFFDFF80
3FFFF9FF80
1FFFF0FF80
07FFC07F80
01FE003F00
ENDCHAR
STARTCHAR 00E3
ENCODING 227
SWIDTH 555 0
DWIDTH 37 0
BBX 33 50 3 -2
BITMAP
007803C000
01FF07C000
03FFFF8000
03FFFF8000
07FFFF0000
0781FF0000
07807C0000
0000000000
0000000000
0000000000
0000000000
0000000000
001FF00000
00FFFF0000
03FFFF8000
0FFFFFC000
1FFFFFE000
1FF03FF000
3F8007F000
3F0003F000
3F0001F000
3E0001F000
7E0001F000
000001F000
000001F000
000001F000
000003F000
00001FF000
0007FFF000
01FFFFF000
07FFFFF000
1FFFFDF000
3FFF81F000
3FE001F000
7F0001F000
7E0001F000
FC0001F000
FC0001F000
FC0001F000
FC0001F000
FC0003F000
FC0007F000
FC000FF000
FE001FF800
7F807FF800
7FFFFDFF80
3FFFF9FF80
1FFFF0FF80
07FFC07F80
01FE003F00
ENDCHAR
STARTCHAR 00E4
ENCODING 228
SWIDTH 555 0
DWIDTH 37 0
BBX 33 50 3 -2
BITMAP
03F87F0000
03F87F0000
03F87F0000
03F87F0000
03F87F0000
03F87F0000
03F87F0000
0000000000
0000000000
0000000000
0000000000
0000000000
001FF00000
00FFFF0000
03FFFF8000
0FFFFFC000
1FFFFFE000
1FF03FF000
3F8007F000
3F0003F000
3F0001F000
3E0001F000
7E0001F000
000001F000
000001F000
000001F000
000003F000
00001FF000
0007FFF000
01FFFFF000
07FFFFF000
1FFFFDF000
3FFF81F000
3FE001F000
7F0001F000
7E0001F000
FC0001F000
FC0001F000
FC0001F000
FC0001F000
FC0003F000
FC0007F000
FC000FF000
FE001FF800
7F807FF800
7FFFFDFF80
3FFFF9FF80
1FFFF0FF80
07FFC07F80
01FE003F00
ENDCHAR
STARTCHAR 00E5
ENCODING 229
SWIDTH 555 0
DWIDTH 37 0
BBX 33 52 3 -2
BITMAP
0007C00000
001FE00000
001FF00000
003C780000
0038380000
0070380000
0038380000
003C780000
003FF00000
001FE00000
0007C00000
0000000000
0000000000
0000000000
001FF00000
00FFFF0000
03FFFF8000
0FFFFFC000
1FFFFFE000
1FF03FF000
3F8007F000
3F0003F000
3F0001F000
3E0001F000
7E0001F000
000001F000
000001F000
000001F000
000003F000
00001FF000
0007FFF000
01FFFFF000
07FFFFF000
1FFFFDF000
3FFF81F000
3FE001F000
7F0001F000
7E0001F000
FC0001F000
FC0001F000
FC0001F000
FC0001F000
FC0003F000
FC0007F000
FC000FF000
FE001FF800
7F807FF800
7FFFFDFF80
3FFFF9FF80
1FFFF0FF80
07FFC07F80
01FE003F00
ENDCHAR
STARTCHAR 00E6
ENCODING 230
SWIDTH 885 0
DWIDTH 59 0
BBX 54 38 2 -2
BITMAP
001FF0001FE000
00FFFE00FFFC00
03FFFF83FFFF00
07FFFFC7FFFF80
0FFFFFEFFFFFC0
1FF01FFFF07FE0
1FC007FFC00FF0
3F8003FF0007F0
3F0001FE0003F8
3F0001FE0001F8
3F0001FC0001F8
000001FC0000FC
000001F80000FC
000001F80000FC
000001F80000FC
000007F80000FC
0007FFFFFFFFFC
00FFFFFFFFFFFC
07FFFFFFFFFFFC
0FFFFDFFFFFFFC
1FFF81FFFFFFFC
3FE001F8000000
7F8001F8000000
7F0001F8000000
7E0001F8000000
FC0001F8000000
FC0001FC0000FC
FC0001FC0001F8
FC0003FE0001F8
FC0007FE0003F8
7E000FFF0007F0
7F001FBFC00FF0
7F807F1FF03FE0
3FFFFE0FFFFFC0
1FFFFC07FFFF80
0FFFF003FFFF00
07FFC000FFFC00
00FF00001FE000
ENDCHAR
STARTCHAR 00E7
ENCODING 231
SWIDTH 495 0
DWIDTH 33 0
BBX 30 50 2 -14
BITMAP
000FF000
007FFE00
01FFFF00
03FFFFC0
07FFFFE0
0FF83FE0
1FE00FF0
1FC003F0
3F8003F8
3F0001F8
7F0001F8
7E0000F8
7E0000F8
7C000000
FC000000
FC000000
FC000000
FC000000
FC000000
FC000000
FC000000
FC000000
FC000000
FC000000
7E0000FC
7E0000FC
7E0000FC
7F0001F8
3F0001F8
3F8003F8
1FC007F0
1FF00FF0
0FFFFFE0
07FFFFC0
03FFFF80
00FFFE00
003FF800
00070000
000E0000
000E0000
000FF000
001FF800
0000FC00
00007C00
00007C00
01007C00
03C0F800
07FFF800
01FFE000
003F8000
ENDCHAR
STARTCHAR 00E8
ENCODING 232
SWIDTH 555 0
DWIDTH 37 0
BBX 31 52 3 -2
BITMAP
01FC0000
00FE0000
007E0000
003F0000
001F8000
000F8000
0007C000
0007C000
0003E000
0001F000
00000000
00000000
00000000
00000000
000FF000
007FFE00
01FFFF00
03FFFFC0
07FFFFE0
0FF83FF0
1FE007F0
3F8003F8
3F0001FC
7F0001FC
7E0000FC
7E0000FE
FC00007E
FC00007E
FC00007E
FC00007E
FFFFFFFE
FFFFFFFE
FFFFFFFE
FFFFFFFE
FFFFFFFE
FC000000
FC000000
FC000000
FC000000
FC000000
7C00007C
7E0000FC
7F0000FC
3F0001F8
3F8003F8
1FE007F0
1FF83FF0
0FFFFFE0
07FFFFC0
01FFFF00
00FFFE00
001FF000
ENDCHAR
STARTCHAR 00E9
ENCODING 233
SWIDTH 555 0
DWIDTH 37 0
BBX 31 52 3 -2
BITMAP
00007F80
00007F00
0000FE00
0001FC00
0001F800
0003F000
0007E000
0007C000
000F8000
000F0000
00000000
00000000
00000000
00000000
000FF000
007FFE00
01FFFF00
03FFFFC0
07FFFFE0
0FF83FF0
1FE007F0
3F8003F8
3F0001FC
7F0001FC
7E0000FC
7E0000FE
FC00007E
FC00007E
FC00007E
FC00007E
FFFFFFFE
FFFFFFFE
FFFFFFFE
FFFFFFFE
FFFFFFFE
FC000000
FC000000
FC000000
FC000000
FC000000
7C00007C
7E0000FC
7F0000FC
3F0001F8
3F8003F8
1FE007F0
1FF83FF0
0FFFFFE0
07FFFFC0
01FFFF00
00FFFE00
001FF000
ENDCHAR
STARTCHAR 00EA
ENCODING 234
SWIDTH 555 0
DWIDTH 37 0
BBX 31 52 3 -2
BITMAP
0007F000
000FF000
001FF800
001FF800
003E7C00
003E7E00
007C3E00
00F81F00
00F00F80
01F00780
00000000
00000000
00000000
00000000
000FF000
007FFE00
01FFFF00
03FFFFC0
07FFFFE0
0FF83FF0
1FE007F0
3F8003F8
3F0001FC
7F0001FC
7E0000FC
7E0000FE
FC00007E
FC00007E
FC00007E
FC00007E
FFFFFFFE
FFFFFFFE
FFFFFFFE
FFFFFFFE
FFFFFFFE
FC000000
FC000000
FC000000
FC000000
FC000000
7C00007C
7E0000FC
7F0000FC
3F0001F8
3F8003F8
1FE007F0
1FF83FF0
0FFFFFE0
07FFFFC0
01FFFF00
00FFFE00
001FF000
ENDCHAR
STARTCHAR 00EB
ENCODING 235
SWIDTH 555 0
DWIDTH 37 0
BBX 31 50 3 -2
BITMAP
01FC3F80
01FC3F80
01FC3F80
01FC3F80
01FC3F80
01FC3F80
01FC3F80
00000000
00000000
00000000
00000000
00000000
000FF000
007FFE00
01FFFF00
03FFFFC0
07FFFFE0
0FF83FF0
1FE007F0
3F8003F8
3F0001FC
7F0001FC
7E0000FC
7E0000FE
FC00007E
FC00007E
FC00007E
FC00007E
FFFFFFFE
FFFFFFFE
FFFFFFFE
FFFFFFFE
FFFFFFFE
FC000000
FC000000
FC000000
FC000000
FC000000
7C00007C
7E0000FC
7F0000FC
3F0001F8
3F8003F8
1FE007F0
1FF83FF0
0FFFFFE0
07FFFFC0
01FFFF00
00FFFE00
001FF000
ENDCHAR
STARTCHAR 00EC
ENCODING 236
SWIDTH 285 0
DWIDTH 19 0
BBX 13 50 0 0
BITMAP
FF00
7F00
3F80
1F80
0FC0
07E0
03E0
01F0
00F8
0078
0000
0000
0000
0000
0000
03F0
03F0
03F0
03F0
03F0
03F0
03F0
03F0
03F0
03F0
03F0
03F0
03F0
03F0
03F0
03F0
03F0
03F0
03F0
03F0
03F0
03F0
03F0
03F0
03F0
03F0
03F0
03F0
03F0
03F0
03F0
03F0
03F0
03F0
03F0
ENDCHAR
STARTCHAR 00ED
ENCODING 237
SWIDTH 285 0
DWIDTH 19 0
BBX 13 50 5 0
BITMAP
07F8
07F0
0FE0
0FC0
1F80
3F00
3E00
7C00
F800
F000
0000
0000
0000
0000
0000
7E00
7E00
7E00
7E00
7E00
7E00
7E00
7E00
7E00
7E00
7E00
7E00
7E00
7E00
7E00
7E00
7E00
7E00
7E00
7E00
7E00
7E00
7E00
7E00
7E00
7E00
7E00
7E00
7E00
7E00
7E00
7E00
7E00
7E00
7E00
ENDCHAR
STARTCHAR 00EE
ENCODING 238
SWIDTH 285 0
DWIDTH 19 0
BBX 18 50 0 0
BITMAP
03F800
07F800
0FFC00
0FFC00
1F3E00
1F3F00
3E1F00
7C0F80
7807C0
F003C0
000000
000000
000000
000000
000000
03F000
03F000
03F000
03F000
03F000
03F000
03F000
03F000
03F000
03F000
03F000
03F000
03F000
03F000
03F000
03F000
03F000
03F000
03F000
03F000
03F000
03F000
03F000
03F000
03F000
03F000
03F000
03F000
03F000
03F000
03F000
03F000
03F000
03F000
03F000
ENDCHAR
STARTCHAR 00EF
ENCODING 239
SWIDTH 285 0
DWIDTH 19 0
BBX 18 47 0 0
BITMAP
FE1FC0
FE1FC0
FE1FC0
FE1FC0
FE1FC0
FE1FC0
FE1FC0
000000
000000
000000
000000
000000
03F000
03F000
03F000
03F000
03F000
03F000
03F000
03F000
03F000
03F000
03F000
03F000
03F000
03F000
03F000
03F000
03F000
03F000
03F000
03F000
03F000
03F000
03F000
03F000
03F000
03F000
03F000
03F000
03F000
03F000
03F000
03F000
03F000
03F000
03F000
ENDCHAR
STARTCHAR 00F0
ENCODING 240
SWIDTH 555 0
DWIDTH 37 0
BBX 32 52 2 -2
BITMAP
03000000
07C00800
0FF03C00
07F8FE00
03FFFC00
00FFF000
007F8000
01FFE000
07FFF000
0FE7F800
0781FC00
0200FE00
00007F00
00003F80
001FDFC0
007FFFC0
01FFFFE0
03FFFFF0
07FFFFF0
0FF81FF8
1FE007F8
1FC003FC
3F8001FC
3F0000FE
3F00007E
7E00007E
7E00007E
7E00003F
7E00003F
7C00003F
7C00003F
FC00003F
FC00003F
FC00003F
FC00003F
7C00003F
7C00003F
7E00003F
7E00003F
7E00007E
7F00007E
3F00007E
3F8000FC
3F8001FC
1FC003FC
1FE007F8
0FFC1FF0
07FFFFF0
03FFFFC0
01FFFF80
007FFE00
000FF800
ENDCHAR
STARTCHAR 00F1
ENCODING 241
SWIDTH 555 0
DWIDTH 37 0
BBX 27 48 5 0
BITMAP
01E00F00
07FC0F00
07FFFF00
0FFFFE00
0FFFFE00
1F07FC00
1E01F000
00000000
00000000
00000000
00000000
00000000
000FF000
F83FFE00
F87FFF00
F9FFFF80
F9FFFFC0
FBE03FE0
FFC00FE0
FF0007E0
FF0007E0
FE0003E0
FC0003E0
FC0003E0
FC0003E0
FC0003E0
F80003E0
F80003E0
F80003E0
F80003E0
F80003E0
F80003E0
F80003E0
F80003E0
F80003E0
F80003E0
F80003E0
F80003E0
F80003E0
F80003E0
F80003E0
F80003E0
F80003E0
F80003E0
F80003E0
F80003E0
F80003E0
F80003E0
ENDCHAR
STARTCHAR 00F2
ENCODING 242
SWIDTH 555 0
DWIDTH 37 0
BBX 32 52 2 -2
BITMAP
01FE0000
00FE0000
007F0000
003F8000
001F8000
000FC000
0007C000
0003E000
0001F000
0000F000
00000000
00000000
00000000
00000000
000FF800
007FFF00
01FFFF80
03FFFFE0
07FFFFF0
0FFC1FF0
0FE007F8
1FC003FC
3F8001FC
3F0000FC
3F00007E
7E00007E
7E00007E
7E00003F
7E00003F
7C00003F
7C00003F
FC00003F
FC00003F
FC00003F
FC00003F
7C00003F
7C00003F
7E00003F
7E00003F
7E00007E
7F00007E
3F00007E
3F0000FC
3F8001FC
1FC003FC
1FE007F8
0FFC1FF0
07FFFFE0
03FFFFC0
01FFFF80
007FFE00
000FF000
ENDCHAR
STARTCHAR 00F3
ENCODING 243
SWIDTH 555 0
DWIDTH 37 0
BBX 32 52 2 -2
BITMAP
00003F80
00007F00
0000FE00
0000FC00
0001F800
0003F000
0003E000
0007C000
00078000
000F0000
00000000
00000000
00000000
00000000
000FF800
007FFF00
01FFFF80
03FFFFE0
07FFFFF0
0FFC1FF0
0FE007F8
1FC003FC
3F8001FC
3F0000FC
3F00007E
7E00007E
7E00007E
7E00003F
7E00003F
7C00003F
7C00003F
FC00003F
FC00003F
FC00003F
FC00003F
7C00003F
7C00003F
7E00003F
7E00003F
7E00007E
7F00007E
3F00007E
3F0000FC
3F8001FC
1FC003FC
1FE007F8
0FFC1FF0
07FFFFE0
03FFFFC0
01FFFF80
007FFE00
000FF000
ENDCHAR
STARTCHAR 00F4
ENCODING 244
SWIDTH 555 0
DWIDTH 37 0
BBX 32 52 2 -2
BITMAP
0007F000
000FF000
000FF800
001FFC00
003F7C00
003E3E00
007C3E00
00F81F00
00F00F80
01F00780
00000000
00000000
00000000
00000000
000FF800
007FFF00
01FFFF80
03FFFFE0
07FFFFF0
0FFC1FF0
0FE007F8
1FC003FC
3F8001FC
3F0000FC
3F00007E
7E00007E
7E00007E
7E00003F
7E00003F
7C00003F
7C00003F
FC00003F
FC00003F
FC00003F
FC00003F
7C00003F
7C00003F
7E00003F
7E00003F
7E00007E
7F00007E
3F00007E
3F0000FC
3F8001FC
1FC003FC
1FE007F8
0FFC1FF0
07FFFFE0
03FFFFC0
01FFFF80
007FFE00
000FF000
ENDCHAR
STARTCHAR 00F5
ENCODING 245
SWIDTH 555 0
DWIDTH 37 0
BBX 32 50 2 -2
BITMAP
003C01E0
00FF83E0
00FFFFC0
01FFFFC0
01FFFF80
03C0FF80
03C03E00
00000000
00000000
00000000
00000000
00000000
000FF800
007FFF00
01FFFF80
03FFFFE0
07FFFFF0
0FFC1FF0
0FE007F8
1FC003FC
3F8001FC
3F0000FC
3F00007E
7E00007E
7E00007E
7E00003F
7E00003F
7C00003F
7C00003F
FC00003F
FC00003F
FC00003F
FC00003F
7C00003F
7C00003F
7E00003F
7E00003F
7E00007E
7F00007E
3F00007E
3F0000FC
3F8001FC
1FC003FC
1FE007F8
0FFC1FF0
07FFFFE0
03FFFFC0
01FFFF80
007FFE00
000FF000
ENDCHAR
STARTCHAR 00F6
ENCODING 246
SWIDTH 555 0
DWIDTH 37 0
BBX 32 50 2 -2
BITMAP
01FC3F80
01FC3F80
01FC3F80
01FC3F80
01FC3F80
01FC3F80
01FC3F80
00000000
00000000
00000000
00000000
00000000
000FF800
007FFF00
01FFFF80
03FFFFE0
07FFFFF0
0FFC1FF0
0FE007F8
1FC003FC
3F8001FC
3F0000FC
3F00007E
7E00007E
7E00007E
7E00003F
7E00003F
7C00003F
7C00003F
FC00003F
FC00003F
FC00003F
FC00003F
7C00003F
7C00003F
7E00003F
7E00003F
7E00007E
7F00007E
3F00007E
3F0000FC
3F8001FC
1FC003FC
1FE007F8
0FFC1FF0
07FFFFE0
03FFFFC0
01FFFF80
007FFE00
000FF000
ENDCHAR
STARTCHAR 00F7
ENCODING 247
SWIDTH 585 0
DWIDTH 39 0
BBX 33 31 3 0
BITMAP
0007F00000
0007F00000
0007F00000
0007F00000
0007F00000
0007F00000
0007F00000
0000000000
0000000000
0000000000
0000000000
0000000000
0000000000
FFFFFFFF80
FFFFFFFF80
FFFFFFFF80
FFFFFFFF80
FFFFFFFF80
0000000000
0000000000
0000000000
0000000000
0000000000
0000000000
0007F00000
0007F00000
0007F00000
0007F00000
0007F00000
0007F00000
0007F00000
ENDCHAR
STARTCHAR 00F8
ENCODING 248
SWIDTH 615 0
DWIDTH 41 0
BBX 34 38 1 -2
BITMAP
0007FC0080
003FFF01C0
00FFFFC3C0
01FFFFE780
03FFFFFF00
07FE0FFE00
07F003FC00
0FE001FE00
1FC000FE00
1F8000FE00
1F8001FF00
3F0003FF00
3F0007BF00
3F000F1F80
3F001E1F80
3E001C1F80
3E00381F80
7E00781F80
7E00F01F80
7E01E01F80
7E03C01F80
7E07801F80
3E0F001F80
3F0E001F80
3F1E001F80
3F3C003F00
3F78003F00
1FF0003F00
1FE0007E00
1FC000FE00
0FE001FE00
0FF003FC00
0FFE0FF800
1FFFFFF000
3DFFFFE000
78FFFFC000
F03FFF0000
6007F80000
ENDCHAR
STARTCHAR 00F9
ENCODING 249
SWIDTH 555 0
DWIDTH 37 0
BBX 28 52 4 -2
BITMAP
07F80000
03F80000
01FC0000
00FC0000
007E0000
003F0000
001F0000
000F8000
0007C000
0003C000
00000000
00000000
00000000
00000000
00000000
FC0001F0
FC0001F0
FC0001F0
FC0001F0
FC0001F0
FC0001F0
FC0001F0
FC0001F0
FC0001F0
FC0001F0
FC0001F0
FC0001F0
FC0001F0
FC0001F0
FC0001F0
FC0001F0
FC0001F0
FC0001F0
FC0001F0
FC0001F0
FC0001F0
FC0001F0
FC0003F0
FC0003F0
FC0003F0
FC0003F0
FC0007F0
FC0007F0
FE000FF0
7E001FF0
7F003FF0
7FC0FDF0
3FFFF9F0
3FFFF1F0
1FFFE1F0
07FF8000
01FC0000
ENDCHAR
STARTCHAR 00FA
ENCODING 250
SWIDTH 555 0
DWIDTH 37 0
BBX 28 52 4 -2
BITMAP
0001FE00
0001FC00
0003F800
0007F000
0007E000
000FC000
000F8000
001F0000
003E0000
003C0000
00000000
00000000
00000000
00000000
00000000
FC0001F0
FC0001F0
FC0001F0
FC0001F0
FC0001F0
FC0001F0
FC0001F0
FC0001F0
FC0001F0
FC0001F0
FC0001F0
FC0001F0
FC0001F0
FC0001F0
FC0001F0
FC0001F0
FC0001F0
FC0001F0
FC0001F0
FC0001F0
FC0001F0
FC0001F0
FC0003F0
FC0003F0
FC0003F0
FC0003F0
FC0007F0
FC0007F0
FE000FF0
7E001FF0
7F003FF0
7FC0FDF0
3FFFF9F0
3FFFF1F0
1FFFE1F0
07FF8000
01FC0000
ENDCHAR
STARTCHAR 00FB
ENCODING 251
SWIDTH 555 0
DWIDTH 37 0
BBX 28 52 4 -2
BITMAP
001FC000
003FC000
003FE000
007FF000
00FDF000
00F8F800
01F07C00
03E07C00
03C03E00
07C01E00
00000000
00000000
00000000
00000000
00000000
FC0001F0
FC0001F0
FC0001F0
FC0001F0
FC0001F0
FC0001F0
FC0001F0
FC0001F0
FC0001F0
FC0001F0
FC0001F0
FC0001F0
FC0001F0
FC0001F0
FC0001F0
FC0001F0
FC0001F0
FC0001F0
FC0001F0
FC0001F0
FC0001F0
FC0001F0
FC0003F0
FC0003F0
FC0003F0
FC0003F0
FC0007F0
FC0007F0
FE000FF0
7E001FF0
7F003FF0
7FC0FDF0
3FFFF9F0
3FFFF1F0
1FFFE1F0
07FF8000
01FC0000
ENDCHAR
STARTCHAR 00FC
ENCODING 252
SWIDTH 555 0
DWIDTH 37 0
BBX 28 50 4 -2
BITMAP
07F0FE00
07F0FE00
07F0FE00
07F0FE00
07F0FE00
07F0FE00
07F0FE00
00000000
00000000
00000000
00000000
00000000
00000000
FC0001F0
FC0001F0
FC0001F0
FC0001F0
FC0001F0
FC0001F0
FC0001F0
FC0001F0
FC0001F0
FC0001F0
FC0001F0
FC0001F0
FC0001F0
FC0001F0
FC0001F0
FC0001F0
FC0001F0
FC0001F0
FC0001F0
FC0001F0
FC0001F0
FC0001F0
FC0003F0
FC0003F0
FC0003F0
FC0003F0
FC0007F0
FC0007F0
FE000FF0
7E001FF0
7F003FF0
7FC0FDF0
3FFFF9F0
3FFFF1F0
1FFFE1F0
07FF8000
01FC0000
ENDCHAR
STARTCHAR 00FD
ENCODING 253
SWIDTH 495 0
DWIDTH 33 0
BBX 31 64 1 -14
BITMAP
00007F00
0000FE00
0000FC00
0001F800
0003F000
0003E000
0007C000
000F8000
000F0000
001E0000
00000000
00000000
00000000
00000000
00000000
FC00007E
7E0000FC
7E0000FC
7E0000FC
3F0001F8
3F0001F8
1F0001F0
1F8003F0
1F8003F0
0F8007E0
0FC007E0
0FC007E0
07C00FC0
07E00FC0
07E00FC0
03E01F80
03F01F80
03F01F00
01F03F00
01F83F00
01F83E00
00F87E00
00FC7E00
00FC7C00
007CFC00
007EF800
007FF800
003FF800
003FF000
003FF000
001FF000
001FE000
001FE000
000FE000
000FC000
000FC000
000F8000
001F8000
001F8000
003F0000
003F0000
003F0000
007E0000
00FE0000
1FFC0000
1FFC0000
1FF80000
1FF00000
1FC00000
ENDCHAR
STARTCHAR 00FE
ENCODING 254
SWIDTH 555 0
DWIDTH 37 0
BBX 31 63 4 -15
BITMAP
F8000000
F8000000
F8000000
F8000000
F8000000
F8000000
F8000000
F8000000
F8000000
F8000000
F8000000
F8000000
F80FF000
F83FFC00
F8FFFF00
F9FFFF80
FBFFFFC0
FFF87FE0
FFC01FF0
FF8007F0
FF0003F8
FE0001F8
FE0001FC
FC0000FC
FC0000FC
FC0000FC
FC00007E
F800007E
F800007E
F800007E
F800007E
F800007E
F800007E
F800007E
F800007E
FC00007E
FC0000FC
FC0000FC
FC0000FC
FE0001FC
FE0001F8
FF0003F8
FF8007F0
FFC00FF0
FFF87FE0
FBFFFFC0
F9FFFF80
F8FFFF00
F87FFC00
F80FF000
F8000000
F8000000
F8000000
F8000000
F8000000
F8000000
F8000000
F8000000
F8000000
F8000000
F8000000
F8000000
F8000000
ENDCHAR
STARTCHAR 00FF
ENCODING 255
SWIDTH 495 0
DWIDTH 33 0
BBX 31 62 1 -14
BITMAP
01F87F00
01F87F00
01F87F00
01F87F00
01F87F00
01F87F00
01F87F00
00000000
00000000
00000000
00000000
00000000
00000000
FC00007E
7E0000FC
7E0000FC
7E0000FC
3F0001F8
3F0001F8
1F0001F0
1F8003F0
1F8003F0
0F8007E0
0FC007E0
0FC007E0
07C00FC0
07E00FC0
07E00FC0
03E01F80
03F01F80
03F01F00
01F03F00
01F83F00
01F83E00
00F87E00
00FC7E00
00FC7C00
007CFC00
007EF800
007FF800
003FF800
003FF000
003FF000
001FF000
001FE000
001FE000
000FE000
000FC000
000FC000
000F8000
001F8000
001F8000
003F0000
003F0000
003F0000
007E0000
00FE0000
1FFC0000
1FFC0000
1FF80000
1FF00000
1FC00000
ENDCHAR
STARTCHAR 0100
ENCODING 256
SWIDTH 660 0
DWIDTH 44 0
BBX 42 61 1 0
BITMAP
000FFFFC0000
000FFFFC0000
000FFFFC0000
000FFFFC0000
000FFFFC0000
000000000000
000000000000
000000000000
000000000000
000000000000
000000000000
000000000000
00007FC00000
00007FC00000
00007FC00000
0000FFE00000
0000FFE00000
0000FFE00000
0001FFF00000
0001FBF00000
0003FBF00000
0003F3F80000
0003F1F80000
0007F1F80000
0007E1FC0000
0007E0FC0000
000FE0FE0000
000FC0FE0000
000FC07E0000
001FC07F0000
001F807F0000
001F803F0000
003F003F8000
003F003F8000
003F001F8000
007E001FC000
007E001FC000
00FE000FC000
00FC000FE000
00FC000FE000
01FC0007E000
01FFFFFFF000
01FFFFFFF000
03FFFFFFF000
03FFFFFFF800
03FFFFFFF800
07F00001F800
07E00001FC00
07E00001FC00
0FE00000FE00
0FC00000FE00
1FC00000FE00
1FC000007F00
1F8000007F00
3F8000007F00
3F8000003F80
3F0000003F80
7F0000003F80
7F0000001FC0
7E0000001FC0
FE0000001FC0
ENDCHAR
STARTCHAR 0101
ENCODING 257
SWIDTH 555 0
DWIDTH 37 0
BBX 33 49 3 -2
BITMAP
03FFFF0000
03FFFF0000
03FFFF0000
03FFFF0000
03FFFF0000
0000000000
0000000000
0000000000
0000000000
0000000000
0000000000
001FF00000
00FFFF0000
03FFFF8000
0FFFFFC000
1FFFFFE000
1FF03FF000
3F8007F000
3F0003F000
3F0001F000
3E0001F000
7E0001F000
000001F000
000001F000
000001F000
000003F000
00001FF000
0007FFF000
01FFFFF000
07FFFFF000
1FFFFDF000
3FFF81F000
3FE001F000
7F0001F000
7E0001F000
FC0001F000
FC0001F000
FC0001F000
FC0001F000
FC0003F000
FC0007F000
FC000FF000
FE001FF800
7F807FF800
7FFFFDFF80
3FFFF9FF80
1FFFF0FF80
07FFC07F80
01FE003F00
ENDCHAR
STARTCHAR 0102
ENCODING 258
SWIDTH 660 0
DWIDTH 44 0
BBX 42 62 1 0
BITMAP
001E001E0000
001F001E0000
000F803E0000
000FC0FE0000
000FFFFC0000
0007FFF80000
0003FFF00000
0000FFE00000
00000E000000
000000000000
000000000000
000000000000
000000000000
00007FC00000
00007FC00000
00007FC00000
0000FFE00000
0000FFE00000
0000FFE00000
0001FFF00000
0001FBF00000
0003FBF00000
0003F3F80000
0003F1F80000
0007F1F80000
0007E1FC0000
0007E0FC0000
000FE0FE0000
000FC0FE0000
000FC07E0000
001FC07F0000
001F807F0000
001F803F0000
003F003F8000
003F003F8000
003F001F8000
007E001FC000
007E001FC000
00FE000FC000
00FC000FE000
00FC000FE000
01FC0007E000
01FFFFFFF000
01FFFFFFF000
03FFFFFFF000
03FFFFFFF800
03FFFFFFF800
07F00001F800
07E00001FC00
07E00001FC00
0FE00000FE00
0FC00000FE00
1FC00000FE00
1FC000007F00
1F8000007F00
3F8000007F00
3F8000003F80
3F0000003F80
7F0000003F80
7F0000001FC0
7E0000001FC0
FE0000001FC0
ENDCHAR
STARTCHAR 0103
ENCODING 259
SWIDTH 555 0
DWIDTH 37 0
BBX 33 51 3 -2
BITMAP
0780078000
07C0078000
03C0078000
03E01F8000
03FFFF0000
01FFFF0000
00FFFE0000
007FF80000
001FE00000
0000000000
0000000000
0000000000
0000000000
001FF00000
00FFFF0000
03FFFF8000
0FFFFFC000
1FFFFFE000
1FF03FF000
3F8007F000
3F0003F000
3F0001F000
3E0001F000
7E0001F000
000001F000
000001F000
000001F000
000003F000
00001FF000
0007FFF000
01FFFFF000
07FFFFF000
1FFFFDF000
3FFF81F000
3FE001F000
7F0001F000
7E0001F000
FC0001F000
FC0001F000
FC0001F000
FC0001F000
FC0003F000
FC0007F000
FC000FF000
FE001FF800
7F807FF800
7FFFFDFF80
3FFFF9FF80
1FFFF0FF80
07FFC07F80
01FE003F00
ENDCHAR
STARTCHAR 0104
ENCODING 260
SWIDTH 660 0
DWIDTH 44 0
BBX 45 63 1 -14
BITMAP
00007FC00000
00007FC00000
00007FC00000
0000FFE00000
0000FFE00000
0000FFE00000
0001FFF00000
0001FBF00000
0003FBF00000
0003F3F80000
0003F1F80000
0007F1F80000
0007E1FC0000
0007E0FC0000
000FE0FE0000
000FC0FE0000
000FC07E0000
001FC07F0000
001F807F0000
001F803F0000
003F003F8000
003F003F8000
003F001F8000
007E001FC000
007E001FC000
00FE000FC000
00FC000FE000
00FC000FE000
01FC0007E000
01FFFFFFF000
01FFFFFFF000
03FFFFFFF000
03FFFFFFF800
03FFFFFFF800
07F00001F800
07E00001FC00
07E00001FC00
0FE00000FE00
0FC00000FE00
1FC00000FE00
1FC000007F00
1F8000007F00
3F8000007F00
3F8000003F80
3F0000003F80
7F0000003F80
7F0000001FC0
7E0000001FC0
FE0000001FC0
0000000007C0
000000001F00
000000003E00
000000007C00
00000000F800
00000000F000
00000001F000
00000001F000
00000001F000
00000000F800
00000000FC00
000000007FF8
000000003FF8
0000000007F0
ENDCHAR
STARTCHAR 0105
ENCODING 261
SWIDTH 555 0
DWIDTH 37 0
BBX 37 50 3 -14
BITMAP
001FF80000
00FFFF0000
03FFFF8000
0FFFFFC000
0FFFFFE000
1FF01FF000
3FC007F000
3F0003F000
3F0001F800
3E0001F800
3E0001F800
000001F800
000001F800
000001F800
000003F800
00001FF800
0007FFF800
00FFFFF800
07FFFFF800
0FFFFDF800
3FFF81F800
3FE001F800
7F0001F800
7E0001F800
FC0001F800
FC0001F800
FC0001F800
FC0001F800
FC0003F800
FC0007F800
FC000FF800
7E001FF800
7F807FF800
3FFFFDFF80
3FFFF8FF80
1FFFF0FF80
07FFC07F80
01FE003F80
0000001E00
0000007800
000000F800
000001F000
000001F000
000001F000
000001F000
000001F000
000000FC08
000000FFF8
0000003FF8
0000000FF0
ENDCHAR
STARTCHAR 0106
ENCODING 262
SWIDTH 720 0
DWIDTH 48 0
BBX 42 65 3 -2
BITMAP
000000FE0000
000001FC0000
000003F80000
000003F00000
000007E00000
00000FC00000
00000F800000
00001F000000
00003E000000
00003C000000
000000000000
000000000000
000000000000
00007FF00000
0003FFFE0000
000FFFFF8000
003FFFFFE000
007FFFFFF000
00FFFBFFF800
01FF000FF800
03FC0003FC00
07F80001FE00
07F00000FE00
0FE000007F00
1FC000007F00
1FC000003F00
1F8000003F80
3F8000003F80
3F0000001F80
3F0000000000
7E0000000000
7E0000000000
7E0000000000
7E0000000000
7E0000000000
FE0000000000
FE0000000000
FC0000000000
FC0000000000
FC0000000000
FC0000000000
FE0000000000
FE0000000000
FE0000000000
7E0000000000
7E0000000FC0
7E0000000FC0
7F0000001FC0
7F0000001FC0
3F0000001F80
3F8000001F80
3F8000003F80
1FC000003F80
1FC000007F00
0FE000007F00
0FF00000FE00
07F80001FE00
03FE0003FC00
03FF800FF800
01FFFDFFF800
00FFFFFFF000
003FFFFFC000
001FFFFF8000
0007FFFE0000
00007FE00000
ENDCHAR
STARTCHAR 0107
ENCODING 263
SWIDTH 495 0
DWIDTH 33 0
BBX 30 52 2 -2
BITMAP
00003F80
00007F00
0000FE00
0000FC00
0001F800
0003F000
0003E000
0007C000
00078000
000F0000
00000000
00000000
00000000
00000000
000FF000
007FFE00
01FFFF00
03FFFFC0
07FFFFE0
0FF83FE0
1FE00FF0
1FC003F0
3F8003F8
3F0001F8
7F0001F8
7E0000F8
7E0000F8
7E000000
FC000000
FC000000
FC000000
FC000000
FC000000
FC000000
FC000000
FC000000
FC000000
FC000000
7C0000FC
7E0000FC
7E0000FC
7F0001F8
3F0001F8
3F8003F8
1FC003F0
1FE007F0
0FF83FE0
07FFFFC0
03FFFF80
01FFFF00
007FFE00
001FF000
ENDCHAR
STARTCHAR 0108
ENCODING 264
SWIDTH 720 0
DWIDTH 48 0
BBX 42 65 3 -2
BITMAP
00003FC00000
00003FC00000
00007FE00000
0000FFE00000
0000F9F00000
0001F0F80000
0003E0780000
0003C07C0000
0007C03E0000
000F801E0000
000000000000
000000000000
000000000000
00007FF00000
0003FFFE0000
000FFFFF8000
003FFFFFE000
007FFFFFF000
00FFFBFFF800
01FF000FF800
03FC0003FC00
07F80001FE00
07F00000FE00
0FE000007F00
1FC000007F00
1FC000003F00
1F8000003F80
3F8000003F80
3F0000001F80
3F0000000000
7E0000000000
7E0000000000
7E0000000000
7E0000000000
7E0000000000
FE0000000000
FE0000000000
FC0000000000
FC0000000000
FC0000000000
FC0000000000
FE0000000000
FE0000000000
FE0000000000
7E0000000000
7E0000000FC0
7E0000000FC0
7F0000001FC0
7F0000001FC0
3F0000001F80
3F8000001F80
3F8000003F80
1FC000003F80
1FC000007F00
0FE000007F00
0FF00000FE00
07F80001FE00
03FE0003FC00
03FF800FF800
01FFFDFFF800
00FFFFFFF000
003FFFFFC000
001FFFFF8000
0007FFFE0000
00007FE00000
ENDCHAR
STARTCHAR 0109
ENCODING 265
SWIDTH 495 0
DWIDTH 33 0
BBX 30 52 2 -2
BITMAP
000FE000
000FF000
001FF800
003FF800
003EFC00
007C7C00
007C3E00
00F81F00
01F00F00
01E00F80
00000000
00000000
00000000
00000000
000FF000
007FFE00
01FFFF00
03FFFFC0
07FFFFE0
0FF83FE0
1FE00FF0
1FC003F0
3F8003F8
3F0001F8
7F0001F8
7E0000F8
7E0000F8
7E000000
FC000000
FC000000
FC000000
FC000000
FC000000
FC000000
FC000000
FC000000
FC000000
FC000000
7C0000FC
7E0000FC
7E0000FC
7F0001F8
3F0001F8
3F8003F8
1FC003F0
1FE007F0
0FF83FE0
07FFFFC0
03FFFF80
01FFFF00
007FFE00
001FF000
ENDCHAR
STARTCHAR 010A
ENCODING 266
SWIDTH 720 0
DWIDTH 48 0
BBX 42 64 3 -2
BITMAP
00001FC00000
00001FC00000
00001FC00000
00001FC00000
00001FC00000
00001FC00000
00001FC00000
000000000000
000000000000
000000000000
000000000000
000000000000
00007FF00000
0003FFFE0000
000FFFFF8000
003FFFFFE000
007FFFFFF000
00FFFBFFF800
01FF000FF800
03FC0003FC00
07F80001FE00
07F00000FE00
0FE000007F00
1FC000007F00
1FC000003F00
1F8000003F80
3F8000003F80
3F0000001F80
3F0000000000
7E0000000000
7E0000000000
7E0000000000
7E0000000000
7E0000000000
FE0000000000
FE0000000000
FC0000000000
FC0000000000
FC0000000000
FC0000000000
FE0000000000
FE0000000000
FE0000000000
7E0000000000
7E0000000FC0
7E0000000FC0
7F0000001FC0
7F0000001FC0
3F0000001F80
3F8000001F80
3F8000003F80
1FC000003F80
1FC000007F00
0FE000007F00
0FF00000FE00
07F80001FE00
03FE0003FC00
03FF800FF800
01FFFDFFF800
00FFFFFFF000
003FFFFFC000
001FFFFF8000
0007FFFE0000
00007FE00000
ENDCHAR
STARTCHAR 010B
ENCODING 267
SWIDTH 495 0
DWIDTH 33 0
BBX 30 50 2 -2
BITMAP
000FE000
000FE000
000FE000
000FE000
000FE000
000FE000
000FE000
00000000
00000000
00000000
00000000
00000000
000FF000
007FFE00
01FFFF00
03FFFFC0
07FFFFE0
0FF83FE0
1FE00FF0
1FC003F0
3F8003F8
3F0001F8
7F0001F8
7E0000F8
7E0000F8
7E000000
FC000000
FC000000
FC000000
FC000000
FC000000
FC000000
FC000000
FC000000
FC000000
FC000000
7C0000FC
7E0000FC
7E0000FC
7F0001F8
3F0001F8
3F8003F8
1FC003F0
1FE007F0
0FF83FE0
07FFFFC0
03FFFF80
01FFFF00
007FFE00
001FF000
ENDCHAR
STARTCHAR 010C
ENCODING 268
SWIDTH 720 0
DWIDTH 48 0
BBX 42 65 3 -2
BITMAP
0007C01E0000
0003E03E0000
0001E07C0000
0001F07C0000
0000F8F80000
00007DF00000
00007FF00000
00003FE00000
00003FC00000
00001FC00000
000000000000
000000000000
000000000000
00007FF00000
0003FFFE0000
000FFFFF8000
003FFFFFE000
007FFFFFF000
00FFFBFFF800
01FF000FF800
03FC0003FC00
07F80001FE00
07F00000FE00
0FE000007F00
1FC000007F00
1FC000003F00
1F8000003F80
3F8000003F80
3F0000001F80
3F0000000000
7E0000000000
7E0000000000
7E0000000000
7E0000000000
7E0000000000
FE0000000000
FE0000000000
FC0000000000
FC0000000000
FC0000000000
FC0000000000
FE0000000000
FE0000000000
FE0000000000
7E0000000000
7E0000000FC0
7E0000000FC0
7F0000001FC0
7F0000001FC0
3F0000001F80
3F8000001F80
3F8000003F80
1FC000003F80
1FC000007F00
0FE000007F00
0FF00000FE00
07F80001FE00
03FE0003FC00
03FF800FF800
01FFFDFFF800
00FFFFFFF000
003FFFFFC000
001FFFFF8000
0007FFFE0000
00007FE00000
ENDCHAR
STARTCHAR 010D
ENCODING 269
SWIDTH 495 0
DWIDTH 33 0
BBX 30 52 2 -2
BITMAP
03E00780
01F00F00
00F01F00
00F83E00
007C7C00
003E7C00
003FF800
001FF800
001FF000
000FE000
00000000
00000000
00000000
00000000
000FF000
007FFE00
01FFFF00
03FFFFC0
07FFFFE0
0FF83FE0
1FE00FF0
1FC003F0
3F8003F8
3F0001F8
7F0001F8
7E0000F8
7E0000F8
7E000000
FC000000
FC000000
FC000000
FC000000
FC000000
FC000000
FC000000
FC000000
FC000000
FC000000
7C0000FC
7E0000FC
7E0000FC
7F0001F8
3F0001F8
3F8003F8
1FC003F0
1FE007F0
0FF83FE0
07FFFFC0
03FFFF80
01FFFF00
007FFE00
001FF000
ENDCHAR
STARTCHAR 010E
ENCODING 270
SWIDTH 720 0
DWIDTH 48 0
BBX 38 63 6 0
BITMAP
01F007C000
00F8078000
00780F0000
007C1F0000
003E3E0000
001F7E0000
001FFC0000
000FF80000
000FF80000
0007F00000
0000000000
0000000000
0000000000
0000000000
FFFFFE0000
FFFFFFE000
FFFFFFF800
FFFFFFFC00
FFFFFFFE00
FC003FFF00
FC0001FF80
FC00007FC0
FC00001FE0
FC00000FE0
FC000007F0
FC000007F0
FC000003F8
FC000003F8
FC000001F8
FC000001FC
FC000001FC
FC000000FC
FC000000FC
FC000000FC
FC000000FC
FC000000FC
FC000000FC
FC000000FC
FC000000FC
FC000000FC
FC000000FC
FC000000FC
FC000000FC
FC000000FC
FC000000FC
FC000000FC
FC000001FC
FC000001F8
FC000001F8
FC000003F8
FC000003F8
FC000007F0
FC000007F0
FC00000FE0
FC00001FE0
FC00003FC0
FC0000FF80
FC003FFF00
FFFFFFFE00
FFFFFFFC00
FFFFFFF000
FFFFFFC000
FFFFFE0000
ENDCHAR
STARTCHAR 010F
ENCODING 271
SWIDTH 645 0
DWIDTH 43 0
BBX 41 51 2 -2
BITMAP
0000007E1F80
0000007E1F80
0000007E1F80
0000007E1F80
0000007E1F80
0000007E1F80
0000007E1F80
0000007E0380
0000007E0380
0000007E0380
0000007E0380
0000007E0700
0000007E1F00
001FE07E1E00
00FFF87E1C00
01FFFE7E0000
07FFFF7E0000
0FFFFFFE0000
0FF83FFE0000
1FE00FFE0000
3FC003FE0000
3F8003FE0000
7F0001FE0000
7E0000FE0000
7E0000FE0000
FE00007E0000
FC00007E0000
FC00007E0000
FC00007E0000
FC00007E0000
FC00007E0000
FC00007E0000
FC00007E0000
FC00007E0000
FC00007E0000
FC00007E0000
FC00007E0000
FC00007E0000
FE00007E0000
7E0000FE0000
7E0000FE0000
7F0001FE0000
3F8003FE0000
3FC003FE0000
1FE00FFE0000
0FF83FFE0000
0FFFFFBE0000
07FFFF3E0000
01FFFE3E0000
00FFF8000000
001FE0000000
ENDCHAR
STARTCHAR 0110
ENCODING 272
SWIDTH 720 0
DWIDTH 48 0
BBX 43 49 1 0
BITMAP
07FFFFF80000
07FFFFFF0000
07FFFFFFC000
07FFFFFFE000
07FFFFFFF000
07E001FFF800
07E0000FFC00
07E00003FE00
07E00000FF00
07E000007F00
07E000003F80
07E000003F80
07E000001FC0
07E000001FC0
07E000000FC0
07E000000FE0
07E000000FE0
07E0000007E0
07E0000007E0
07E0000007E0
07E0000007E0
07E0000007E0
FFFFFE0007E0
FFFFFE0007E0
FFFFFE0007E0
FFFFFE0007E0
07E0000007E0
07E0000007E0
07E0000007E0
07E0000007E0
07E0000007E0
07E0000007E0
07E000000FE0
07E000000FC0
07E000000FC0
07E000001FC0
07E000001FC0
07E000003F80
07E000003F80
07E000007F00
07E00000FF00
07E00001FE00
07E00007FC00
07E001FFF800
07FFFFFFF000
07FFFFFFE000
07FFFFFFC000
07FFFFFE0000
07FFFFF00000
ENDCHAR
STARTCHAR 0111
ENCODING 273
SWIDTH 555 0
DWIDTH 37 0
BBX 35 51 2 -2
BITMAP
0000007E00
0000007E00
0000007E00
0000007E00
0000007E00
0001FFFFE0
0001FFFFE0
0001FFFFE0
0001FFFFE0
0000007E00
0000007E00
0000007E00
0000007E00
001FE07E00
00FFF87E00
01FFFE7E00
07FFFF7E00
0FFFFFFE00
0FFEFFFE00
1FE00FFE00
3FC007FE00
3F8003FE00
7F0001FE00
7E0000FE00
7E0000FE00
FE0000FE00
FC00007E00
FC00007E00
FC00007E00
FC00007E00
FC00007E00
FC00007E00
FC00007E00
FC00007E00
FC00007E00
FC00007E00
FC00007E00
FC00007E00
7E0000FE00
7E0000FE00
7F0000FE00
7F0001FE00
3F8003FE00
3FC007FE00
1FE00FFE00
0FFEFFFE00
07FFFFBE00
03FFFF3E00
01FFFE3E00
00FFF80000
001FE00000
ENDCHAR
STARTCHAR 0112
ENCODING 274
SWIDTH 660 0
DWIDTH 44 0
BBX 35 61 6 0
BITMAP
00FFFFC000
00FFFFC000
00FFFFC000
00FFFFC000
00FFFFC000
0000000000
0000000000
0000000000
0000000000
0000000000
0000000000
0000000000
FFFFFFFFC0
FFFFFFFFC0
FFFFFFFFC0
FFFFFFFFC0
FFFFFFFFC0
FC00000000
FC00000000
FC00000000
FC00000000
FC00000000
FC00000000
FC00000000
FC00000000
FC00000000
FC00000000
FC00000000
FC00000000
FC00000000
FC00000000
FC00000000
FC00000000
FFFFFFFF80
FFFFFFFF80
FFFFFFFF80
FFFFFFFF80
FFFFFFFF80
FC00000000
FC00000000
FC00000000
FC00000000
FC00000000
FC00000000
FC00000000
FC00000000
FC00000000
FC00000000
FC00000000
FC00000000
FC00000000
FC00000000
FC00000000
FC00000000
FC00000000
FC00000000
FFFFFFFFE0
FFFFFFFFE0
FFFFFFFFE0
FFFFFFFFE0
FFFFFFFFE0
ENDCHAR
STARTCHAR 0113
ENCODING 275
SWIDTH 555 0
DWIDTH 37 0
BBX 31 49 3 -2
BITMAP
01FFFF80
01FFFF80
01FFFF80
01FFFF80
01FFFF80
00000000
00000000
00000000
00000000
00000000
00000000
000FF000
007FFE00
01FFFF00
03FFFFC0
07FFFFE0
0FF83FF0
1FE007F0
3F8003F8
3F0001FC
7F0001FC
7E0000FC
7E0000FE
FC00007E
FC00007E
FC00007E
FC00007E
FFFFFFFE
FFFFFFFE
FFFFFFFE
FFFFFFFE
FFFFFFFE
FC000000
FC000000
FC000000
FC000000
FC000000
7C00007C
7E0000FC
7F0000FC
3F0001F8
3F8003F8
1FE007F0
1FF83FF0
0FFFFFE0
07FFFFC0
01FFFF00
00FFFE00
001FF000
ENDCHAR
STARTCHAR 0114
ENCODING 276
SWIDTH 660 0
DWIDTH 44 0
BBX 35 62 6 0
BITMAP
01E001E000
01E001E000
01F003C000
00FC0FC000
00FFFFC000
007FFF8000
003FFF0000
000FFC0000
0000C00000
0000000000
0000000000
0000000000
0000000000
FFFFFFFFC0
FFFFFFFFC0
FFFFFFFFC0
FFFFFFFFC0
FFFFFFFFC0
FC00000000
FC00000000
FC00000000
FC00000000
FC00000000
FC00000000
FC00000000
FC00000000
FC00000000
FC00000000
FC00000000
FC00000000
FC00000000
FC00000000
FC00000000
FC00000000
FFFFFFFF80
FFFFFFFF80
FFFFFFFF80
FFFFFFFF80
FFFFFFFF80
FC00000000
FC00000000
FC00000000
FC00000000
FC00000000
FC00000000
FC00000000
FC00000000
FC00000000
FC00000000
FC00000000
FC00000000
FC00000000
FC00000000
FC00000000
FC00000000
FC00000000
FC00000000
FFFFFFFFE0
FFFFFFFFE0
FFFFFFFFE0
FFFFFFFFE0
FFFFFFFFE0
ENDCHAR
STARTCHAR 0115
ENCODING 277
SWIDTH 555 0
DWIDTH 37 0
BBX 31 51 3 -2
BITMAP
03C003C0
03C003C0
03E007C0
01F00F80
01FFFF80
00FFFF00
007FFE00
003FFC00
000FF000
00000000
00000000
00000000
00000000
000FF000
007FFE00
01FFFF00
03FFFFC0
07FFFFE0
0FF83FF0
1FE007F0
3F8003F8
3F0001FC
7F0001FC
7E0000FC
7E0000FE
FC00007E
FC00007E
FC00007E
FC00007E
FFFFFFFE
FFFFFFFE
FFFFFFFE
FFFFFFFE
FFFFFFFE
FC000000
FC000000
FC000000
FC000000
FC000000
7C00007C
7E0000FC
7F0000FC
3F0001F8
3F8003F8
1FE007F0
1FF83FF0
0FFFFFE0
07FFFFC0
01FFFF00
00FFFE00
001FF000
ENDCHAR
STARTCHAR 0116
ENCODING 278
SWIDTH 660 0
DWIDTH 44 0
BBX 35 61 6 0
BITMAP
0003F00000
0003F00000
0003F00000
0003F00000
0003F00000
0003F00000
0003F00000
0000000000
0000000000
0000000000
0000000000
0000000000
FFFFFFFFC0
FFFFFFFFC0
FFFFFFFFC0
FFFFFFFFC0
FFFFFFFFC0
FC00000000
FC00000000
FC00000000
FC00000000
FC00000000
FC00000000
FC00000000
FC00000000
FC00000000
FC00000000
FC00000000
FC00000000
FC00000000
FC00000000
FC00000000
FC00000000
FFFFFFFF80
FFFFFFFF80
FFFFFFFF80
FFFFFFFF80
FFFFFFFF80
FC00000000
FC00000000
FC00000000
FC00000000
FC00000000
FC00000000
FC00000000
FC00000000
FC00000000
FC00000000
FC00000000
FC00000000
FC00000000
FC00000000
FC00000000
FC00000000
FC00000000
FC00000000
FFFFFFFFE0
FFFFFFFFE0
FFFFFFFFE0
FFFFFFFFE0
FFFFFFFFE0
ENDCHAR
STARTCHAR 0117
ENCODING 279
SWIDTH 555 0
DWIDTH 37 0
BBX 31 50 3 -2
BITMAP
0007E000
0007E000
0007E000
0007E000
0007E000
0007E000
0007E000
00000000
00000000
00000000
00000000
00000000
000FF000
007FFE00
01FFFF00
03FFFFC0
07FFFFE0
0FF83FF0
1FE007F0
3F8003F8
3F0001FC
7F0001FC
7E0000FC
7E0000FE
FC00007E
FC00007E
FC00007E
FC00007E
FFFFFFFE
FFFFFFFE
FFFFFFFE
FFFFFFFE
FFFFFFFE
FC000000
FC000000
FC000000
FC000000
FC000000
7C00007C
7E0000FC
7F0000FC
3F0001F8
3F8003F8
1FE007F0
1FF83FF0
0FFFFFE0
07FFFFC0
01FFFF00
00FFFE00
001FF000
ENDCHAR
STARTCHAR 0118
ENCODING 280
SWIDTH 660 0
DWIDTH 44 0
BBX 37 63 6 -14
BITMAP
FFFFFFFFC0
FFFFFFFFC0
FFFFFFFFC0
FFFFFFFFC0
FFFFFFFFC0
FC00000000
FC00000000
FC00000000
FC00000000
FC00000000
FC00000000
FC00000000
FC00000000
FC00000000
FC00000000
FC00000000
FC00000000
FC00000000
FC00000000
FC00000000
FC00000000
FFFFFFFF80
FFFFFFFF80
FFFFFFFF80
FFFFFFFF80
FFFFFFFF80
FC00000000
FC00000000
FC00000000
FC00000000
FC00000000
FC00000000
FC00000000
FC00000000
FC00000000
FC00000000
FC00000000
FC00000000
FC00000000
FC00000000
FC00000000
FC00000000
FC00000000
FC00000000
FFFFFFFFE0
FFFFFFFFE0
FFFFFFFFE0
FFFFFFFFE0
FFFFFFFFE0
00000007C0
0000001F00
0000003E00
0000007C00
000000F800
000000F800
000000F800
000000F000
000000F800
000000F800
000000FE00
0000007FF8
0000003FF8
00000007F8
ENDCHAR
STARTCHAR 0119
ENCODING 281
SWIDTH 555 0
DWIDTH 37 0
BBX 31 50 3 -14
BITMAP
000FF000
007FFE00
01FFFF00
03FFFFC0
07FFFFE0
0FF83FF0
1FE007F0
3F8003F8
3F0001FC
7F0000FC
7E0000FC
7E00007E
FC00007E
FC00007E
FC00007E
FC00007E
FFFFFFFE
FFFFFFFE
FFFFFFFE
FFFFFFFE
FFFFFFFE
FC000000
FC000000
FC000000
FC000000
FC000000
7C00007C
7E0000FC
7F0000FC
3F0001F8
3F8003F8
1FE007F0
1FF81FF0
0FFFFFE0
07FFFFC0
01FFFF80
00FFFF00
001FFE00
00001C00
00003C00
00007800
0000F800
0000F800
0000F000
0000F800
0000F800
0000FC00
00007FF8
00003FF8
000007F8
ENDCHAR
STARTCHAR 011A
ENCODING 282
SWIDTH 660 0
DWIDTH 44 0
BBX 35 63 6 0
BITMAP
00F003C000
00F807C000
007C0F8000
003E1F0000
003E3F0000
001F3E0000
000FFC0000
000FFC0000
0007F80000
0003F00000
0000000000
0000000000
0000000000
0000000000
FFFFFFFFC0
FFFFFFFFC0
FFFFFFFFC0
FFFFFFFFC0
FFFFFFFFC0
FC00000000
FC00000000
FC00000000
FC00000000
FC00000000
FC00000000
FC00000000
FC00000000
FC00000000
FC00000000
FC00000000
FC00000000
FC00000000
FC00000000
FC00000000
FC00000000
FFFFFFFF80
FFFFFFFF80
FFFFFFFF80
FFFFFFFF80
FFFFFFFF80
FC00000000
FC00000000
FC00000000
FC00000000
FC00000000
FC00000000
FC00000000
FC00000000
FC00000000
FC00000000
FC00000000
FC00000000
FC00000000
FC00000000
FC00000000
FC00000000
FC00000000
FC00000000
FFFFFFFFE0
FFFFFFFFE0
FFFFFFFFE0
FFFFFFFFE0
FFFFFFFFE0
ENDCHAR
STARTCHAR 011B
ENCODING 283
SWIDTH 555 0
DWIDTH 37 0
BBX 31 52 3 -2
BITMAP
01E00780
01F00F80
00F81F00
007C1F00
007C3E00
003E7C00
001FFC00
001FF800
000FF000
000FF000
00000000
00000000
00000000
00000000
000FF000
007FFE00
01FFFF00
03FFFFC0
07FFFFE0
0FF83FF0
1FE007F0
3F8003F8
3F0001FC
7F0001FC
7E0000FC
7E0000FE
FC00007E
FC00007E
FC00007E
FC00007E
FFFFFFFE
FFFFFFFE
FFFFFFFE
FFFFFFFE
FFFFFFFE
FC000000
FC000000
FC000000
FC000000
FC000000
7C00007C
7E0000FC
7F0000FC
3F0001F8
3F8003F8
1FE007F0
1FF83FF0
0FFFFFE0
07FFFFC0
01FFFF00
00FFFE00
001FF000
ENDCHAR
STARTCHAR 011C
ENCODING 284
SWIDTH 780 0
DWIDTH 52 0
BBX 44 65 3 -2
BITMAP
00001FC00000
00003FE00000
00003FF00000
00007FF00000
0000FCF80000
0000F87C0000
0001F07C0000
0001E03E0000
0003C01E0000
0007C00F0000
000000000000
000000000000
000000000000
00003FF80000
0003FFFF0000
000FFFFFE000
003FFFFFF000
007FFFFFF800
00FFFEFFFE00
01FF8007FE00
03FE0001FF00
07FC00007F80
07F000003FC0
0FE000001FC0
1FE000001FC0
1FC000000FE0
3F80000007E0
3F80000007E0
3F00000007F0
7F0000000000
7E0000000000
7E0000000000
7E0000000000
FE0000000000
FC0000000000
FC0000000000
FC0000000000
FC0000000000
FC0000FFFFF0
FC0000FFFFF0
FC0000FFFFF0
FC0000FFFFF0
FC0000FFFFF0
FC00000001F0
FE00000001F0
FE00000001F0
7E00000001F0
7E00000001F0
7F00000003F0
7F00000003F0
3F80000003F0
3F80000007F0
1FC0000007F0
1FC000000FF0
0FE000001FF0
0FF000003FF0
07FC00007FF0
03FE0000FFF0
01FF8007FDF0
00FFFEFFF9F0
007FFFFFE0F0
003FFFFFC0F0
000FFFFF00F0
0003FFFC00F0
00007FE00000
ENDCHAR
STARTCHAR 011D
ENCODING 285
SWIDTH 555 0
DWIDTH 37 0
BBX 30 65 2 -15
BITMAP
0007F000
000FF000
001FF800
001FF800
003F7C00
003E3E00
007C3E00
00F81F00
00F00F80
01F00780
00000000
00000000
00000000
00000000
001FC000
007FF07C
01FFFC7C
03FFFE7C
07FFFF7C
0FF83FFC
0FE00FFC
1FC007FC
1F8003FC
3F0003FC
3F0001FC
7E0001FC
7E0000FC
7E0000FC
7C0000FC
7C0000FC
FC0000FC
FC0000FC
FC0000FC
FC0000FC
FC0000FC
FC0000FC
FC0000FC
7C0000FC
7E0000FC
7E0000FC
7E0001FC
3F0001FC
3F0003FC
3F8003FC
1FC007FC
1FE00FFC
0FF83FFC
07FFFEFC
03FFFCFC
01FFF8FC
007FF0FC
001FC0FC
000000FC
000000F8
7E0000F8
3E0001F8
3F0001F8
3F0003F0
1F8007F0
1FC00FE0
0FFFFFC0
07FFFF80
03FFFF00
00FFFC00
003FE000
ENDCHAR
STARTCHAR 011E
ENCODING 286
SWIDTH 780 0
DWIDTH 52 0
BBX 44 64 3 -2
BITMAP
0003C003C000
0003C0078000
0003E00F8000
0003F81F8000
0001FFFF0000
0000FFFF0000
00007FFE0000
00003FF80000
000003800000
000000000000
000000000000
000000000000
00003FF80000
0003FFFF0000
000FFFFFE000
003FFFFFF000
007FFFFFF800
00FFFEFFFE00
01FF8007FE00
03FE0001FF00
07FC00007F80
07F000003FC0
0FE000001FC0
1FE000001FC0
1FC000000FE0
3F80000007E0
3F80000007E0
3F00000007F0
7F0000000000
7E0000000000
7E0000000000
7E0000000000
FE0000000000
FC0000000000
FC0000000000
FC0000000000
FC0000000000
FC0000FFFFF0
FC0000FFFFF0
FC0000FFFFF0
FC0000FFFFF0
FC0000FFFFF0
FC00000001F0
FE00000001F0
FE00000001F0
7E00000001F0
7E00000001F0
7F00000003F0
7F00000003F0
3F80000003F0
3F80000007F0
1FC0000007F0
1FC000000FF0
0FE000001FF0
0FF000003FF0
07FC00007FF0
03FE0000FFF0
01FF8007FDF0
00FFFEFFF9F0
007FFFFFE0F0
003FFFFFC0F0
000FFFFF00F0
0003FFFC00F0
00007FE00000
ENDCHAR
STARTCHAR 011F
ENCODING 287
SWIDTH 555 0
DWIDTH 37 0
BBX 30 64 2 -15
BITMAP
03C003C0
03C003C0
03E007C0
03F00F80
01FFFF80
00FFFF00
007FFE00
003FFC00
000FF000
00000000
00000000
00000000
00000000
001FC000
007FF07C
01FFFC7C
03FFFE7C
07FFFF7C
0FF83FFC
0FE00FFC
1FC007FC
1F8003FC
3F0003FC
3F0001FC
7E0001FC
7E0000FC
7E0000FC
7C0000FC
7C0000FC
FC0000FC
FC0000FC
FC0000FC
FC0000FC
FC0000FC
FC0000FC
FC0000FC
7C0000FC
7E0000FC
7E0000FC
7E0001FC
3F0001FC
3F0003FC
3F8003FC
1FC007FC
1FE00FFC
0FF83FFC
07FFFEFC
03FFFCFC
01FFF8FC
007FF0FC
001FC0FC
000000FC
000000F8
7E0000F8
3E0001F8
3F0001F8
3F0003F0
1F8007F0
1FC00FE0
0FFFFFC0
07FFFF80
03FFFF00
00FFFC00
003FE000
ENDCHAR
STARTCHAR 0120
ENCODING 288
SWIDTH 780 0
DWIDTH 52 0
BBX 44 64 3 -2
BITMAP
00000FC00000
00000FC00000
00000FC00000
00000FC00000
00000FC00000
00000FC00000
00000FC00000
000000000000
000000000000
000000000000
000000000000
000000000000
00003FF80000
0003FFFF0000
000FFFFFE000
003FFFFFF000
007FFFFFF800
00FFFEFFFE00
01FF8007FE00
03FE0001FF00
07FC00007F80
07F000003FC0
0FE000001FC0
1FE000001FC0
1FC000000FE0
3F80000007E0
3F80000007E0
3F00000007F0
7F0000000000
7E0000000000
7E0000000000
7E0000000000
FE0000000000
FC0000000000
FC0000000000
FC0000000000
FC0000000000
FC0000FFFFF0
FC0000FFFFF0
FC0000FFFFF0
FC0000FFFFF0
FC0000FFFFF0
FC00000001F0
FE00000001F0
FE00000001F0
7E00000001F0
7E00000001F0
7F00000003F0
7F00000003F0
3F80000003F0
3F80000007F0
1FC0000007F0
1FC000000FF0
0FE000001FF0
0FF000003FF0
07FC00007FF0
03FE0000FFF0
01FF8007FDF0
00FFFEFFF9F0
007FFFFFE0F0
003FFFFFC0F0
000FFFFF00F0
0003FFFC00F0
00007FE00000
ENDCHAR
STARTCHAR 0121
ENCODING 289
SWIDTH 555 0
DWIDTH 37 0
BBX 30 63 2 -15
BITMAP
000FE000
000FE000
000FE000
000FE000
000FE000
000FE000
000FE000
00000000
00000000
00000000
00000000
00000000
001FC000
007FF07C
01FFFC7C
03FFFE7C
07FFFF7C
0FF83FFC
0FE00FFC
1FC007FC
1F8003FC
3F0003FC
3F0001FC
7E0001FC
7E0000FC
7E0000FC
7C0000FC
7C0000FC
FC0000FC
FC0000FC
FC0000FC
FC0000FC
FC0000FC
FC0000FC
FC0000FC
7C0000FC
7E0000FC
7E0000FC
7E0001FC
3F0001FC
3F0003FC
3F8003FC
1FC007FC
1FE00FFC
0FF83FFC
07FFFEFC
03FFFCFC
01FFF8FC
007FF0FC
001FC0FC
000000FC
000000F8
7E0000F8
3E0001F8
3F0001F8
3F0003F0
1F8007F0
1FC00FE0
0FFFFFC0
07FFFF80
03FFFF00
00FFFC00
003FE000
ENDCHAR
STARTCHAR 0122
ENCODING 290
SWIDTH 780 0
DWIDTH 52 0
BBX 44 69 3 -19
BITMAP
00003FF80000
0003FFFF0000
000FFFFFE000
003FFFFFF000
007FFFFFF800
00FFFEFFFE00
01FF8007FE00
03FE0001FF00
07FC00007F80
07F000003FC0
0FE000001FC0
1FE000001FC0
1FC000000FE0
3F80000007E0
3F80000007E0
3F00000007F0
7F0000000000
7E0000000000
7E0000000000
7E0000000000
FE0000000000
FC0000000000
FC0000000000
FC0000000000
FC0000000000
FC0000FFFFF0
FC0000FFFFF0
FC0000FFFFF0
FC0000FFFFF0
FC0000FFFFF0
FC00000001F0
FE00000001F0
FE00000001F0
7E00000001F0
7E00000001F0
7F00000003F0
7F00000003F0
3F80000003F0
3F80000007F0
1FC0000007F0
1FC000000FF0
0FE000001FF0
0FF000003FF0
07FC00007FF0
03FE0000FFF0
01FF8007FDF0
00FFFEFFF9F0
007FFFFFE0F0
003FFFFFC0F0
000FFFFF00F0
0003FFFC00F0
00007FE00000
000000000000
000000000000
00001FC00000
00001FC00000
00001FC00000
00001FC00000
00001FC00000
00001FC00000
00001FC00000
000001C00000
000001C00000
000001C00000
000001C00000
000003800000
00000F800000
00001F000000
00001E000000
ENDCHAR
STARTCHAR 0123
ENCODING 291
SWIDTH 555 0
DWIDTH 37 0
BBX 30 69 2 -15
BITMAP
0000E000
0003E000
0003C000
00070000
00070000
00070000
000E0000
000E0000
000FE000
000FE000
000FE000
000FE000
000FE000
000FE000
000FE000
00000000
00000000
00000000
001FC000
007FF07C
01FFFC7C
03FFFE7C
07FFFF7C
0FF83FFC
0FE00FFC
1FC007FC
1F8003FC
3F0003FC
3F0001FC
7E0001FC
7E0000FC
7E0000FC
7C0000FC
7C0000FC
FC0000FC
FC0000FC
FC0000FC
FC0000FC
FC0000FC
FC0000FC
FC0000FC
7C0000FC
7E0000FC
7E0000FC
7E0001FC
3F0001FC
3F0003FC
3F8003FC
1FC007FC
1FE00FFC
0FF83FFC
07FFFEFC
03FFFCFC
01FFF8FC
007FF0FC
001FC0FC
000000FC
000000F8
7E0000F8
3E0001F8
3F0001F8
3F0003F0
1F8007F0
1FC00FE0
0FFFFFC0
07FFFF80
03FFFF00
00FFFC00
003FE000
ENDCHAR
STARTCHAR 0124
ENCODING 292
SWIDTH 720 0
DWIDTH 48 0
BBX 37 63 6 0
BITMAP
0001FC0000
0001FE0000
0003FF0000
0007FF0000
0007CF8000
000F8F8000
001F07C000
001E03E000
003E01E000
007C00F000
0000000000
0000000000
0000000000
0000000000
FC000001F8
FC000001F8
FC000001F8
FC000001F8
FC000001F8
FC000001F8
FC000001F8
FC000001F8
FC000001F8
FC000001F8
FC000001F8
FC000001F8
FC000001F8
FC000001F8
FC000001F8
FC000001F8
FC000001F8
FC000001F8
FC000001F8
FC000001F8
FC000001F8
FFFFFFFFF8
FFFFFFFFF8
FFFFFFFFF8
FFFFFFFFF8
FFFFFFFFF8
FC000001F8
FC000001F8
FC000001F8
FC000001F8
FC000001F8
FC000001F8
FC000001F8
FC000001F8
FC000001F8
FC000001F8
FC000001F8
FC000001F8
FC000001F8
FC000001F8
FC000001F8
FC000001F8
FC000001F8
FC000001F8
FC000001F8
FC000001F8
FC000001F8
FC000001F8
FC000001F8
ENDCHAR
STARTCHAR 0125
ENCODING 293
SWIDTH 555 0
DWIDTH 37 0
BBX 34 63 -2 0
BITMAP
03F8000000
07FC000000
07FC000000
0FFE000000
1FBF000000
1F1F000000
3E0F800000
3C07C00000
7803C00000
F801E00000
0000000000
0000000000
0000000000
0000000000
01F0000000
01F0000000
01F0000000
01F0000000
01F0000000
01F0000000
01F0000000
01F0000000
01F0000000
01F0000000
01F0000000
01F0000000
01F0000000
01F01FE000
01F07FFC00
01F1FFFE00
01F3FFFF00
01F7FFFF80
01FFC07FC0
01FF001FC0
01FE000FC0
01FC000FC0
01FC0007C0
01F80007C0
01F80007C0
01F80007C0
01F80007C0
01F00007C0
01F00007C0
01F00007C0
01F00007C0
01F00007C0
01F00007C0
01F00007C0
01F00007C0
01F00007C0
01F00007C0
01F00007C0
01F00007C0
01F00007C0
01F00007C0
01F00007C0
01F00007C0
01F00007C0
01F00007C0
01F00007C0
01F00007C0
01F00007C0
01F00007C0
ENDCHAR
STARTCHAR 0126
ENCODING 294
SWIDTH 720 0
DWIDTH 48 0
BBX 47 49 1 0
BITMAP
07E000000FC0
07E000000FC0
07E000000FC0
07E000000FC0
07E000000FC0
07E000000FC0
07E000000FC0
07E000000FC0
07E000000FC0
07E000000FC0
FFFFFFFFFFFE
FFFFFFFFFFFE
FFFFFFFFFFFE
FFFFFFFFFFFE
FFFFFFFFFFFE
07E000000FC0
07E000000FC0
07E000000FC0
07E000000FC0
07E000000FC0
07E000000FC0
07FFFFFFFFC0
07FFFFFFFFC0
07FFFFFFFFC0
07FFFFFFFFC0
07FFFFFFFFC0
07E000000FC0
07E000000FC0
07E000000FC0
07E000000FC0
07E000000FC0
07E000000FC0
07E000000FC0
07E000000FC0
07E000000FC0
07E000000FC0
07E000000FC0
07E000000FC0
07E000000FC0
07E000000FC0
07E000000FC0
07E000000FC0
07E000000FC0
07E000000FC0
07E000000FC0
07E000000FC0
07E000000FC0
07E000000FC0
07E000000FC0
ENDCHAR
STARTCHAR 0127
ENCODING 295
SWIDTH 555 0
DWIDTH 37 0
BBX 31 49 1 0
BITMAP
0F800000
0F800000
0F800000
0F800000
0F800000
FFFFFE00
FFFFFE00
FFFFFE00
FFFFFE00
0F800000
0F800000
0F800000
0F800000
0F80FF00
0F83FFE0
0F8FFFF0
0F9FFFF8
0FBFFFFC
0FFE03FE
0FF800FE
0FF0007E
0FE0007E
0FE0003E
0FC0003E
0FC0003E
0FC0003E
0FC0003E
0F80003E
0F80003E
0F80003E
0F80003E
0F80003E
0F80003E
0F80003E
0F80003E
0F80003E
0F80003E
0F80003E
0F80003E
0F80003E
0F80003E
0F80003E
0F80003E
0F80003E
0F80003E
0F80003E
0F80003E
0F80003E
0F80003E
ENDCHAR
STARTCHAR 0128
ENCODING 296
SWIDTH 285 0
DWIDTH 19 0
BBX 20 61 -1 0
BITMAP
3F80F0
7FF1F0
7FFFF0
FFFFE0
F0FFE0
F03FC0
000200
000000
000000
000000
000000
000000
00FC00
00FC00
00FC00
00FC00
00FC00
00FC00
00FC00
00FC00
00FC00
00FC00
00FC00
00FC00
00FC00
00FC00
00FC00
00FC00
00FC00
00FC00
00FC00
00FC00
00FC00
00FC00
00FC00
00FC00
00FC00
00FC00
00FC00
00FC00
00FC00
00FC00
00FC00
00FC00
00FC00
00FC00
00FC00
00FC00
00FC00
00FC00
00FC00
00FC00
00FC00
00FC00
00FC00
00FC00
00FC00
00FC00
00FC00
00FC00
00FC00
ENDCHAR
STARTCHAR 0129
ENCODING 297
SWIDTH 285 0
DWIDTH 19 0
BBX 20 48 -1 0
BITMAP
1F00F0
3FC0F0
7FFFF0
FFFFE0
FBFFE0
F07FC0
E00F80
000000
000000
000000
000000
000000
000000
01F800
01F800
01F800
01F800
01F800
01F800
01F800
01F800
01F800
01F800
01F800
01F800
01F800
01F800
01F800
01F800
01F800
01F800
01F800
01F800
01F800
01F800
01F800
01F800
01F800
01F800
01F800
01F800
01F800
01F800
01F800
01F800
01F800
01F800
01F800
ENDCHAR
STARTCHAR 012A
ENCODING 298
SWIDTH 285 0
DWIDTH 19 0
BBX 17 61 1 0
BITMAP
FFFF80
FFFF80
FFFF80
FFFF80
FFFF80
000000
000000
000000
000000
000000
000000
000000
03F000
03F000
03F000
03F000
03F000
03F000
03F000
03F000
03F000
03F000
03F000
03F000
03F000
03F000
03F000
03F000
03F000
03F000
03F000
03F000
03F000
03F000
03F000
03F000
03F000
03F000
03F000
03F000
03F000
03F000
03F000
03F000
03F000
03F000
03F000
03F000
03F000
03F000
03F000
03F000
03F000
03F000
03F000
03F000
03F000
03F000
03F000
03F000
03F000
ENDCHAR
STARTCHAR 012B
ENCODING 299
SWIDTH 285 0
DWIDTH 19 0
BBX 16 47 1 0
BITMAP
FFFF
FFFF
FFFF
FFFF
FFFF
0000
0000
0000
0000
0000
0000
0000
07E0
07E0
07E0
07E0
07E0
07E0
07E0
07E0
07E0
07E0
07E0
07E0
07E0
07E0
07E0
07E0
07E0
07E0
07E0
07E0
07E0
07E0
07E0
07E0
07E0
07E0
07E0
07E0
07E0
07E0
07E0
07E0
07E0
07E0
07E0
ENDCHAR
STARTCHAR 012C
ENCODING 300
SWIDTH 285 0
DWIDTH 19 0
BBX 20 62 -1 0
BITMAP
F000F0
F800F0
7801F0
7E07E0
7FFFE0
3FFFC0
1FFF80
07FF00
007000
000000
000000
000000
000000
01FC00
01FC00
01FC00
01FC00
01FC00
01FC00
01FC00
01FC00
01FC00
01FC00
01FC00
01FC00
01FC00
01FC00
01FC00
01FC00
01FC00
01FC00
01FC00
01FC00
01FC00
01FC00
01FC00
01FC00
01FC00
01FC00
01FC00
01FC00
01FC00
01FC00
01FC00
01FC00
01FC00
01FC00
01FC00
01FC00
01FC00
01FC00
01FC00
01FC00
01FC00
01FC00
01FC00
01FC00
01FC00
01FC00
01FC00
01FC00
01FC00
ENDCHAR
STARTCHAR 012D
ENCODING 301
SWIDTH 285 0
DWIDTH 19 0
BBX 20 49 -1 0
BITMAP
F000F0
F800F0
F801F0
7C03F0
7FFFE0
3FFFC0
1FFFC0
0FFF00
03FC00
000000
000000
000000
000000
000000
01F800
01F800
01F800
01F800
01F800
01F800
01F800
01F800
01F800
01F800
01F800
01F800
01F800
01F800
01F800
01F800
01F800
01F800
01F800
01F800
01F800
01F800
01F800
01F800
01F800
01F800
01F800
01F800
01F800
01F800
01F800
01F800
01F800
01F800
01F800
ENDCHAR
STARTCHAR 012E
ENCODING 302
SWIDTH 285 0
DWIDTH 19 0
BBX 12 63 4 -14
BITMAP
1F80
1F80
1F80
1F80
1F80
1F80
1F80
1F80
1F80
1F80
1F80
1F80
1F80
1F80
1F80
1F80
1F80
1F80
1F80
1F80
1F80
1F80
1F80
1F80
1F80
1F80
1F80
1F80
1F80
1F80
1F80
1F80
1F80
1F80
1F80
1F80
1F80
1F80
1F80
1F80
1F80
1F80
1F80
1F80
1F80
1F80
1F80
1F80
1F80
0700
0F00
1E00
3C00
7C00
7800
7800
F800
F800
7C00
7E10
3FF0
1FF0
0FE0
ENDCHAR
STARTCHAR 012F
ENCODING 303
SWIDTH 225 0
DWIDTH 15 0
BBX 11 63 2 -14
BITMAP
3F00
3F00
3F00
3F00
3F00
3F00
3F00
0000
0000
0000
0000
0000
0000
0000
3F00
3F00
3F00
3F00
3F00
3F00
3F00
3F00
3F00
3F00
3F00
3F00
3F00
3F00
3F00
3F00
3F00
3F00
3F00
3F00
3F00
3F00
3F00
3F00
3F00
3F00
3F00
3F00
3F00
3F00
3F00
3F00
3F00
3F00
3F00
0F00
1E00
3C00
7800
7800
F800
F800
F000
F800
F800
FC20
7FE0
3FE0
0FC0
ENDCHAR
STARTCHAR 0130
ENCODING 304
SWIDTH 285 0
DWIDTH 19 0
BBX 7 61 6 0
BITMAP
FE
FE
FE
FE
FE
FE
FE
00
00
00
00
00
7E
7E
7E
7E
7E
7E
7E
7E
7E
7E
7E
7E
7E
7E
7E
7E
7E
7E
7E
7E
7E
7E
7E
7E
7E
7E
7E
7E
7E
7E
7E
7E
7E
7E
7E
7E
7E
7E
7E
7E
7E
7E
7E
7E
7E
7E
7E
7E
7E
ENDCHAR
STARTCHAR 0131
ENCODING 305
SWIDTH 285 0
DWIDTH 19 0
BBX 6 35 6 0
BITMAP
FC
FC
FC
FC
FC
FC
FC
FC
FC
FC
FC
FC
FC
FC
FC
FC
FC
FC
FC
FC
FC
FC
FC
FC
FC
FC
FC
FC
FC
FC
FC
FC
FC
FC
FC
ENDCHAR
STARTCHAR 0132
ENCODING 306
SWIDTH 735 0
DWIDTH 49 0
BBX 37 51 7 -2
BITMAP
FC000001F8
FC000001F8
FC000001F8
FC000001F8
FC000001F8
FC000001F8
FC000001F8
FC000001F8
FC000001F8
FC000001F8
FC000001F8
FC000001F8
FC000001F8
FC000001F8
FC000001F8
FC000001F8
FC000001F8
FC000001F8
FC000001F8
FC000001F8
FC000001F8
FC000001F8
FC000001F8
FC000001F8
FC000001F8
FC000001F8
FC000001F8
FC000001F8
FC000001F8
FC000001F8
FC000001F8
FC000001F8
FC000001F8
FC000001F8
FC7F0001F8
FC7F0001F8
FC7F0001F8
FC7F0003F8
FC7F0003F8
FC3F0003F8
FC3F0003F0
FC3F8007F0
FC3F8007F0
FC3FC00FF0
FC1FE01FE0
FC1FF87FC0
FC0FFFFFC0
FC07FFFF80
FC03FFFF00
0000FFFC00
00001FE000
ENDCHAR
STARTCHAR 0133
ENCODING 307
SWIDTH 450 0
DWIDTH 30 0
BBX 18 64 6 -15
BITMAP
F807C0
F807C0
F807C0
F807C0
F807C0
F807C0
F807C0
000000
000000
000000
000000
000000
000000
000000
F807C0
F807C0
F807C0
F807C0
F807C0
F807C0
F807C0
F807C0
F807C0
F807C0
F807C0
F807C0
F807C0
F807C0
F807C0
F807C0
F807C0
F807C0
F807C0
F807C0
F807C0
F807C0
F807C0
F807C0
F807C0
F807C0
F807C0
F807C0
F807C0
F807C0
F807C0
F807C0
F807C0
F807C0
F807C0
0007C0
0007C0
0007C0
0007C0
0007C0
0007C0
0007C0
000FC0
000FC0
001FC0
01FFC0
01FF80
01FF00
01FE00
01F000
ENDCHAR
STARTCHAR 0134
ENCODING 308
SWIDTH 495 0
DWIDTH 33 0
BBX 33 65 1 -2
BITMAP
00000FE000
00001FF000
00001FF000
00003FF800
00007EF800
00007C7C00
0000F83E00
0001F01E00
0001E00F00
0003C00F80
0000000000
0000000000
0000000000
0000000000
000007E000
000007E000
000007E000
000007E000
000007E000
000007E000
000007E000
000007E000
000007E000
000007E000
000007E000
000007E000
000007E000
000007E000
000007E000
000007E000
000007E000
000007E000
000007E000
000007E000
000007E000
000007E000
000007E000
000007E000
000007E000
000007E000
000007E000
000007E000
000007E000
000007E000
000007E000
000007E000
000007E000
000007E000
FC0007E000
FC0007E000
FC0007E000
FE0007E000
FE0007E000
FE0007E000
FE0007E000
7E000FE000
7F000FE000
7F001FC000
3F803FC000
3FF0FF8000
1FFFFF0000
0FFFFE0000
07FFFC0000
01FFF80000
007FC00000
ENDCHAR
STARTCHAR 0135
ENCODING 309
SWIDTH 225 0
DWIDTH 15 0
BBX 18 65 -2 -15
BITMAP
03F800
07F800
0FFC00
0FFE00
1FBE00
1F1F00
3E1F00
7C0F80
7807C0
F803C0
000000
000000
000000
000000
000000
01F000
01F000
01F000
01F000
01F000
01F000
01F000
01F000
01F000
01F000
01F000
01F000
01F000
01F000
01F000
01F000
01F000
01F000
01F000
01F000
01F000
01F000
01F000
01F000
01F000
01F000
01F000
01F000
01F000
01F000
01F000
01F000
01F000
01F000
01F000
01F000
01F000
01F000
01F000
01F000
01F000
01F000
03F000
03F000
07F000
7FF000
7FE000
7FC000
7F8000
7C0000
ENDCHAR
STARTCHAR 0136
ENCODING 310
SWIDTH 660 0
DWIDTH 44 0
BBX 39 68 5 -19
BITMAP
FC000003FC
FC000007F8
FC00000FF0
FC00001FE0
FC00003FC0
FC00007F80
FC0000FF00
FC0001FE00
FC0003FC00
FC0007F800
FC000FF000
FC001FE000
FC003FC000
FC007F8000
FC007F0000
FC00FE0000
FC01FC0000
FC03F80000
FC07F00000
FC0FE00000
FC1FE00000
FC3FF00000
FC7FF80000
FCFFF80000
FDFDFC0000
FFF9FE0000
FFF0FE0000
FFE07F0000
FFC03F8000
FF803F8000
FF001FC000
FE000FE000
FC000FF000
FC0007F000
FC0003F800
FC0003FC00
FC0001FC00
FC0000FE00
FC0000FF00
FC00007F00
FC00003F80
FC00003FC0
FC00001FC0
FC00000FE0
FC00000FF0
FC000007F0
FC000003F8
FC000003FC
FC000001FE
0000000000
0000000000
0000000000
0000000000
0001FC0000
0001FC0000
0001FC0000
0001FC0000
0001FC0000
0001FC0000
0001FC0000
00001C0000
0000180000
0000380000
0000380000
0000780000
0001F00000
0001E00000
0001800000
ENDCHAR
STARTCHAR 0137
ENCODING 311
SWIDTH 495 0
DWIDTH 33 0
BBX 29 68 4 -19
BITMAP
F8000000
F8000000
F8000000
F8000000
F8000000
F8000000
F8000000
F8000000
F8000000
F8000000
F8000000
F8000000
F8000000
F8000000
F8000FE0
F8001FC0
F8003F80
F8007F00
F800FE00
F801FC00
F803F800
F807F000
F80FE000
F81FC000
F83F8000
F87F0000
F8FE0000
F9FF0000
FBFF8000
FFFF8000
FFDFC000
FF8FE000
FF0FE000
FE07F000
FC03F000
F803F800
F801FC00
F801FC00
F800FE00
F8007F00
F8007F00
F8003F80
F8001F80
F8001FC0
F8000FE0
F8000FE0
F80007F0
F80003F8
F80003F8
00000000
00000000
00000000
00000000
003F8000
003F8000
003F8000
003F8000
003F8000
003F8000
003F8000
00038000
00038000
00038000
00038000
00070000
003F0000
003E0000
00380000
ENDCHAR
STARTCHAR 0138
ENCODING 312
SWIDTH 495 0
DWIDTH 33 0
BBX 26 34 3 0
BITMAP
F0000FC0
F0000F80
F0001F00
F0003E00
F0007C00
F000F800
F001F000
F003E000
F007C000
F00F8000
F01F0000
F03E0000
F07C0000
F0F80000
F1F80000
F3FC0000
F7FE0000
FFBE0000
FF1F0000
FE0F8000
FC0F8000
F807C000
F003E000
F003E000
F001F000
F000F800
F000FC00
F0007C00
F0003E00
F0003F00
F0001F00
F0000F80
F00007C0
F00007C0
ENDCHAR
STARTCHAR 0139
ENCODING 313
SWIDTH 555 0
DWIDTH 37 0
BBX 31 63 5 0
BITMAP
03F80000
07F00000
0FE00000
0FC00000
1F800000
1F000000
3E000000
7C000000
78000000
F0000000
00000000
00000000
00000000
00000000
FE000000
FE000000
FE000000
FE000000
FE000000
FE000000
FE000000
FE000000
FE000000
FE000000
FE000000
FE000000
FE000000
FE000000
FE000000
FE000000
FE000000
FE000000
FE000000
FE000000
FE000000
FE000000
FE000000
FE000000
FE000000
FE000000
FE000000
FE000000
FE000000
FE000000
FE000000
FE000000
FE000000
FE000000
FE000000
FE000000
FE000000
FE000000
FE000000
FE000000
FE000000
FE000000
FE000000
FE000000
FFFFFFFE
FFFFFFFE
FFFFFFFE
FFFFFFFE
FFFFFFFE
ENDCHAR
STARTCHAR 013A
ENCODING 314
SWIDTH 225 0
DWIDTH 15 0
BBX 14 63 4 0
BITMAP
03FC
03F8
07F0
0FE0
0FC0
1F80
3F00
3E00
7C00
F800
0000
0000
0000
0000
7C00
7C00
7C00
7C00
7C00
7C00
7C00
7C00
7C00
7C00
7C00
7C00
7C00
7C00
7C00
7C00
7C00
7C00
7C00
7C00
7C00
7C00
7C00
7C00
7C00
7C00
7C00
7C00
7C00
7C00
7C00
7C00
7C00
7C00
7C00
7C00
7C00
7C00
7C00
7C00
7C00
7C00
7C00
7C00
7C00
7C00
7C00
7C00
7C00
ENDCHAR
STARTCHAR 013B
ENCODING 315
SWIDTH 555 0
DWIDTH 37 0
BBX 31 68 5 -19
BITMAP
FE000000
FE000000
FE000000
FE000000
FE000000
FE000000
FE000000
FE000000
FE000000
FE000000
FE000000
FE000000
FE000000
FE000000
FE000000
FE000000
FE000000
FE000000
FE000000
FE000000
FE000000
FE000000
FE000000
FE000000
FE000000
FE000000
FE000000
FE000000
FE000000
FE000000
FE000000
FE000000
FE000000
FE000000
FE000000
FE000000
FE000000
FE000000
FE000000
FE000000
FE000000
FE000000
FE000000
FE000000
FFFFFFFE
FFFFFFFE
FFFFFFFE
FFFFFFFE
FFFFFFFE
00000000
00000000
00000000
00000000
000FE000
000FE000
000FE000
000FE000
000FE000
000FE000
000FE000
0000E000
0000E000
0000E000
0001C000
0001C000
000F8000
000F0000
000E0000
ENDCHAR
STARTCHAR 013C
ENCODING 316
SWIDTH 225 0
DWIDTH 15 0
BBX 7 68 4 -19
BITMAP
7C
7C
7C
7C
7C
7C
7C
7C
7C
7C
7C
7C
7C
7C
7C
7C
7C
7C
7C
7C
7C
7C
7C
7C
7C
7C
7C
7C
7C
7C
7C
7C
7C
7C
7C
7C
7C
7C
7C
7C
7C
7C
7C
7C
7C
7C
7C
7C
7C
00
00
00
00
FE
FE
FE
FE
FE
FE
FE
0E
0E
0E
1C
1C
F8
F0
E0
ENDCHAR
STARTCHAR 013D
ENCODING 317
SWIDTH 555 0
DWIDTH 37 0
BBX 31 49 5 0
BITMAP
FE07F000
FE07F000
FE07F000
FE07F000
FE07F000
FE07F000
FE07F000
FE007000
FE007000
FE007000
FE00E000
FE00E000
FE07C000
FE078000
FE070000
FE000000
FE000000
FE000000
FE000000
FE000000
FE000000
FE000000
FE000000
FE000000
FE000000
FE000000
FE000000
FE000000
FE000000
FE000000
FE000000
FE000000
FE000000
FE000000
FE000000
FE000000
FE000000
FE000000
FE000000
FE000000
FE000000
FE000000
FE000000
FE000000
FFFFFFFE
FFFFFFFE
FFFFFFFE
FFFFFFFE
FFFFFFFE
ENDCHAR
STARTCHAR 013E
ENCODING 318
SWIDTH 300 0
DWIDTH 20 0
BBX 15 49 5 0
BITMAP
F87E
F87E
F87E
F87E
F87E
F87E
F87E
F80E
F80E
F80E
F80E
F81C
F87C
F878
F860
F800
F800
F800
F800
F800
F800
F800
F800
F800
F800
F800
F800
F800
F800
F800
F800
F800
F800
F800
F800
F800
F800
F800
F800
F800
F800
F800
F800
F800
F800
F800
F800
F800
F800
ENDCHAR
STARTCHAR 013F
ENCODING 319
SWIDTH 555 0
DWIDTH 37 0
BBX 31 49 5 0
BITMAP
FE000000
FE000000
FE000000
FE000000
FE000000
FE000000
FE000000
FE000000
FE000000
FE000000
FE000000
FE000000
FE000000
FE000000
FE000000
FE000000
FE000000
FE000000
FE000000
FE000000
FE000000
FE000000
FE003F80
FE003F80
FE003F80
FE003F80
FE003F80
FE003F80
FE003F80
FE000000
FE000000
FE000000
FE000000
FE000000
FE000000
FE000000
FE000000
FE000000
FE000000
FE000000
FE000000
FE000000
FE000000
FE000000
FFFFFFFE
FFFFFFFE
FFFFFFFE
FFFFFFFE
FFFFFFFE
ENDCHAR
STARTCHAR 0140
ENCODING 320
SWIDTH 330 0
DWIDTH 22 0
BBX 17 49 5 0
BITMAP
FC0000
FC0000
FC0000
FC0000
FC0000
FC0000
FC0000
FC0000
FC0000
FC0000
FC0000
FC0000
FC0000
FC0000
FC0000
FC0000
FC0000
FC0000
FC0000
FC0000
FC0000
FC0000
FC3F80
FC3F80
FC3F80
FC3F80
FC3F80
FC3F80
FC3F80
FC0000
FC0000
FC0000
FC0000
FC0000
FC0000
FC0000
FC0000
FC0000
FC0000
FC0000
FC0000
FC0000
FC0000
FC0000
FC0000
FC0000
FC0000
FC0000
FC0000
ENDCHAR
STARTCHAR 0141
ENCODING 321
SWIDTH 555 0
DWIDTH 37 0
BBX 37 49 0 0
BITMAP
07F0000000
07F0000000
07F0000000
07F0000000
07F0000000
07F0000000
07F0000000
07F0000000
07F0000000
07F0000000
07F0000000
07F0000000
07F0000000
07F0000000
07F0020000
07F00E0000
07F01E0000
07F07E0000
07F0FE0000
07F1FC0000
07F7F00000
07FFE00000
07FFC00000
07FF000000
07FE000000
07F8000000
1FF0000000
3FF0000000
7FF0000000
FFF0000000
FFF0000000
F7F0000000
C7F0000000
87F0000000
07F0000000
07F0000000
07F0000000
07F0000000
07F0000000
07F0000000
07F0000000
07F0000000
07F0000000
07F0000000
07FFFFFFF8
07FFFFFFF8
07FFFFFFF8
07FFFFFFF8
07FFFFFFF8
ENDCHAR
STARTCHAR 0142
ENCODING 322
SWIDTH 225 0
DWIDTH 15 0
BBX 14 49 0 0
BITMAP
0FC0
0FC0
0FC0
0FC0
0FC0
0FC0
0FC0
0FC0
0FC0
0FC0
0FC0
0FC0
0FC0
0FC0
0FC0
0FC0
0FC0
0FC0
0FC4
0FDC
0FFC
0FFC
0FF8
0FF0
1FC0
3FC0
7FC0
FFC0
FFC0
CFC0
8FC0
0FC0
0FC0
0FC0
0FC0
0FC0
0FC0
0FC0
0FC0
0FC0
0FC0
0FC0
0FC0
0FC0
0FC0
0FC0
0FC0
0FC0
0FC0
ENDCHAR
STARTCHAR 0143
ENCODING 323
SWIDTH 720 0
DWIDTH 48 0
BBX 38 63 5 0
BITMAP
000007F000
00000FE000
00001FC000
00001F8000
00003F0000
00007E0000
00007C0000
0000F80000
0001F00000
0001E00000
0000000000
0000000000
0000000000
0000000000
FE000000FC
FF000000FC
FF000000FC
FF800000FC
FFC00000FC
FFC00000FC
FFE00000FC
FFF00000FC
FFF00000FC
FFF80000FC
FDF80000FC
FDFC0000FC
FCFE0000FC
FC7E0000FC
FC7F0000FC
FC3F8000FC
FC3F8000FC
FC1FC000FC
FC0FE000FC
FC0FE000FC
FC07F000FC
FC03F000FC
FC03F800FC
FC01FC00FC
FC00FC00FC
FC00FE00FC
FC007F00FC
FC007F00FC
FC003F80FC
FC001FC0FC
FC001FC0FC
FC000FE0FC
FC0007E0FC
FC0007F0FC
FC0003F8FC
FC0001F8FC
FC0001FCFC
FC0000FEFC
FC0000FEFC
FC00007FFC
FC00003FFC
FC00003FFC
FC00001FFC
FC00000FFC
FC00000FFC
FC000007FC
FC000007FC
FC000003FC
FC000001FC
ENDCHAR
STARTCHAR 0144
ENCODING 324
SWIDTH 555 0
DWIDTH 37 0
BBX 27 50 5 0
BITMAP
0001FE00
0001FC00
0003F800
0007F000
0007E000
000FC000
000F8000
001F0000
003E0000
003C0000
00000000
00000000
00000000
00000000
000FF000
F83FFE00
F87FFF00
F9FFFF80
F9FFFFC0
FBE03FE0
FFC00FE0
FF0007E0
FF0007E0
FE0003E0
FC0003E0
FC0003E0
FC0003E0
FC0003E0
F80003E0
F80003E0
F80003E0
F80003E0
F80003E0
F80003E0
F80003E0
F80003E0
F80003E0
F80003E0
F80003E0
F80003E0
F80003E0
F80003E0
F80003E0
F80003E0
F80003E0
F80003E0
F80003E0
F80003E0
F80003E0
F80003E0
ENDCHAR
STARTCHAR 0145
ENCODING 325
SWIDTH 720 0
DWIDTH 48 0
BBX 38 68 5 -19
BITMAP
FE000000FC
FF000000FC
FF000000FC
FF800000FC
FFC00000FC
FFC00000FC
FFE00000FC
FFF00000FC
FFF00000FC
FFF80000FC
FDF80000FC
FDFC0000FC
FCFE0000FC
FC7E0000FC
FC7F0000FC
FC3F8000FC
FC3F8000FC
FC1FC000FC
FC0FE000FC
FC0FE000FC
FC07F000FC
FC03F000FC
FC03F800FC
FC01FC00FC
FC00FC00FC
FC00FE00FC
FC007F00FC
FC007F00FC
FC003F80FC
FC001FC0FC
FC001FC0FC
FC000FE0FC
FC0007E0FC
FC0007F0FC
FC0003F8FC
FC0001F8FC
FC0001FCFC
FC0000FEFC
FC0000FEFC
FC00007FFC
FC00003FFC
FC00003FFC
FC00001FFC
FC00000FFC
FC00000FFC
FC000007FC
FC000007FC
FC000003FC
FC000001FC
0000000000
0000000000
0000000000
0000000000
0001FC0000
0001FC0000
0001FC0000
0001FC0000
0001FC0000
0001FC0000
0001FC0000
00001C0000
0000380000
0000380000
0000380000
0000780000
0001F00000
0001E00000
0001800000
ENDCHAR
STARTCHAR 0146
ENCODING 326
SWIDTH 555 0
DWIDTH 37 0
BBX 27 55 5 -19
BITMAP
0007F000
F83FFE00
F87FFF00
F9FFFF80
F9FFFFC0
FBE03FE0
FFC00FE0
FF0007E0
FF0007E0
FE0003E0
FC0003E0
FC0003E0
FC0003E0
FC0003E0
F80003E0
F80003E0
F80003E0
F80003E0
F80003E0
F80003E0
F80003E0
F80003E0
F80003E0
F80003E0
F80003E0
F80003E0
F80003E0
F80003E0
F80003E0
F80003E0
F80003E0
F80003E0
F80003E0
F80003E0
F80003E0
F80003E0
00000000
00000000
00000000
00000000
003F8000
003F8000
003F8000
003F8000
003F8000
003F8000
003F8000
00038000
00038000
00038000
00070000
00070000
003E0000
003C0000
00380000
ENDCHAR
STARTCHAR 0147
ENCODING 327
SWIDTH 720 0
DWIDTH 48 0
BBX 38 63 5 0
BITMAP
003C00F000
001E01F000
001F03E000
000F87C000
000FC7C000
0007CF8000
0003FF0000
0003FF0000
0001FE0000
0000FE0000
0000000000
0000000000
0000000000
0000000000
FE000000FC
FF000000FC
FF000000FC
FF800000FC
FFC00000FC
FFC00000FC
FFE00000FC
FFF00000FC
FFF00000FC
FFF80000FC
FDF80000FC
FDFC0000FC
FCFE0000FC
FC7E0000FC
FC7F0000FC
FC3F8000FC
FC3F8000FC
FC1FC000FC
FC0FE000FC
FC0FE000FC
FC07F000FC
FC03F000FC
FC03F800FC
FC01FC00FC
FC00FC00FC
FC00FE00FC
FC007F00FC
FC007F00FC
FC003F80FC
FC001FC0FC
FC001FC0FC
FC000FE0FC
FC0007E0FC
FC0007F0FC
FC0003F8FC
FC0001F8FC
FC0001FCFC
FC0000FEFC
FC0000FEFC
FC00007FFC
FC00003FFC
FC00003FFC
FC00001FFC
FC00000FFC
FC00000FFC
FC000007FC
FC000007FC
FC000003FC
FC000001FC
ENDCHAR
STARTCHAR 0148
ENCODING 328
SWIDTH 555 0
DWIDTH 37 0
BBX 27 50 5 0
BITMAP
0F803E00
07803C00
03C07C00
03E0F800
01F1F000
01FBF000
00FFE000
007FC000
007FC000
003F8000
00000000
00000000
00000000
00000000
000FF000
F83FFE00
F87FFF00
F9FFFF80
F9FFFFC0
FBE03FE0
FFC00FE0
FF0007E0
FF0007E0
FE0003E0
FC0003E0
FC0003E0
FC0003E0
FC0003E0
F80003E0
F80003E0
F80003E0
F80003E0
F80003E0
F80003E0
F80003E0
F80003E0
F80003E0
F80003E0
F80003E0
F80003E0
F80003E0
F80003E0
F80003E0
F80003E0
F80003E0
F80003E0
F80003E0
F80003E0
F80003E0
F80003E0
ENDCHAR
STARTCHAR 0149
ENCODING 329
SWIDTH 600 0
DWIDTH 40 0
BBX 35 51 1 0
BITMAP
FC00000000
FC00000000
FC00000000
FC00000000
FC00000000
FC00000000
FC00000000
1C00000000
1C00000000
1C00000000
1C00000000
3800000000
F800000000
F000000000
C000000000
00000FF000
01F07FFC00
01F0FFFF00
01F1FFFF80
01F3FFFF80
01F7E07FC0
01FF801FC0
01FF000FC0
01FE000FE0
01FC0007E0
01FC0007E0
01F80007E0
01F80007E0
01F80007E0
01F80007E0
01F80007E0
01F00007E0
01F00007E0
01F00007E0
01F00007E0
01F00007E0
01F00007E0
01F00007E0
01F00007E0
01F00007E0
01F00007E0
01F00007E0
01F00007E0
01F00007E0
01F00007E0
01F00007E0
01F00007E0
01F00007E0
01F00007E0
01F00007E0
01F00007E0
ENDCHAR
STARTCHAR 014A
ENCODING 330
SWIDTH 720 0
DWIDTH 48 0
BBX 36 70 6 -20
BITMAP
00007FC000
FC03FFF800
FC07FFFE00
FC1FFFFF00
FC3FFFFF80
FC7FFFFFC0
FCFE007FE0
FDF8001FE0
FDE0000FF0
FFC00007F0
FFC00007F0
FF800007F0
FF000003F0
FF000003F0
FF000003F0
FE000003F0
FE000003F0
FE000003F0
FE000003F0
FE000003F0
FE000003F0
FC000003F0
FC000003F0
FC000003F0
FC000003F0
FC000003F0
FC000003F0
FC000003F0
FC000003F0
FC000003F0
FC000003F0
FC000003F0
FC000003F0
FC000003F0
FC000003F0
FC000003F0
FC000003F0
FC000003F0
FC000003F0
FC000003F0
FC000003F0
FC000003F0
FC000003F0
FC000003F0
FC000003F0
FC000003F0
FC000003F0
FC000003F0
FC000003F0
FC000003F0
00000003F0
00000003F0
00000003F0
00000003F0
00000003F0
00000003F0
00000003F0
00000003F0
00000003F0
00000003F0
00000003F0
00000003F0
00000007F0
0000000FF0
000007FFE0
000007FFE0
000007FFC0
000007FF80
000007FF00
000007F800
ENDCHAR
STARTCHAR 014B
ENCODING 331
SWIDTH 555 0
DWIDTH 37 0
BBX 27 51 5 -15
BITMAP
0007F000
F83FFE00
F87FFF00
F8FFFF80
F9FFFFC0
FBF03FE0
FFC00FE0
FF0007E0
FF0007E0
FE0003E0
FC0003E0
FC0003E0
FC0003E0
FC0003E0
F80003E0
F80003E0
F80003E0
F80003E0
F80003E0
F80003E0
F80003E0
F80003E0
F80003E0
F80003E0
F80003E0
F80003E0
F80003E0
F80003E0
F80003E0
F80003E0
F80003E0
F80003E0
F80003E0
F80003E0
F80003E0
F80003E0
000003E0
000003E0
000003E0
000003E0
000003E0
000003E0
000003E0
000003E0
000007E0
00000FE0
0000FFE0
0000FFC0
0000FFC0
0000FF00
0000FC00
ENDCHAR
STARTCHAR 014C
ENCODING 332
SWIDTH 780 0
DWIDTH 52 0
BBX 46 63 3 -2
BITMAP
0003FFFF0000
0003FFFF0000
0003FFFF0000
0003FFFF0000
0003FFFF0000
000000000000
000000000000
000000000000
000000000000
000000000000
000000000000
00003FF00000
0003FFFF0000
000FFFFFC000
003FFFFFF000
007FFFFFF800
00FFFFFFFC00
01FF8007FE00
03FE0001FF00
07F800007F80
0FF000003FC0
0FE000001FE0
1FC000000FE0
3F80000007F0
3F80000007F0
3F00000003F8
7F00000003F8
7E00000001F8
7E00000001F8
FE00000001FC
FC00000000FC
FC00000000FC
FC00000000FC
FC00000000FC
FC00000000FC
FC00000000FC
FC00000000FC
FC00000000FC
FC00000000FC
FC00000000FC
FC00000000FC
FC00000000FC
FC00000000FC
FC00000000FC
FE00000001FC
7E00000001F8
7E00000001F8
7F00000003F8
3F00000003F0
3F80000007F0
3F80000007F0
1FC000000FE0
0FE000001FC0
0FF000003FC0
07F800007F80
03FE0001FF00
01FF8007FE00
00FFFFFFFC00
007FFFFFF800
003FFFFFF000
000FFFFFC000
0003FFFF0000
00003FF00000
ENDCHAR
STARTCHAR 014D
ENCODING 333
SWIDTH 555 0
DWIDTH 37 0
BBX 32 49 2 -2
BITMAP
01FFFF80
01FFFF80
01FFFF80
01FFFF80
01FFFF80
00000000
00000000
00000000
00000000
00000000
00000000
000FF800
007FFF00
01FFFF80
03FFFFE0
07FFFFF0
0FFC1FF0
0FE007F8
1FC003FC
3F8001FC
3F0000FC
3F00007E
7E00007E
7E00007E
7E00003F
7E00003F
7C00003F
7C00003F
FC00003F
FC00003F
FC00003F
FC00003F
7C00003F
7C00003F
7E00003F
7E00003F
7E00007E
7F00007E
3F00007E
3F0000FC
3F8001FC
1FC003FC
1FE007F8
0FFC1FF0
07FFFFE0
03FFFFC0
01FFFF80
007FFE00
000FF000
ENDCHAR
STARTCHAR 014E
ENCODING 334
SWIDTH 780 0
DWIDTH 52 0
BBX 46 64 3 -2
BITMAP
000780078000
0007800F8000
0007C00F0000
0003F03F0000
0003FFFF0000
0001FFFE0000
0000FFFC0000
00007FF00000
000003000000
000000000000
000000000000
000000000000
00003FF00000
0003FFFF0000
000FFFFFC000
003FFFFFF000
007FFFFFF800
00FFFFFFFC00
01FF8007FE00
03FE0001FF00
07F800007F80
0FF000003FC0
0FE000001FE0
1FC000000FE0
3F80000007F0
3F80000007F0
3F00000003F8
7F00000003F8
7E00000001F8
7E00000001F8
FE00000001FC
FC00000000FC
FC00000000FC
FC00000000FC
FC00000000FC
FC00000000FC
FC00000000FC
FC00000000FC
FC00000000FC
FC00000000FC
FC00000000FC
FC00000000FC
FC00000000FC
FC00000000FC
FC00000000FC
FE00000001FC
7E00000001F8
7E00000001F8
7F00000003F8
3F00000003F0
3F80000007F0
3F80000007F0
1FC000000FE0
0FE000001FC0
0FF000003FC0
07F800007F80
03FE0001FF00
01FF8007FE00
00FFFFFFFC00
007FFFFFF800
003FFFFFF000
000FFFFFC000
0003FFFF0000
00003FF00000
ENDCHAR
STARTCHAR 014F
ENCODING 335
SWIDTH 555 0
DWIDTH 37 0
BBX 32 51 2 -2
BITMAP
03C003C0
03C003C0
03E007C0
01F00F80
01FFFF80
00FFFF00
007FFE00
003FFC00
000FF000
00000000
00000000
00000000
00000000
000FF800
007FFF00
01FFFF80
03FFFFE0
07FFFFF0
0FFC1FF0
0FE007F8
1FC003FC
3F8001FC
3F0000FC
3F00007E
7E00007E
7E00007E
7E00003F
7E00003F
7C00003F
7C00003F
FC00003F
FC00003F
FC00003F
FC00003F
7C00003F
7C00003F
7E00003F
7E00003F
7E00007E
7F00007E
3F00007E
3F0000FC
3F8001FC
1FC003FC
1FE007F8
0FFC1FF0
07FFFFE0
03FFFFC0
01FFFF80
007FFE00
000FF000
ENDCHAR
STARTCHAR 0150
ENCODING 336
SWIDTH 780 0
DWIDTH 52 0
BBX 46 65 3 -2
BITMAP
000007F0FF00
00000FE0FE00
00000FC1FC00
00001F83F800
00003F03F000
00003E07E000
00007C07C000
0000F80F8000
0000F01F0000
0001E01E0000
000000000000
000000000000
000000000000
00003FF00000
0003FFFF0000
000FFFFFC000
003FFFFFF000
007FFFFFF800
00FFFFFFFC00
01FF8007FE00
03FE0001FF00
07F800007F80
0FF000003FC0
0FE000001FE0
1FC000000FE0
3F80000007F0
3F80000007F0
3F00000003F8
7F00000003F8
7E00000001F8
7E00000001F8
FE00000001FC
FC00000000FC
FC00000000FC
FC00000000FC
FC00000000FC
FC00000000FC
FC00000000FC
FC00000000FC
FC00000000FC
FC00000000FC
FC00000000FC
FC00000000FC
FC00000000FC
FC00000000FC
FC00000000FC
FE00000001FC
7E00000001F8
7E00000001F8
7F00000003F8
3F00000003F0
3F80000007F0
3F80000007F0
1FC000000FE0
0FE000001FC0
0FF000003FC0
07F800007F80
03FE0001FF00
01FF8007FE00
00FFFFFFFC00
007FFFFFF800
003FFFFFF000
000FFFFFC000
0003FFFF0000
00003FF00000
ENDCHAR
STARTCHAR 0151
ENCODING 337
SWIDTH 555 0
DWIDTH 37 0
BBX 33 52 2 -2
BITMAP
0003F87F80
0007F07F00
000FE0FE00
000FC1FC00
001F81F800
001F03F000
003E03E000
007C07C000
00780F8000
00F00F0000
0000000000
0000000000
0000000000
0000000000
000FF80000
007FFF0000
01FFFF8000
03FFFFE000
07FFFFF000
0FFC1FF000
0FE007F800
1FC003FC00
3F8001FC00
3F0000FC00
3F00007E00
7E00007E00
7E00007E00
7E00003F00
7E00003F00
7C00003F00
7C00003F00
FC00003F00
FC00003F00
FC00003F00
FC00003F00
7C00003F00
7C00003F00
7E00003F00
7E00003F00
7E00007E00
7F00007E00
3F00007E00
3F0000FC00
3F8001FC00
1FC003FC00
1FE007F800
0FFC1FF000
07FFFFE000
03FFFFC000
01FFFF8000
007FFE0000
000FF00000
ENDCHAR
STARTCHAR 0152
ENCODING 338
SWIDTH 1005 0
DWIDTH 67 0
BBX 61 51 3 -1
BITMAP
0000FF0000000000
000FFFE0FFFFFFF8
003FFFF8FFFFFFF8
007FFFFCFFFFFFF8
01FFFFFEFFFFFFF8
03FFEFFFFFFFFFF8
03FC007FFC000000
07F8001FFC000000
0FE0000FFC000000
1FC00007FC000000
1FC00003FC000000
3F800001FC000000
3F000001FC000000
3F000000FC000000
7F000000FC000000
7E000000FC000000
7E000000FC000000
7E000000FC000000
FE000000FC000000
FC000000FC000000
FC000000FC000000
FC000000FC000000
FC000000FC000000
FC000000FFFFFFF0
FC000000FFFFFFF0
FC000000FFFFFFF0
FC000000FFFFFFF0
FC000000FFFFFFF0
FC000000FC000000
FC000000FC000000
FC000000FC000000
FC000000FC000000
FE000000FC000000
7E000000FC000000
7E000000FC000000
7E000000FC000000
7F000000FC000000
3F000000FC000000
3F000001FC000000
3F800001FC000000
1FC00003FC000000
1FC00007FC000000
0FE0000FFC000000
07F8001FFC000000
07FE007FFC000000
03FFEFFEFFFFFFF8
01FFFFFEFFFFFFF8
00FFFFFCFFFFFFF8
003FFFF0FFFFFFF8
000FFFE0FFFFFFF8
0001FF0000000000
ENDCHAR
STARTCHAR 0153
ENCODING 339
SWIDTH 945 0
DWIDTH 63 0
BBX 57 38 3 -2
BITMAP
001FF00007FC0000
00FFFE001FFF0000
01FFFF007FFFC000
07FFFFC0FFFFF000
0FFFFFE1FFFFF800
1FF83FF3FE0FF800
1FE00FF7F003FC00
3F8003FFE000FE00
3F0001FFC0007E00
7F0001FF80007F00
7E0000FF80003F00
7E0000FF00003F00
FC00007F00001F00
FC00007F00001F80
FC00007F00001F80
FC00007E00001F80
FC00007FFFFFFF80
FC00007FFFFFFF80
F800007FFFFFFF80
F800007FFFFFFF80
FC00007FFFFFFF80
FC00007E00000000
FC00007E00000000
FC00007E00000000
FC00007F00000000
FC00007F00000000
7E0000FF00003F00
7E0000FF80003F00
7F0001FF80007E00
3F0001FFC0007E00
3F8003FFE000FE00
1FE00FF7F001FC00
1FF83FE7FE0FF800
0FFFFFE3FFFFF800
07FFFFC1FFFFF000
03FFFF00FFFFC000
00FFFE003FFF0000
001FF00007F80000
ENDCHAR
STARTCHAR 0154
ENCODING 340
SWIDTH 720 0
DWIDTH 48 0
BBX 39 63 6 0
BITMAP
00001FE000
00001FC000
00003F8000
00007F0000
00007E0000
0000FC0000
0001F80000
0001F00000
0003E00000
0007C00000
0000000000
0000000000
0000000000
0000000000
FFFFFFF000
FFFFFFFE00
FFFFFFFF80
FFFFFFFFC0
FFFFFFFFE0
FC0003FFE0
FC00001FF0
FC000007F0
FC000007F8
FC000003F8
FC000003F8
FC000001F8
FC000001F8
FC000001F8
FC000001F8
FC000001F8
FC000001F8
FC000003F8
FC000003F8
FC000003F0
FC000007E0
FC00001FE0
FC0003FFC0
FFFFFFFF00
FFFFFFFE00
FFFFFFFE00
FFFFFFFF80
FFFFFFFFC0
FC00003FE0
FC00000FE0
FC000007F0
FC000007F0
FC000003F0
FC000003F0
FC000003F0
FC000003F0
FC000003F0
FC000003F0
FC000003F0
FC000003F0
FC000003F0
FC000003F8
FC000003F8
FC000003F8
FC000001F8
FC000001F8
FC000001FC
FC000001FE
FC000000FE
ENDCHAR
STARTCHAR 0155
ENCODING 341
SWIDTH 330 0
DWIDTH 22 0
BBX 17 50 5 0
BITMAP
007F80
007F00
00FE00
01FC00
01F800
03F000
07E000
07C000
0F8000
0F0000
000000
000000
000000
000000
000F00
F83F00
F87F00
F8FF00
F9FF00
FBFF00
FFE000
FF8000
FF0000
FE0000
FE0000
FC0000
FC0000
FC0000
F80000
F80000
F80000
F80000
F80000
F80000
F80000
F80000
F80000
F80000
F80000
F80000
F80000
F80000
F80000
F80000
F80000
F80000
F80000
F80000
F80000
F80000
ENDCHAR
STARTCHAR 0156
ENCODING 342
SWIDTH 720 0
DWIDTH 48 0
BBX 39 68 6 -19
BITMAP
FFFFFFF000
FFFFFFFE00
FFFFFFFF80
FFFFFFFFC0
FFFFFFFFE0
FC0003FFE0
FC00001FF0
FC000007F0
FC000007F8
FC000003F8
FC000003F8
FC000001F8
FC000001F8
FC000001F8
FC000001F8
FC000001F8
FC000001F8
FC000003F8
FC000003F8
FC000003F0
FC000007E0
FC00001FE0
FC0003FFC0
FFFFFFFF00
FFFFFFFE00
FFFFFFFE00
FFFFFFFF80
FFFFFFFFC0
FC00003FE0
FC00000FE0
FC000007F0
FC000007F0
FC000003F0
FC000003F0
FC000003F0
FC000003F0
FC000003F0
FC000003F0
FC000003F0
FC000003F0
FC000003F0
FC000003F8
FC000003F8
FC000003F8
FC000001F8
FC000001F8
FC000001FC
FC000001FE
FC000000FE
0000000000
0000000000
0000000000
0000000000
0001FC0000
0001FC0000
0001FC0000
0001FC0000
0001FC0000
0001FC0000
0001FC0000
00001C0000
00001C0000
00001C0000
0000380000
0000380000
0001F00000
0001E00000
0001C00000
ENDCHAR
STARTCHAR 0157
ENCODING 343
SWIDTH 330 0
DWIDTH 22 0
BBX 17 55 4 -19
BITMAP
000780
7C1F80
7C3F80
7C7F80
7CFF80
7DFF80
7FF000
7FC000
7F8000
7F0000
7F0000
7E0000
7E0000
7E0000
7C0000
7C0000
7C0000
7C0000
7C0000
7C0000
7C0000
7C0000
7C0000
7C0000
7C0000
7C0000
7C0000
7C0000
7C0000
7C0000
7C0000
7C0000
7C0000
7C0000
7C0000
7C0000
000000
000000
000000
000000
FE0000
FE0000
FE0000
FE0000
FE0000
FE0000
FE0000
0E0000
0E0000
0E0000
1C0000
1C0000
F80000
F80000
E00000
ENDCHAR
STARTCHAR 0158
ENCODING 344
SWIDTH 720 0
DWIDTH 48 0
BBX 39 63 6 0
BITMAP
007801E000
007C03C000
003E07C000
003E0F8000
001F1F0000
000FBF0000
000FFE0000
0007FC0000
0003FC0000
0003F80000
0000000000
0000000000
0000000000
0000000000
FFFFFFF000
FFFFFFFE00
FFFFFFFF80
FFFFFFFFC0
FFFFFFFFE0
FC0003FFE0
FC00001FF0
FC000007F0
FC000007F8
FC000003F8
FC000003F8
FC000001F8
FC000001F8
FC000001F8
FC000001F8
FC000001F8
FC000001F8
FC000003F8
FC000003F8
FC000003F0
FC000007E0
FC00001FE0
FC0003FFC0
FFFFFFFF00
FFFFFFFE00
FFFFFFFE00
FFFFFFFF80
FFFFFFFFC0
FC00003FE0
FC00000FE0
FC000007F0
FC000007F0
FC000003F0
FC000003F0
FC000003F0
FC000003F0
FC000003F0
FC000003F0
FC000003F0
FC000003F0
FC000003F0
FC000003F8
FC000003F8
FC000003F8
FC000001F8
FC000001F8
FC000001FC
FC000001FE
FC000000FE
ENDCHAR
STARTCHAR 0159
ENCODING 345
SWIDTH 330 0
DWIDTH 22 0
BBX 19 50 3 0
BITMAP
F801E0
7C03C0
3C07C0
3E0F80
1F1F80
0F9F00
0FFE00
07FE00
07FC00
03F800
000000
000000
000000
000000
0003C0
3E0FC0
3E1FC0
3E3FC0
3E7FC0
3EFFC0
3FF800
3FE000
3FC000
3F8000
3F8000
3F0000
3F0000
3F0000
3E0000
3E0000
3E0000
3E0000
3E0000
3E0000
3E0000
3E0000
3E0000
3E0000
3E0000
3E0000
3E0000
3E0000
3E0000
3E0000
3E0000
3E0000
3E0000
3E0000
3E0000
3E0000
ENDCHAR
STARTCHAR 015A
ENCODING 346
SWIDTH 660 0
DWIDTH 44 0
BBX 38 65 3 -2
BITMAP
000007F000
00000FE000
00001FC000
00001F8000
00003F0000
00007E0000
00007C0000
0000F80000
0001F00000
0001E00000
0000000000
0000000000
0000000000
0003FF0000
003FFFF000
00FFFFFC00
01FFFFFE00
03FFFFFF80
07FF03FFC0
0FF0003FC0
1FE0001FE0
1FC0000FE0
1F800007F0
3F800003F0
3F000003F8
3F000001F8
3F000001F8
3F000001F8
3F00000000
3F00000000
3F80000000
3FC0000000
1FF0000000
1FFC000000
0FFFC00000
0FFFF80000
03FFFF8000
01FFFFF800
007FFFFE00
000FFFFF80
0000FFFFC0
00000FFFE0
000001FFF0
0000003FF8
0000000FF8
00000003FC
00000001FC
00000000FC
FC000000FC
FC000000FC
FC000000FC
7E000000FC
7E000000FC
7E000000FC
7F000001FC
3F800001F8
3FC00003F8
1FE00007F0
1FF8001FF0
0FFFE7FFE0
07FFFFFFC0
01FFFFFF80
00FFFFFE00
003FFFF800
0003FF8000
ENDCHAR
STARTCHAR 015B
ENCODING 347
SWIDTH 495 0
DWIDTH 33 0
BBX 29 52 2 -2
BITMAP
0000FE00
0001FC00
0001F800
0003F000
0003F000
0007E000
000FC000
000F8000
001F0000
003E0000
00000000
00000000
00000000
00000000
003FE000
01FFFC00
07FFFF00
0FFFFF80
1FFFFF80
1FE07FC0
3F801FC0
3F000FE0
7E0007E0
7E0007E0
7E0007E0
7E000000
7F000000
7F000000
3FC00000
3FF80000
1FFF8000
0FFFF800
07FFFE00
01FFFF80
003FFFC0
0003FFE0
00003FF0
00000FF0
000003F0
000003F8
FC0001F8
FC0001F8
7E0001F0
7E0003F0
7F0003F0
7F800FF0
3FF03FE0
3FFFFFC0
1FFFFF80
0FFFFF00
03FFFC00
007FE000
ENDCHAR
STARTCHAR 015C
ENCODING 348
SWIDTH 660 0
DWIDTH 44 0
BBX 38 65 3 -2
BITMAP
0001FE0000
0001FE0000
0003FF0000
0007FF8000
0007CF8000
000F87C000
000F03E000
001F03E000
003E01F000
003C00F000
0000000000
0000000000
0000000000
0003FF0000
003FFFF000
00FFFFFC00
01FFFFFE00
03FFFFFF80
07FF03FFC0
0FF0003FC0
1FE0001FE0
1FC0000FE0
1F800007F0
3F800003F0
3F000003F8
3F000001F8
3F000001F8
3F000001F8
3F00000000
3F00000000
3F80000000
3FC0000000
1FF0000000
1FFC000000
0FFFC00000
0FFFF80000
03FFFF8000
01FFFFF800
007FFFFE00
000FFFFF80
0000FFFFC0
00000FFFE0
000001FFF0
0000003FF8
0000000FF8
00000003FC
00000001FC
00000000FC
FC000000FC
FC000000FC
FC000000FC
7E000000FC
7E000000FC
7E000000FC
7F000001FC
3F800001F8
3FC00003F8
1FE00007F0
1FF8001FF0
0FFFE7FFE0
07FFFFFFC0
01FFFFFF80
00FFFFFE00
003FFFF800
0003FF8000
ENDCHAR
STARTCHAR 015D
ENCODING 349
SWIDTH 495 0
DWIDTH 33 0
BBX 29 52 2 -2
BITMAP
001FC000
001FE000
003FE000
007FF000
007DF800
00F8F800
01F07C00
01F03C00
03E03E00
03C01F00
00000000
00000000
00000000
00000000
003FE000
01FFFC00
07FFFF00
0FFFFF80
1FFFFF80
1FE07FC0
3F801FC0
3F000FE0
7E0007E0
7E0007E0
7E0007E0
7E000000
7F000000
7F000000
3FC00000
3FF80000
1FFF8000
0FFFF800
07FFFE00
01FFFF80
003FFFC0
0003FFE0
00003FF0
00000FF0
000003F0
000003F8
FC0001F8
FC0001F8
7E0001F0
7E0003F0
7F0003F0
7F800FF0
3FF03FE0
3FFFFFC0
1FFFFF80
0FFFFF00
03FFFC00
007FE000
ENDCHAR
STARTCHAR 015E
ENCODING 350
SWIDTH 660 0
DWIDTH 44 0
BBX 39 64 3 -14
BITMAP
0003FF8000
001FFFF000
007FFFFC00
01FFFFFF00
03FFFFFF80
07FF03FFC0
0FF8003FE0
0FE0001FE0
1FC00007F0
1F800007F0
3F800003F0
3F000003F8
3F000001F8
3F000001F8
3F000001F8
3F00000000
3F80000000
3F80000000
3FE0000000
1FF0000000
1FFE000000
0FFFE00000
07FFFC0000
03FFFFC000
00FFFFFC00
003FFFFF00
0003FFFFC0
00007FFFE0
000007FFF0
0000007FF8
0000001FF8
00000007FC
00000003FC
00000001FC
FC000000FC
FC000000FE
FC000000FE
7E000000FE
7E000000FC
7E000000FC
7F000000FC
3F800001FC
3F800003F8
1FE00007F8
1FF0000FF0
0FFE007FE0
07FFFFFFE0
03FFFFFF80
01FFFFFF00
007FFFFC00
000FFFF000
0000700000
0000E00000
0000E00000
0000FF0000
0001FF8000
00000FC000
00000FC000
000007C000
00200F8000
003C0F8000
007FFF0000
001FFE0000
0003F80000
ENDCHAR
STARTCHAR 015F
ENCODING 351
SWIDTH 495 0
DWIDTH 33 0
BBX 29 50 2 -14
BITMAP
003FE000
01FFFC00
07FFFF00
0FFFFF80
1FFFFF80
1FE07FC0
3F801FE0
3F000FE0
7E0007E0
7E0007E0
7E0007E0
7E000000
7F000000
7F800000
3FC00000
3FFC0000
1FFFC000
0FFFFC00
03FFFF00
00FFFFC0
001FFFE0
0001FFE0
00001FF0
000007F0
000003F0
000001F8
FC0001F8
FE0001F8
7E0001F0
7E0003F0
7F0007F0
3FC01FE0
3FFFFFE0
1FFFFFC0
0FFFFF80
07FFFE00
01FFF800
000E0000
001C0000
00180000
003FE000
003FF000
0003F000
0001F000
0001F000
0401F000
0703F000
0FFFE000
03FFC000
00FF0000
ENDCHAR
STARTCHAR 0160
ENCODING 352
SWIDTH 660 0
DWIDTH 44 0
BBX 38 65 3 -2
BITMAP
003E00F000
001E01F000
001F03E000
000F87C000
0007C7C000
0007EF8000
0003FF0000
0001FF0000
0001FE0000
0000FC0000
0000000000
0000000000
0000000000
0003FF0000
003FFFF000
00FFFFFC00
01FFFFFE00
03FFFFFF80
07FF03FFC0
0FF0003FC0
1FE0001FE0
1FC0000FE0
1F800007F0
3F800003F0
3F000003F8
3F000001F8
3F000001F8
3F000001F8
3F00000000
3F00000000
3F80000000
3FC0000000
1FF0000000
1FFC000000
0FFFC00000
0FFFF80000
03FFFF8000
01FFFFF800
007FFFFE00
000FFFFF80
0000FFFFC0
00000FFFE0
000001FFF0
0000003FF8
0000000FF8
00000003FC
00000001FC
00000000FC
FC000000FC
FC000000FC
FC000000FC
7E000000FC
7E000000FC
7E000000FC
7F000001FC
3F800001F8
3FC00003F8
1FE00007F0
1FF8001FF0
0FFFE7FFE0
07FFFFFFC0
01FFFFFF80
00FFFFFE00
003FFFF800
0003FF8000
ENDCHAR
STARTCHAR 0161
ENCODING 353
SWIDTH 495 0
DWIDTH 33 0
BBX 29 52 2 -2
BITMAP
07801F00
03C01E00
03E03C00
01F07C00
00F8F800
00FDF800
007DF000
007FE000
003FE000
001FC000
00000000
00000000
00000000
00000000
003FE000
01FFFC00
07FFFF00
0FFFFF80
1FFFFF80
1FE07FC0
3F801FC0
3F000FE0
7E0007E0
7E0007E0
7E0007E0
7E000000
7F000000
7F000000
3FC00000
3FF80000
1FFF8000
0FFFF800
07FFFE00
01FFFF80
003FFFC0
0003FFE0
00003FF0
00000FF0
000003F0
000003F8
FC0001F8
FC0001F8
7E0001F0
7E0003F0
7F0003F0
7F800FF0
3FF03FE0
3FFFFFC0
1FFFFF80
0FFFFF00
03FFFC00
007FE000
ENDCHAR
STARTCHAR 0162
ENCODING 354
SWIDTH 615 0
DWIDTH 41 0
BBX 39 63 1 -14
BITMAP
FFFFFFFFFE
FFFFFFFFFE
FFFFFFFFFE
FFFFFFFFFE
FFFFFFFFFE
0000FE0000
0000FE0000
0000FE0000
0000FE0000
0000FE0000
0000FE0000
0000FE0000
0000FE0000
0000FE0000
0000FE0000
0000FE0000
0000FE0000
0000FE0000
0000FE0000
0000FE0000
0000FE0000
0000FE0000
0000FE0000
0000FE0000
0000FE0000
0000FE0000
0000FE0000
0000FE0000
0000FE0000
0000FE0000
0000FE0000
0000FE0000
0000FE0000
0000FE0000
0000FE0000
0000FE0000
0000FE0000
0000FE0000
0000FE0000
0000FE0000
0000FE0000
0000FE0000
0000FE0000
0000FE0000
0000FE0000
0000FE0000
0000FE0000
0000FE0000
0000FE0000
00001C0000
0000180000
0000380000
0000380000
00007FC000
00007FE000
000003F000
000001F000
000001F000
000803F000
000F03E000
001FFFC000
0007FF8000
0000FE0000
ENDCHAR
STARTCHAR 0163
ENCODING 355
SWIDTH 285 0
DWIDTH 19 0
BBX 16 60 1 -15
BITMAP
07C0
07C0
07C0
07C0
07C0
07C0
07C0
07C0
07C0
07C0
FFFF
FFFF
FFFF
FFFF
FFFF
07C0
07C0
07C0
07C0
07C0
07C0
07C0
07C0
07C0
07C0
07C0
07C0
07C0
07C0
07C0
07C0
07C0
07C0
07C0
07C0
07C0
07C0
07C0
07C0
07C0
07C0
07E0
07FF
07FF
07FF
03FF
00FF
01C0
0180
03FC
03FE
07FF
001F
001F
001F
601F
F83E
FFFE
3FF8
03C0
ENDCHAR
STARTCHAR 0164
ENCODING 356
SWIDTH 615 0
DWIDTH 41 0
BBX 39 63 1 0
BITMAP
003E00F800
001E01F000
000F01E000
000F83E000
0007C7C000
0007EFC000
0003FF8000
0001FF0000
0001FF0000
0000FE0000
0000000000
0000000000
0000000000
0000000000
FFFFFFFFFE
FFFFFFFFFE
FFFFFFFFFE
FFFFFFFFFE
FFFFFFFFFE
0000FE0000
0000FE0000
0000FE0000
0000FE0000
0000FE0000
0000FE0000
0000FE0000
0000FE0000
0000FE0000
0000FE0000
0000FE0000
0000FE0000
0000FE0000
0000FE0000
0000FE0000
0000FE0000
0000FE0000
0000FE0000
0000FE0000
0000FE0000
0000FE0000
0000FE0000
0000FE0000
0000FE0000
0000FE0000
0000FE0000
0000FE0000
0000FE0000
0000FE0000
0000FE0000
0000FE0000
0000FE0000
0000FE0000
0000FE0000
0000FE0000
0000FE0000
0000FE0000
0000FE0000
0000FE0000
0000FE0000
0000FE0000
0000FE0000
0000FE0000
0000FE0000
ENDCHAR
STARTCHAR 0165
ENCODING 357
SWIDTH 315 0
DWIDTH 21 0
BBX 20 56 1 -2
BITMAP
0003F0
0003F0
0003F0
0003F0
0003F0
0003F0
0003F0
000070
000070
07C070
07C070
07C0F0
07C1E0
07C3C0
07C380
07C000
07C000
07C000
07C000
FFFF00
FFFF00
FFFF00
FFFF00
FFFF00
07C000
07C000
07C000
07C000
07C000
07C000
07C000
07C000
07C000
07C000
07C000
07C000
07C000
07C000
07C000
07C000
07C000
07C000
07C000
07C000
07C000
07C000
07C000
07C000
07C000
07C000
07E000
07FF00
07FF00
07FF00
03FF00
00FF00
ENDCHAR
STARTCHAR 0166
ENCODING 358
SWIDTH 615 0
DWIDTH 41 0
BBX 39 49 1 0
BITMAP
FFFFFFFFFE
FFFFFFFFFE
FFFFFFFFFE
FFFFFFFFFE
FFFFFFFFFE
0000FE0000
0000FE0000
0000FE0000
0000FE0000
0000FE0000
0000FE0000
0000FE0000
0000FE0000
0000FE0000
0000FE0000
0000FE0000
0000FE0000
0000FE0000
03FFFFFF80
03FFFFFF80
03FFFFFF80
03FFFFFF80
0000FE0000
0000FE0000
0000FE0000
0000FE0000
0000FE0000
0000FE0000
0000FE0000
0000FE0000
0000FE0000
0000FE0000
0000FE0000
0000FE0000
0000FE0000
0000FE0000
0000FE0000
0000FE0000
0000FE0000
0000FE0000
0000FE0000
0000FE0000
0000FE0000
0000FE0000
0000FE0000
0000FE0000
0000FE0000
0000FE0000
0000FE0000
ENDCHAR
STARTCHAR 0167
ENCODING 359
SWIDTH 285 0
DWIDTH 19 0
BBX 16 47 1 -2
BITMAP
07C0
07C0
07C0
07C0
07C0
07C0
07C0
07C0
07C0
07C0
FFFF
FFFF
FFFF
FFFF
FFFF
07C0
07C0
07C0
07C0
07C0
7FFE
7FFE
7FFE
7FFE
07C0
07C0
07C0
07C0
07C0
07C0
07C0
07C0
07C0
07C0
07C0
07C0
07C0
07C0
07C0
07C0
07C0
07E0
07FF
07FF
07FF
03FF
00FF
ENDCHAR
STARTCHAR 0168
ENCODING 360
SWIDTH 720 0
DWIDTH 48 0
BBX 37 63 6 -2
BITMAP
003F80F000
007FF1F000
007FFFF000
00FFFFE000
00F0FFC000
00E03F8000
0000020000
0000000000
0000000000
0000000000
0000000000
0000000000
FC000001F8
FC000001F8
FC000001F8
FC000001F8
FC000001F8
FC000001F8
FC000001F8
FC000001F8
FC000001F8
FC000001F8
FC000001F8
FC000001F8
FC000001F8
FC000001F8
FC000001F8
FC000001F8
FC000001F8
FC000001F8
FC000001F8
FC000001F8
FC000001F8
FC000001F8
FC000001F8
FC000001F8
FC000001F8
FC000001F8
FC000001F8
FC000001F8
FC000001F8
FC000001F8
FC000001F8
FC000001F8
FC000001F8
FC000001F8
FC000001F8
FC000001F8
FC000001F8
FC000001F8
FC000003F8
FE000003F0
7E000007F0
7F000007F0
7F80000FE0
3FC0003FE0
1FF000FFC0
1FFFDFFF80
0FFFFFFF00
03FFFFFE00
01FFFFF800
007FFFE000
0007FE0000
ENDCHAR
STARTCHAR 0169
ENCODING 361
SWIDTH 555 0
DWIDTH 37 0
BBX 28 50 4 -2
BITMAP
01F00780
03FE0F00
07FFFF00
07FFFF00
0FFFFE00
0F07FC00
0F00F800
00000000
00000000
00000000
00000000
00000000
00000000
FC0001F0
FC0001F0
FC0001F0
FC0001F0
FC0001F0
FC0001F0
FC0001F0
FC0001F0
FC0001F0
FC0001F0
FC0001F0
FC0001F0
FC0001F0
FC0001F0
FC0001F0
FC0001F0
FC0001F0
FC0001F0
FC0001F0
FC0001F0
FC0001F0
FC0001F0
FC0003F0
FC0003F0
FC0003F0
FC0003F0
FC0007F0
FC0007F0
FE000FF0
7E001FF0
7F003FF0
7FC0FDF0
3FFFF9F0
3FFFF1F0
1FFFE1F0
07FF8000
01FC0000
ENDCHAR
STARTCHAR 016A
ENCODING 362
SWIDTH 720 0
DWIDTH 48 0
BBX 37 63 6 -2
BITMAP
007FFFE000
007FFFE000
007FFFE000
007FFFE000
007FFFE000
0000000000
0000000000
0000000000
0000000000
0000000000
0000000000
0000000000
FC000001F8
FC000001F8
FC000001F8
FC000001F8
FC000001F8
FC000001F8
FC000001F8
FC000001F8
FC000001F8
FC000001F8
FC000001F8
FC000001F8
FC000001F8
FC000001F8
FC000001F8
FC000001F8
FC000001F8
FC000001F8
FC000001F8
FC000001F8
FC000001F8
FC000001F8
FC000001F8
FC000001F8
FC000001F8
FC000001F8
FC000001F8
FC000001F8
FC000001F8
FC000001F8
FC000001F8
FC000001F8
FC000001F8
FC000001F8
FC000001F8
FC000001F8
FC000001F8
FC000001F8
FC000003F8
FE000003F0
7E000007F0
7F000007F0
7F80000FE0
3FC0003FE0
1FF000FFC0
1FFFDFFF80
0FFFFFFF00
03FFFFFE00
01FFFFF800
007FFFE000
0007FE0000
ENDCHAR
STARTCHAR 016B
ENCODING 363
SWIDTH 555 0
DWIDTH 37 0
BBX 28 49 4 -2
BITMAP
07FFFE00
07FFFE00
07FFFE00
07FFFE00
07FFFE00
00000000
00000000
00000000
00000000
00000000
00000000
00000000
FC0001F0
FC0001F0
FC0001F0
FC0001F0
FC0001F0
FC0001F0
FC0001F0
FC0001F0
FC0001F0
FC0001F0
FC0001F0
FC0001F0
FC0001F0
FC0001F0
FC0001F0
FC0001F0
FC0001F0
FC0001F0
FC0001F0
FC0001F0
FC0001F0
FC0001F0
FC0003F0
FC0003F0
FC0003F0
FC0003F0
FC0007F0
FC0007F0
FE000FF0
7E001FF0
7F003FF0
7FC0FDF0
3FFFF9F0
3FFFF1F0
1FFFE1F0
07FF8000
01FC0000
ENDCHAR
STARTCHAR 016C
ENCODING 364
SWIDTH 720 0
DWIDTH 48 0
BBX 37 64 6 -2
BITMAP
00F000F000
00F000F000
00F801F000
007E07E000
007FFFE000
003FFFC000
001FFF8000
0007FE0000
0000600000
0000000000
0000000000
0000000000
0000000000
FC000001F8
FC000001F8
FC000001F8
FC000001F8
FC000001F8
FC000001F8
FC000001F8
FC000001F8
FC000001F8
FC000001F8
FC000001F8
FC000001F8
FC000001F8
FC000001F8
FC000001F8
FC000001F8
FC000001F8
FC000001F8
FC000001F8
FC000001F8
FC000001F8
FC000001F8
FC000001F8
FC000001F8
FC000001F8
FC000001F8
FC000001F8
FC000001F8
FC000001F8
FC000001F8
FC000001F8
FC000001F8
FC000001F8
FC000001F8
FC000001F8
FC000001F8
FC000001F8
FC000001F8
FC000003F8
FE000003F0
7E000007F0
7F000007F0
7F80000FE0
3FC0003FE0
1FF000FFC0
1FFFDFFF80
0FFFFFFF00
03FFFFFE00
01FFFFF800
007FFFE000
0007FE0000
ENDCHAR
STARTCHAR 016D
ENCODING 365
SWIDTH 555 0
DWIDTH 37 0
BBX 28 51 4 -2
BITMAP
07800780
07800F00
07800F00
07E01F00
07FFFE00
03FFFE00
01FFFC00
00FFF800
001FC000
00000000
00000000
00000000
00000000
00000000
FC0001F0
FC0001F0
FC0001F0
FC0001F0
FC0001F0
FC0001F0
FC0001F0
FC0001F0
FC0001F0
FC0001F0
FC0001F0
FC0001F0
FC0001F0
FC0001F0
FC0001F0
FC0001F0
FC0001F0
FC0001F0
FC0001F0
FC0001F0
FC0001F0
FC0001F0
FC0003F0
FC0003F0
FC0003F0
FC0003F0
FC0007F0
FC0007F0
FE000FF0
7E001FF0
7F003FF0
7FC0FDF0
3FFFF9F0
3FFFF1F0
1FFFE1F0
07FF8000
01FC0000
ENDCHAR
STARTCHAR 016E
ENCODING 366
SWIDTH 720 0
DWIDTH 48 0
BBX 37 66 6 -2
BITMAP
0000F80000
0001FC0000
0003FE0000
00078F0000
0007070000
000E070000
000E070000
0007070000
00078F0000
0003FE0000
0003FC0000
0000F00000
0000000000
0000000000
0000000000
FC000001F8
FC000001F8
FC000001F8
FC000001F8
FC000001F8
FC000001F8
FC000001F8
FC000001F8
FC000001F8
FC000001F8
FC000001F8
FC000001F8
FC000001F8
FC000001F8
FC000001F8
FC000001F8
FC000001F8
FC000001F8
FC000001F8
FC000001F8
FC000001F8
FC000001F8
FC000001F8
FC000001F8
FC000001F8
FC000001F8
FC000001F8
FC000001F8
FC000001F8
FC000001F8
FC000001F8
FC000001F8
FC000001F8
FC000001F8
FC000001F8
FC000001F8
FC000001F8
FC000001F8
FC000003F8
FE000003F0
7E000007F0
7F000007F0
7F80000FE0
3FC0003FE0
1FF000FFC0
1FFFDFFF80
0FFFFFFF00
03FFFFFE00
01FFFFF800
007FFFE000
0007FE0000
ENDCHAR
STARTCHAR 016F
ENCODING 367
SWIDTH 555 0
DWIDTH 37 0
BBX 28 52 4 -2
BITMAP
000F8000
003FC000
007FE000
0070F000
00707000
00E07000
00707000
0070F000
007FE000
003FC000
000F8000
00000000
00000000
00000000
00000000
FC0001F0
FC0001F0
FC0001F0
FC0001F0
FC0001F0
FC0001F0
FC0001F0
FC0001F0
FC0001F0
FC0001F0
FC0001F0
FC0001F0
FC0001F0
FC0001F0
FC0001F0
FC0001F0
FC0001F0
FC0001F0
FC0001F0
FC0001F0
FC0001F0
FC0001F0
FC0003F0
FC0003F0
FC0003F0
FC0003F0
FC0007F0
FC0007F0
FE000FF0
7E001FF0
7F003FF0
7FC0FDF0
3FFFF9F0
3FFFF1F0
1FFFE1F0
07FF8000
01FC0000
ENDCHAR
STARTCHAR 0170
ENCODING 368
SWIDTH 720 0
DWIDTH 48 0
BBX 37 65 6 -2
BITMAP
0000FE1FE0
0001FC1FC0
0003F83F80
0003F07F00
0007E07E00
000FC0FC00
000F81F800
001F01F000
003E03E000
003C07C000
0000000000
0000000000
0000000000
0000000000
FC000001F8
FC000001F8
FC000001F8
FC000001F8
FC000001F8
FC000001F8
FC000001F8
FC000001F8
FC000001F8
FC000001F8
FC000001F8
FC000001F8
FC000001F8
FC000001F8
FC000001F8
FC000001F8
FC000001F8
FC000001F8
FC000001F8
FC000001F8
FC000001F8
FC000001F8
FC000001F8
FC000001F8
FC000001F8
FC000001F8
FC000001F8
FC000001F8
FC000001F8
FC000001F8
FC000001F8
FC000001F8
FC000001F8
FC000001F8
FC000001F8
FC000001F8
FC000001F8
FC000001F8
FC000003F8
FE000003F0
7E000007F0
7F000007F0
7F80000FE0
3FC0003FE0
1FF000FFC0
1FFFDFFF80
0FFFFFFF00
03FFFFFE00
01FFFFF800
007FFFE000
0007FE0000
ENDCHAR
STARTCHAR 0171
ENCODING 369
SWIDTH 555 0
DWIDTH 37 0
BBX 31 52 4 -2
BITMAP
000FE1FE
001FC1FC
001F83F8
003F03F0
007E07E0
007C0FC0
00F80F80
01F01F00
01E03E00
03C03C00
00000000
00000000
00000000
00000000
00000000
FC0001F0
FC0001F0
FC0001F0
FC0001F0
FC0001F0
FC0001F0
FC0001F0
FC0001F0
FC0001F0
FC0001F0
FC0001F0
FC0001F0
FC0001F0
FC0001F0
FC0001F0
FC0001F0
FC0001F0
FC0001F0
FC0001F0
FC0001F0
FC0001F0
FC0001F0
FC0003F0
FC0003F0
FC0003F0
FC0003F0
FC0007F0
FC0007F0
FE000FF0
7E001FF0
7F003FF0
7FC0FDF0
3FFFF9F0
3FFFF1F0
1FFFE1F0
07FF8000
01FC0000
ENDCHAR
STARTCHAR 0172
ENCODING 370
SWIDTH 720 0
DWIDTH 48 0
BBX 37 63 6 -14
BITMAP
FC000001F8
FC000001F8
FC000001F8
FC000001F8
FC000001F8
FC000001F8
FC000001F8
FC000001F8
FC000001F8
FC000001F8
FC000001F8
FC000001F8
FC000001F8
FC000001F8
FC000001F8
FC000001F8
FC000001F8
FC000001F8
FC000001F8
FC000001F8
FC000001F8
FC000001F8
FC000001F8
FC000001F8
FC000001F8
FC000001F8
FC000001F8
FC000001F8
FC000001F8
FC000001F8
FC000001F8
FC000001F8
FC000001F8
FC000001F8
FC000001F8
FC000001F8
FC000001F8
FC000003F8
FC000003F8
FE000003F0
7E000007F0
7F000007F0
7F80000FE0
3FC0003FC0
1FF000FFC0
1FFFDFFF80
0FFFFFFF00
03FFFFFE00
01FFFFFC00
007FFFF800
0007FE7000
000001E000
000003E000
000007C000
0000078000
00000F8000
00000F8000
00000F8000
000007C000
000007E000
000003FFC0
000001FFC0
0000003F80
ENDCHAR
STARTCHAR 0173
ENCODING 371
SWIDTH 555 0
DWIDTH 37 0
BBX 31 49 4 -14
BITMAP
FC0001F0
FC0001F0
FC0001F0
FC0001F0
FC0001F0
FC0001F0
FC0001F0
FC0001F0
FC0001F0
FC0001F0
FC0001F0
FC0001F0
FC0001F0
FC0001F0
FC0001F0
FC0001F0
FC0001F0
FC0001F0
FC0001F0
FC0001F0
FC0001F0
FC0001F0
FC0003F0
FC0003F0
FC0003F0
FC0003F0
FC0007F0
FC0007F0
FE000FF0
7E001FF0
7F003FF0
7FC07DF0
3FFFFDF0
3FFFF9F0
1FFFF1F0
07FFC0E0
01FE03C0
00000780
00000F00
00001F00
00001E00
00003E00
00003E00
00003E00
00003F00
00001F82
00000FFE
000007FE
000001FC
ENDCHAR
STARTCHAR 0174
ENCODING 372
SWIDTH 945 0
DWIDTH 63 0
BBX 60 63 2 0
BITMAP
0000003F80000000
0000007F80000000
000000FFC0000000
000000FFE0000000
000001F3E0000000
000003F1F0000000
000003E0F8000000
000007C078000000
000007807C000000
00000F003E000000
0000000000000000
0000000000000000
0000000000000000
0000000000000000
FE00003F800007F0
FE00003F800007F0
FE00003FC0000FE0
FE00007FC0000FE0
7E00007FC0000FE0
7F00007FE0000FE0
7F00007FE0000FC0
7F0000FFE0001FC0
3F0000FFE0001FC0
3F8000FBF0001FC0
3F8001FBF0001F80
3F8001FBF0003F80
1F8001F9F0003F80
1F8001F1F8003F80
1FC003F1F8003F00
1FC003F1F8003F00
0FC003F0FC007F00
0FC003E0FC007F00
0FE007E0FC007E00
0FE007E07C007E00
07E007C07E00FE00
07E00FC07E00FE00
07F00FC07E00FC00
07F00FC03F00FC00
03F00F803F01FC00
03F01F803F01FC00
03F01F801F01F800
03F81F801F81F800
01F81F001F81F800
01F83F001F83F000
01F83F000F83F000
01FC3E000FC3F000
00FC3E000FC3F000
00FC7E000FC7E000
00FC7E0007E7E000
00FE7C0007E7E000
007EFC0007E7E000
007EFC0003E7C000
007EFC0003FFC000
007EF80003FFC000
003FF80003FFC000
003FF80001FF8000
003FF00001FF8000
001FF00001FF8000
001FF00000FF8000
001FF00000FF0000
001FE00000FF0000
000FE00000FF0000
000FE000007F0000
ENDCHAR
STARTCHAR 0175
ENCODING 373
SWIDTH 720 0
DWIDTH 48 0
BBX 46 50 1 0
BITMAP
00001FC00000
00001FE00000
00003FE00000
00007FF00000
00007DF80000
0000F8F80000
0000F87C0000
0001F03E0000
0003E01E0000
0003C01F0000
000000000000
000000000000
000000000000
000000000000
000000000000
FC001FC000FC
FC001FE000FC
FC001FE001F8
FC003FE001F8
7E003FE001F8
7E003FF001F8
7E003FF003F0
3F007FF003F0
3F007DF003F0
3F007DF803E0
3F007DF807E0
1F807CF807E0
1F80F8F807E0
1F80F8FC0FC0
0F80F8FC0FC0
0FC0F87C0FC0
0FC1F07C0F80
0FC1F07E1F80
07C1F07E1F80
07E1F03E1F00
07E3E03E1F00
03E3E03F3F00
03E3E03F3F00
03F3E01F3E00
03F7C01F3E00
01F7C01FFE00
01F7C01FFC00
01FFC00FFC00
00FF800FFC00
00FF800FFC00
00FF800FF800
00FF8007F800
007F0007F800
007F0007F000
007F0007F000
ENDCHAR
STARTCHAR 0176
ENCODING 374
SWIDTH 660 0
DWIDTH 44 0
BBX 43 63 1 0
BITMAP
00003F800000
00003FC00000
00007FE00000
00007FE00000
0000F9F00000
0001F0F80000
0001E0F80000
0003E07C0000
0007C03E0000
0007801E0000
000000000000
000000000000
000000000000
000000000000
FF0000001FE0
7F0000001FC0
7F8000003FC0
3FC000003F80
1FC000007F00
1FE00000FF00
0FE00000FE00
07F00001FC00
07F80001FC00
03F80003F800
03FC0003F800
01FC0007F000
00FE000FE000
00FF000FE000
007F001FC000
003F801FC000
003F803F8000
001FC07F0000
001FE07F0000
000FE0FE0000
0007F0FC0000
0007F1FC0000
0003F9F80000
0001FFF80000
0001FFF00000
0000FFE00000
00007FE00000
00007FC00000
00003FC00000
00003F800000
00001F800000
00001F800000
00001F800000
00001F800000
00001F800000
00001F800000
00001F800000
00001F800000
00001F800000
00001F800000
00001F800000
00001F800000
00001F800000
00001F800000
00001F800000
00001F800000
00001F800000
00001F800000
00001F800000
ENDCHAR
STARTCHAR 0177
ENCODING 375
SWIDTH 495 0
DWIDTH 33 0
BBX 31 64 1 -14
BITMAP
000FE000
000FF000
001FF000
003FF800
003EFC00
007C7C00
00783E00
00F81F00
01F01F00
01E00F80
00000000
00000000
00000000
00000000
00000000
FC00007E
7E0000FC
7E0000FC
7E0000FC
3F0001F8
3F0001F8
1F0001F0
1F8003F0
1F8003F0
0F8007E0
0FC007E0
0FC007E0
07C00FC0
07E00FC0
07E00FC0
03E01F80
03F01F80
03F01F00
01F03F00
01F83F00
01F83E00
00F87E00
00FC7E00
00FC7C00
007CFC00
007EF800
007FF800
003FF800
003FF000
003FF000
001FF000
001FE000
001FE000
000FE000
000FC000
000FC000
000F8000
001F8000
001F8000
003F0000
003F0000
003F0000
007E0000
00FE0000
1FFC0000
1FFC0000
1FF80000
1FF00000
1FC00000
ENDCHAR
STARTCHAR 0178
ENCODING 376
SWIDTH 660 0
DWIDTH 44 0
BBX 43 61 1 0
BITMAP
0007F0FE0000
0007F0FE0000
0007F0FE0000
0007F0FE0000
0007F0FE0000
0007F0FE0000
0007F0FE0000
000000000000
000000000000
000000000000
000000000000
000000000000
FF0000001FE0
7F0000001FC0
7F8000003FC0
3FC000003F80
1FC000007F00
1FE00000FF00
0FE00000FE00
07F00001FC00
07F80001FC00
03F80003F800
03FC0003F800
01FC0007F000
00FE000FE000
00FF000FE000
007F001FC000
003F801FC000
003F803F8000
001FC07F0000
001FE07F0000
000FE0FE0000
0007F0FC0000
0007F1FC0000
0003F9F80000
0001FFF80000
0001FFF00000
0000FFE00000
00007FE00000
00007FC00000
00003FC00000
00003F800000
00001F800000
00001F800000
00001F800000
00001F800000
00001F800000
00001F800000
00001F800000
00001F800000
00001F800000
00001F800000
00001F800000
00001F800000
00001F800000
00001F800000
00001F800000
00001F800000
00001F800000
00001F800000
00001F800000
ENDCHAR
STARTCHAR 0179
ENCODING 377
SWIDTH 615 0
DWIDTH 41 0
BBX 37 63 2 0
BITMAP
000007F000
00000FE000
00000FC000
00001F8000
00003F0000
00003E0000
00007C0000
0000F80000
0000F00000
0001E00000
0000000000
0000000000
0000000000
0000000000
3FFFFFFFF8
3FFFFFFFF8
3FFFFFFFF8
3FFFFFFFF8
3FFFFFFFF8
00000007F8
0000000FF0
0000001FE0
0000001FC0
0000003FC0
0000007F80
000000FF00
000000FE00
000001FE00
000003FC00
000007F800
000007F000
00000FF000
00001FE000
00003FC000
00003F8000
00007F8000
0000FF0000
0001FE0000
0003FC0000
0003F80000
0007F80000
000FF00000
001FE00000
001FC00000
003FC00000
007F800000
00FF000000
00FE000000
01FE000000
03FC000000
07F8000000
0FF0000000
0FF0000000
1FE0000000
3FC0000000
7F80000000
7F00000000
FF00000000
FFFFFFFFF8
FFFFFFFFF8
FFFFFFFFF8
FFFFFFFFF8
FFFFFFFFF8
ENDCHAR
STARTCHAR 017A
ENCODING 378
SWIDTH 495 0
DWIDTH 33 0
BBX 28 50 2 0
BITMAP
0000FF00
0000FE00
0001FC00
0003F800
0003F000
0007E000
0007C000
000F8000
001F0000
001E0000
00000000
00000000
00000000
00000000
00000000
7FFFFFF0
7FFFFFF0
7FFFFFF0
7FFFFFF0
7FFFFFF0
00000FE0
00000FC0
00001F80
00003F80
00007F00
0000FE00
0001FC00
0001F800
0003F000
0007F000
000FE000
001FC000
003F8000
003F0000
007F0000
00FE0000
01FC0000
03F80000
07F00000
07E00000
0FE00000
1FC00000
3F800000
7F000000
FE000000
FFFFFFF0
FFFFFFF0
FFFFFFF0
FFFFFFF0
FFFFFFF0
ENDCHAR
STARTCHAR 017B
ENCODING 379
SWIDTH 615 0
DWIDTH 41 0
BBX 37 61 2 0
BITMAP
0000FE0000
0000FE0000
0000FE0000
0000FE0000
0000FE0000
0000FE0000
0000FE0000
0000000000
0000000000
0000000000
0000000000
0000000000
3FFFFFFFF8
3FFFFFFFF8
3FFFFFFFF8
3FFFFFFFF8
3FFFFFFFF8
00000007F8
0000000FF0
0000001FE0
0000001FC0
0000003FC0
0000007F80
000000FF00
000000FE00
000001FE00
000003FC00
000007F800
000007F000
00000FF000
00001FE000
00003FC000
00003F8000
00007F8000
0000FF0000
0001FE0000
0003FC0000
0003F80000
0007F80000
000FF00000
001FE00000
001FC00000
003FC00000
007F800000
00FF000000
00FE000000
01FE000000
03FC000000
07F8000000
0FF0000000
0FF0000000
1FE0000000
3FC0000000
7F80000000
7F00000000
FF00000000
FFFFFFFFF8
FFFFFFFFF8
FFFFFFFFF8
FFFFFFFFF8
FFFFFFFFF8
ENDCHAR
STARTCHAR 017C
ENCODING 380
SWIDTH 495 0
DWIDTH 33 0
BBX 28 48 2 0
BITMAP
001FC000
001FC000
001FC000
001FC000
001FC000
001FC000
001FC000
00000000
00000000
00000000
00000000
00000000
00000000
7FFFFFF0
7FFFFFF0
7FFFFFF0
7FFFFFF0
7FFFFFF0
00000FE0
00000FC0
00001F80
00003F80
00007F00
0000FE00
0001FC00
0001F800
0003F000
0007F000
000FE000
001FC000
003F8000
003F0000
007F0000
00FE0000
01FC0000
03F80000
07F00000
07E00000
0FE00000
1FC00000
3F800000
7F000000
FE000000
FFFFFFF0
FFFFFFF0
FFFFFFF0
FFFFFFF0
FFFFFFF0
ENDCHAR
STARTCHAR 017D
ENCODING 381
SWIDTH 615 0
DWIDTH 41 0
BBX 37 63 2 0
BITMAP
003C00F000
001E01F000
001F03E000
000F83E000
0007C7C000
0007EF8000
0003FF8000
0001FF0000
0001FE0000
0000FE0000
0000000000
0000000000
0000000000
0000000000
3FFFFFFFF8
3FFFFFFFF8
3FFFFFFFF8
3FFFFFFFF8
3FFFFFFFF8
00000007F8
0000000FF0
0000001FE0
0000001FC0
0000003FC0
0000007F80
000000FF00
000000FE00
000001FE00
000003FC00
000007F800
000007F000
00000FF000
00001FE000
00003FC000
00003F8000
00007F8000
0000FF0000
0001FE0000
0003FC0000
0003F80000
0007F80000
000FF00000
001FE00000
001FC00000
003FC00000
007F800000
00FF000000
00FE000000
01FE000000
03FC000000
07F8000000
0FF0000000
0FF0000000
1FE0000000
3FC0000000
7F80000000
7F00000000
FF00000000
FFFFFFFFF8
FFFFFFFFF8
FFFFFFFFF8
FFFFFFFFF8
FFFFFFFFF8
ENDCHAR
STARTCHAR 017E
ENCODING 382
SWIDTH 495 0
DWIDTH 33 0
BBX 28 50 2 0
BITMAP
07C00F00
03E01E00
01E03E00
01F07C00
00F8F800
007CF800
007FF000
003FF000
003FE000
001FC000
00000000
00000000
00000000
00000000
00000000
7FFFFFF0
7FFFFFF0
7FFFFFF0
7FFFFFF0
7FFFFFF0
00000FE0
00000FC0
00001F80
00003F80
00007F00
0000FE00
0001FC00
0001F800
0003F000
0007F000
000FE000
001FC000
003F8000
003F0000
007F0000
00FE0000
01FC0000
03F80000
07F00000
07E00000
0FE00000
1FC00000
3F800000
7F000000
FE000000
FFFFFFF0
FFFFFFF0
FFFFFFF0
FFFFFFF0
FFFFFFF0
ENDCHAR
STARTCHAR 017F
ENCODING 383
SWIDTH 225 0
DWIDTH 15 0
BBX 16 49 -1 0
BITMAP
003F
00FF
01FF
03FF
03FF
07F0
07E0
07E0
07E0
07E0
07E0
07E0
07E0
07E0
FFE0
FFE0
FFE0
FFE0
FFE0
07E0
07E0
07E0
07E0
07E0
07E0
07E0
07E0
07E0
07E0
07E0
07E0
07E0
07E0
07E0
07E0
07E0
07E0
07E0
07E0
07E0
07E0
07E0
07E0
07E0
07E0
07E0
07E0
07E0
07E0
ENDCHAR
STARTCHAR 0192
ENCODING 402
SWIDTH 555 0
DWIDTH 37 0
BBX 35 64 1 -14
BITMAP
0000001F80
0000007FE0
000001FFE0
000003FFC0
000007FFC0
00000FF9C0
00000FE000
00001FC000
00001F8000
00001F8000
00003F0000
00003F0000
00003F0000
00003F0000
00003E0000
00007E0000
00007E0000
00007E0000
00007E0000
00FFFFFC00
00FFFFFC00
00FFFFFC00
00FFFFFC00
00FFFFFC00
0000FC0000
0000F80000
0001F80000
0001F80000
0001F80000
0001F80000
0001F00000
0003F00000
0003F00000
0003F00000
0003F00000
0003E00000
0007E00000
0007E00000
0007E00000
0007E00000
0007E00000
0007C00000
000FC00000
000FC00000
000FC00000
000FC00000
000F800000
001F800000
001F800000
001F800000
001F800000
001F800000
003F000000
003F000000
003F000000
007E000000
007E000000
00FC000000
41FC000000
7FF8000000
FFF0000000
FFE0000000
FFC0000000
FE00000000
ENDCHAR
STARTCHAR 01FA
ENCODING 506
SWIDTH 660 0
DWIDTH 44 0
BBX 42 72 1 0
BITMAP
00007F800000
00007E000000
0000FC000000
0001F8000000
0001F0000000
0003E0000000
0007C0000000
000780000000
000F1F000000
001E3F800000
00007FC00000
0000F1E00000
0000E0E00000
0001C0E00000
0001C0E00000
0000E0E00000
0000F1E00000
0000FFC00000
00007F800000
00001E000000
000000000000
000000000000
000000000000
00007FC00000
00007FC00000
00007FC00000
0000FFE00000
0000FFE00000
0000FFE00000
0001FFF00000
0001FBF00000
0003FBF00000
0003F3F80000
0003F1F80000
0007F1F80000
0007E1FC0000
0007E0FC0000
000FE0FE0000
000FC0FE0000
000FC07E0000
001FC07F0000
001F807F0000
001F803F0000
003F003F8000
003F003F8000
003F001F8000
007E001FC000
007E001FC000
00FE000FC000
00FC000FE000
00FC000FE000
01FC0007E000
01FFFFFFF000
01FFFFFFF000
03FFFFFFF000
03FFFFFFF800
03FFFFFFF800
07F00001F800
07E00001FC00
07E00001FC00
0FE00000FE00
0FC00000FE00
1FC00000FE00
1FC000007F00
1F8000007F00
3F8000007F00
3F8000003F80
3F0000003F80
7F0000003F80
7F0000001FC0
7E0000001FC0
FE0000001FC0
ENDCHAR
STARTCHAR 01FB
ENCODING 507
SWIDTH 555 0
DWIDTH 37 0
BBX 33 62 3 -2
BITMAP
0007F00000
000FE00000
001FC00000
001F800000
003F000000
007E000000
007C000000
00F8000000
01F0000000
01E0000000
0007C00000
000FF00000
001FF80000
003C780000
0038380000
0038180000
0038380000
003C780000
001FF00000
000FF00000
0007C00000
0000000000
0000000000
0000000000
001FF00000
00FFFF0000
03FFFF8000
0FFFFFC000
1FFFFFE000
1FF03FF000
3F8007F000
3F0003F000
3F0001F000
3E0001F000
7E0001F000
000001F000
000001F000
000001F000
000003F000
00001FF000
0007FFF000
01FFFFF000
07FFFFF000
1FFFFDF000
3FFF81F000
3FE001F000
7F0001F000
7E0001F000
FC0001F000
FC0001F000
FC0001F000
FC0001F000
FC0003F000
FC0007F000
FC000FF000
FE001FF800
7F807FF800
7FFFFDFF80
3FFFF9FF80
1FFFF0FF80
07FFC07F80
01FE003F00
ENDCHAR
STARTCHAR 01FC
ENCODING 508
SWIDTH 1005 0
DWIDTH 67 0
BBX 62 63 1 0
BITMAP
0000000001FE0000
0000000001FC0000
0000000003F80000
0000000003F00000
0000000007E00000
000000000FC00000
000000000F800000
000000001F000000
000000003E000000
000000003C000000
0000000000000000
0000000000000000
0000000000000000
0000000000000000
00001FFFFFFFFFF8
00001FFFFFFFFFF8
00001FFFFFFFFFF8
00003FFFFFFFFFF8
00003FFFFFFFFFF8
00007F03F0000000
00007E03F0000000
00007E03F0000000
0000FC03F0000000
0000FC03F0000000
0001FC03F0000000
0001F803F0000000
0001F803F0000000
0003F003F0000000
0003F003F0000000
0007F003F0000000
0007E003F0000000
0007E003F0000000
000FC003F0000000
000FC003F0000000
001FC003F0000000
001F8003FFFFFFF0
001F8003FFFFFFF0
003F0003FFFFFFF0
003F0003FFFFFFF0
007F0003FFFFFFF0
007E0003F0000000
00FE0003F0000000
00FE0003F0000000
00FFFFFFF0000000
01FFFFFFF0000000
01FFFFFFF0000000
03FFFFFFF0000000
03FFFFFFF0000000
03F00003F0000000
07F00003F0000000
07E00003F0000000
0FE00003F0000000
0FE00003F0000000
0FC00003F0000000
1FC00003F0000000
1FC00003F0000000
3F800003F0000000
3F800003F0000000
3F000003FFFFFFFC
7F000003FFFFFFFC
7F000003FFFFFFFC
FE000003FFFFFFFC
FE000003FFFFFFFC
ENDCHAR
STARTCHAR 01FD
ENCODING 509
SWIDTH 885 0
DWIDTH 59 0
BBX 54 52 2 -2
BITMAP
00000007F00000
0000000FE00000
0000000FC00000
0000001F800000
0000003F000000
0000003E000000
0000007C000000
000000F8000000
000000F0000000
000001E0000000
00000000000000
00000000000000
00000000000000
00000000000000
001FF0001FE000
00FFFE00FFFC00
03FFFF83FFFF00
07FFFFC7FFFF80
0FFFFFEFFFFFC0
1FF01FFFF07FE0
1FC007FFC00FF0
3F8003FF0007F0
3F0001FE0003F8
3F0001FE0001F8
3F0001FC0001F8
000001FC0000FC
000001F80000FC
000001F80000FC
000001F80000FC
000007F80000FC
0007FFFFFFFFFC
00FFFFFFFFFFFC
07FFFFFFFFFFFC
0FFFFDFFFFFFFC
1FFF81FFFFFFFC
3FE001F8000000
7F8001F8000000
7F0001F8000000
7E0001F8000000
FC0001F8000000
FC0001FC0000FC
FC0001FC0001F8
FC0003FE0001F8
FC0007FE0003F8
7E000FFF0007F0
7F001FBFC00FF0
7F807F1FF03FE0
3FFFFE0FFFFFC0
1FFFFC07FFFF80
0FFFF003FFFF00
07FFC000FFFC00
00FF00001FE000
ENDCHAR
STARTCHAR 01FE
ENCODING 510
SWIDTH 780 0
DWIDTH 52 0
BBX 48 65 2 -2
BITMAP
000000FE0000
000001FC0000
000003F80000
000003F00000
000007E00000
00000FC00000
00000F800000
00001F000000
00003E000000
00003C000000
000000000000
000000000000
000000000000
00001FF8000E
0001FFFF801F
0007FFFFE03E
001FFFFFF87C
003FFFFFFCF8
007FFEFFFFF0
01FFC003FFE0
01FF0000FFC0
03FC00003FC0
07F800001FE0
0FF000001FE0
0FE000003FF0
1FC000007FF8
1FC00000FBF8
3F800001F1F8
3F800003E1FC
3F000007C1FC
7F00000F80FC
7F00001F00FC
7E00001E00FE
7E00003E007E
7E00007C007E
7E0000F8007E
FE0001F0007E
FE0003E0007E
FE0007C0007E
FE000F80007E
FE001F00007E
FE001E00007E
7E003C00007E
7E007C00007E
7E00F800007E
7E01F00000FE
7F03E00000FE
7F07C00000FC
3F0F800001FC
3F9F000001FC
3F9E000001F8
1FFC000003F8
1FF8000007F0
0FF8000007F0
0FF000000FE0
07F800001FE0
07FC00003FC0
0FFF0000FF80
1FFFC003FF00
3EFFFEFFFE00
3C7FFFFFFC00
781FFFFFF000
F807FFFFE000
7001FFFF0000
20003FF80000
ENDCHAR
STARTCHAR 01FF
ENCODING 511
SWIDTH 615 0
DWIDTH 41 0
BBX 34 52 1 -2
BITMAP
00003F8000
00007F0000
0000FE0000
0000FC0000
0001F80000
0003F00000
0003E00000
0007C00000
000F800000
000F000000
0000000000
0000000000
0000000000
0000000000
0007FC0080
003FFF01C0
00FFFFC3C0
01FFFFE780
03FFFFFF00
07FE0FFE00
07F003FC00
0FE001FE00
1FC000FE00
1F8000FE00
1F8001FF00
3F0003FF00
3F0007BF00
3F000F1F80
3F001E1F80
3E001C1F80
3E00381F80
7E00781F80
7E00F01F80
7E01E01F80
7E03C01F80
7E07801F80
3E0F001F80
3F0E001F80
3F1E001F80
3F3C003F00
3F78003F00
1FF0003F00
1FE0007E00
1FC000FE00
0FE001FE00
0FF003FC00
0FFE0FF800
1FFFFFF000
3DFFFFE000
78FFFFC000
F03FFF0000
6007F80000
ENDCHAR
STARTCHAR 0218
ENCODING 536
SWIDTH 660 0
DWIDTH 44 0
BBX 38 69 3 -19
BITMAP
0003FF0000
003FFFF000
00FFFFFC00
01FFFFFE00
03FFFFFF80
07FF03FFC0
0FF0003FC0
1FE0001FE0
1FC0000FE0
1F800007F0
3F800003F0
3F000003F8
3F000001F8
3F000001F8
3F000001F8
3F00000000
3F00000000
3F80000000
3FC0000000
1FF0000000
1FFC000000
0FFFC00000
0FFFF80000
03FFFF8000
01FFFFF800
007FFFFE00
000FFFFF80
0000FFFFC0
00000FFFE0
000001FFF0
0000003FF8
0000000FF8
00000003FC
00000001FC
00000000FC
FC000000FC
FC000000FC
FC000000FC
7E000000FC
7E000000FC
7E000000FC
7F000001FC
3F800001F8
3FC00003F8
1FE00007F0
1FF8001FF0
0FFFE7FFE0
07FFFFFFC0
01FFFFFF80
00FFFFFE00
003FFFF800
0003FF8000
0000000000
0000000000
0000FE0000
0000FE0000
0000FE0000
0000FE0000
0000FE0000
0000FE0000
0000FE0000
00000E0000
00000E0000
00000E0000
00000E0000
00001C0000
00007C0000
0000F80000
0000F00000
ENDCHAR
STARTCHAR 0219
ENCODING 537
SWIDTH 495 0
DWIDTH 33 0
BBX 29 55 2 -19
BITMAP
003FE000
01FFFC00
07FFFF00
0FFFFF80
1FFFFF80
1FE07FC0
3F801FC0
3F000FE0
7E0007E0
7E0007E0
7E0007E0
7E000000
7F000000
7F000000
3FC00000
3FF80000
1FFF8000
0FFFF800
07FFFE00
01FFFF80
003FFFC0
0003FFE0
00003FF0
00000FF0
000003F0
000003F8
FC0001F8
FC0001F8
7E0001F0
7E0003F0
7F0003F0
7F800FF0
3FF03FE0
3FFFFFC0
1FFFFF80
0FFFFF00
03FFFC00
007FE000
00000000
00000000
001FC000
001FC000
001FC000
001FC000
001FC000
001FC000
001FC000
0001C000
0001C000
0001C000
00038000
00038000
000F0000
001F0000
001C0000
ENDCHAR
STARTCHAR 021A
ENCODING 538
SWIDTH 615 0
DWIDTH 41 0
BBX 39 68 1 -19
BITMAP
FFFFFFFFFE
FFFFFFFFFE
FFFFFFFFFE
FFFFFFFFFE
FFFFFFFFFE
0000FE0000
0000FE0000
0000FE0000
0000FE0000
0000FE0000
0000FE0000
0000FE0000
0000FE0000
0000FE0000
0000FE0000
0000FE0000
0000FE0000
0000FE0000
0000FE0000
0000FE0000
0000FE0000
0000FE0000
0000FE0000
0000FE0000
0000FE0000
0000FE0000
0000FE0000
0000FE0000
0000FE0000
0000FE0000
0000FE0000
0000FE0000
0000FE0000
0000FE0000
0000FE0000
0000FE0000
0000FE0000
0000FE0000
0000FE0000
0000FE0000
0000FE0000
0000FE0000
0000FE0000
0000FE0000
0000FE0000
0000FE0000
0000FE0000
0000FE0000
0000FE0000
0000000000
0000000000
0000000000
0000000000
0000FE0000
0000FE0000
0000FE0000
0000FE0000
0000FE0000
0000FE0000
0000FE0000
00000E0000
00000E0000
00000E0000
00001C0000
00001C0000
0000F80000
0000F80000
0000E00000
ENDCHAR
STARTCHAR 021B
ENCODING 539
SWIDTH 285 0
DWIDTH 19 0
BBX 16 64 1 -19
BITMAP
07C0
07C0
07C0
07C0
07C0
07C0
07C0
07C0
07C0
07C0
FFFF
FFFF
FFFF
FFFF
FFFF
07C0
07C0
07C0
07C0
07C0
07C0
07C0
07C0
07C0
07C0
07C0
07C0
07C0
07C0
07C0
07C0
07C0
07C0
07C0
07C0
07C0
07C0
07C0
07C0
07C0
07C0
07E0
07FF
07FF
07FF
03FF
00FF
0000
0000
03F8
03F8
03F8
03F8
03F8
03F8
03F8
0038
0038
0038
0038
0070
01F0
03E0
03C0
ENDCHAR
STARTCHAR 02C6
ENCODING 710
SWIDTH 330 0
DWIDTH 22 0
BBX 18 10 2 40
BITMAP
07F000
07F800
0FFC00
1FFC00
1F3E00
3E3F00
3C1F00
7C0F80
F807C0
F003C0
ENDCHAR
STARTCHAR 02C7
ENCODING 711
SWIDTH 330 0
DWIDTH 22 0
BBX 18 10 2 40
BITMAP
F003C0
F80780
7C0F80
7C1F00
3E3F00
1F3E00
1FFC00
0FFC00
07F800
07F000
ENDCHAR
STARTCHAR 02C9
ENCODING 713
SWIDTH 330 0
DWIDTH 22 0
BBX 18 5 2 42
BITMAP
FFFFC0
FFFFC0
FFFFC0
FFFFC0
FFFFC0
ENDCHAR
STARTCHAR 02D8
ENCODING 728
SWIDTH 330 0
DWIDTH 22 0
BBX 20 9 1 40
BITMAP
F000F0
F000F0
F801F0
7C03E0
7FFFE0
3FFFC0
1FFF80
0FFF00
03FC00
ENDCHAR
STARTCHAR 02D9
ENCODING 729
SWIDTH 330 0
DWIDTH 22 0
BBX 7 7 8 41
BITMAP
FE
FE
FE
FE
FE
FE
FE
ENDCHAR
STARTCHAR 02DA
ENCODING 730
SWIDTH 330 0
DWIDTH 22 0
BBX 12 11 5 39
BITMAP
0F80
3FC0
7FE0
70F0
E070
E070
E070
70F0
7FE0
3FC0
0F00
ENDCHAR
STARTCHAR 02DB
ENCODING 731
SWIDTH 330 0
DWIDTH 22 0
BBX 14 14 4 -14
BITMAP
07C0
1F00
3E00
7C00
7800
F800
F800
F800
F800
F800
7E04
7FFC
1FFC
07F8
ENDCHAR
STARTCHAR 02DC
ENCODING 732
SWIDTH 330 0
DWIDTH 22 0
BBX 21 7 0 41
BITMAP
0F8078
1FE078
3FFFF8
7FFFF0
7DFFF0
783FE0
F007C0
ENDCHAR
STARTCHAR 02DD
ENCODING 733
SWIDTH 330 0
DWIDTH 22 0
BBX 25 10 -2 40
BITMAP
03F87F80
07F07F00
0FE0FE00
0FC1FC00
1F81F800
1F03F000
3E03E000
7C07C000
780F8000
F00F0000
ENDCHAR
STARTCHAR 0384
ENCODING 900
SWIDTH 330 0
DWIDTH 22 0
BBX 6 13 8 39
BITMAP
FC
FC
FC
FC
FC
FC
FC
7C
78
78
78
38
30
ENDCHAR
STARTCHAR 0385
ENCODING 901
SWIDTH 330 0
DWIDTH 22 0
BBX 18 17 2 40
BITMAP
03F000
03F000
03F000
03F000
03F000
03F000
01F000
01E000
01E000
01E000
FCEFC0
FCCFC0
FCCFC0
FC0FC0
FC0FC0
FC0FC0
FC0FC0
ENDCHAR
STARTCHAR 0386
ENCODING 902
SWIDTH 660 0
DWIDTH 44 0
BBX 42 49 1 0
BITMAP
1F007FC00000
1F007FC00000
1F007FC00000
1F00FFE00000
1F00FFE00000
1F00FFE00000
1F01FFF00000
1F01FBF00000
1F03FBF00000
1E03F3F80000
0E03F1F80000
0E07F1F80000
0E07E1FC0000
0007E0FC0000
000FE0FE0000
000FC0FE0000
000FC07E0000
001FC07F0000
001F807F0000
001F803F0000
003F003F8000
003F003F8000
003F001F8000
007E001FC000
007E001FC000
00FE000FC000
00FC000FE000
00FC000FE000
01FC0007E000
01FFFFFFF000
01FFFFFFF000
03FFFFFFF000
03FFFFFFF800
03FFFFFFF800
07F00001F800
07E00001FC00
07E00001FC00
0FE00000FE00
0FC00000FE00
1FC00000FE00
1FC000007F00
1F8000007F00
3F8000007F00
3F8000003F80
3F0000003F80
7F0000003F80
7F0000001FC0
7E0000001FC0
FE0000001FC0
ENDCHAR
STARTCHAR 0387
ENCODING 903
SWIDTH 285 0
DWIDTH 19 0
BBX 7 7 7 15
BITMAP
FE
FE
FE
FE
FE
FE
FE
ENDCHAR
STARTCHAR 0388
ENCODING 904
SWIDTH 780 0
DWIDTH 52 0
BBX 44 49 2 0
BITMAP
F87FFFFFFFE0
F87FFFFFFFE0
F87FFFFFFFE0
F87FFFFFFFE0
F87FFFFFFFE0
F87E00000000
F87E00000000
F87E00000000
F87E00000000
707E00000000
707E00000000
707E00000000
707E00000000
007E00000000
007E00000000
007E00000000
007E00000000
007E00000000
007E00000000
007E00000000
007E00000000
007FFFFFFFC0
007FFFFFFFC0
007FFFFFFFC0
007FFFFFFFC0
007FFFFFFFC0
007E00000000
007E00000000
007E00000000
007E00000000
007E00000000
007E00000000
007E00000000
007E00000000
007E00000000
007E00000000
007E00000000
007E00000000
007E00000000
007E00000000
007E00000000
007E00000000
007E00000000
007E00000000
007FFFFFFFF0
007FFFFFFFF0
007FFFFFFFF0
007FFFFFFFF0
007FFFFFFFF0
ENDCHAR
STARTCHAR 0389
ENCODING 905
SWIDTH 840 0
DWIDTH 56 0
BBX 47 49 1 0
BITMAP
FC7F0000007E
FC7F0000007E
FC7F0000007E
FC7F0000007E
FC7F0000007E
FC7F0000007E
FC7F0000007E
787F0000007E
787F0000007E
787F0000007E
787F0000007E
307F0000007E
307F0000007E
007F0000007E
007F0000007E
007F0000007E
007F0000007E
007F0000007E
007F0000007E
007F0000007E
007F0000007E
007FFFFFFFFE
007FFFFFFFFE
007FFFFFFFFE
007FFFFFFFFE
007FFFFFFFFE
007F0000007E
007F0000007E
007F0000007E
007F0000007E
007F0000007E
007F0000007E
007F0000007E
007F0000007E
007F0000007E
007F0000007E
007F0000007E
007F0000007E
007F0000007E
007F0000007E
007F0000007E
007F0000007E
007F0000007E
007F0000007E
007F0000007E
007F0000007E
007F0000007E
007F0000007E
007F0000007E
ENDCHAR
STARTCHAR 038A
ENCODING 906
SWIDTH 390 0
DWIDTH 26 0
BBX 15 49 2 0
BITMAP
F87E
F87E
F87E
F87E
F87E
F87E
F87E
F87E
F87E
707E
707E
707E
707E
007E
007E
007E
007E
007E
007E
007E
007E
007E
007E
007E
007E
007E
007E
007E
007E
007E
007E
007E
007E
007E
007E
007E
007E
007E
007E
007E
007E
007E
007E
007E
007E
007E
007E
007E
007E
ENDCHAR
STARTCHAR 038C
ENCODING 908
SWIDTH 780 0
DWIDTH 52 0
BBX 51 52 -2 -2
BITMAP
000001FF800000
FC001FFFF80000
FC007FFFFE0000
FC01FFFFFF8000
FC03FFFFFFC000
FC07FFEFFFE000
FC1FFC003FF000
FC1FF0000FF800
7C3FC00003FC00
787F800001FE00
78FF000000FE00
78FE0000007F00
39FC0000007F00
31FC0000003F80
03F80000001F80
03F80000001FC0
03F00000001FC0
07F00000000FC0
07F00000000FC0
07E00000000FE0
07E000000007E0
07E000000007E0
07E000000007E0
0FE000000007E0
0FE000000007E0
0FE000000007E0
0FE000000007E0
0FE000000007E0
0FE000000007E0
07E000000007E0
07E000000007E0
07E000000007E0
07E00000000FE0
07F00000000FC0
07F00000000FC0
03F00000001FC0
03F80000001FC0
03F80000001F80
01FC0000003F80
01FC0000007F00
00FE0000007F00
00FF000000FE00
007F800001FE00
003FC00003FC00
003FF0000FF800
001FFC003FF000
000FFFEFFFE000
0003FFFFFFC000
0001FFFFFF8000
00007FFFFE0000
00001FFFF80000
000001FF800000
ENDCHAR
STARTCHAR 038E
ENCODING 910
SWIDTH 855 0
DWIDTH 57 0
BBX 51 49 2 0
BITMAP
FCFF0000001FE0
FC7F0000001FC0
FC7F8000003F80
FC3F8000007F80
FC3FC000007F00
FC1FE00000FE00
FC0FE00000FE00
780FF00001FC00
7807F00001FC00
7803F80003F800
7803FC0007F000
3001FC0007F000
3000FE000FE000
0000FE000FE000
00007F001FC000
00007F803F8000
00003F803F8000
00001FC07F0000
00001FC07F0000
00000FE0FE0000
000007F0FC0000
000007F1FC0000
000003FBF80000
000003FBF00000
000001FFF00000
000000FFE00000
000000FFE00000
0000007FC00000
0000003F800000
0000003F800000
0000003F800000
0000003F800000
0000003F800000
0000003F800000
0000003F800000
0000003F800000
0000003F800000
0000003F800000
0000003F800000
0000003F800000
0000003F800000
0000003F800000
0000003F800000
0000003F800000
0000003F800000
0000003F800000
0000003F800000
0000003F800000
0000003F800000
ENDCHAR
STARTCHAR 038F
ENCODING 911
SWIDTH 750 0
DWIDTH 50 0
BBX 49 50 -1 0
BITMAP
000007FE000000
F8003FFFC00000
F801FFFFF80000
F803FFFFFE0000
F80FFFFFFF0000
F81FFFFFFF8000
F83FF000FFC000
F87FC0003FE000
F8FF00000FF000
F0FE000007F800
F1FC000003F800
73F8000001FC00
73F8000001FC00
63F0000000FE00
07F0000000FE00
07E00000007E00
07E00000007E00
0FE00000007F00
0FE00000007F00
0FC00000003F00
0FC00000003F00
0FC00000003F00
0FC00000003F00
0FC00000003F00
0FC00000003F00
0FC00000003F00
0FC00000003F00
0FC00000003F00
0FE00000003F00
07E00000007F00
07E00000007E00
07E00000007E00
07F00000007E00
03F0000000FC00
03F0000000FC00
01F8000001F800
01F8000001F800
00FC000003F000
00FE000007F000
007F00000FE000
003F80000FC000
001FC0003F8000
0007E0007E0000
0003F800FC0000
0000FC03F00000
1FFFFC03FFFF80
1FFFFC03FFFF80
1FFFFC03FFFF80
1FFFFC03FFFF80
1FFFFC03FFFF80
ENDCHAR
ENDFONT
